JonovaCondensed-BoldItalic.ufo
<glyph name="quotedbl" format="2">
  <advance width="552"/>
  <unicode hex="0022"/>
  <outline>
    <contour>
      <point x="197" y="901" type="line"/>
      <point x="223" y="1434" type="line"/>
      <point x="250" y="1464" type="line"/>
      <point x="401" y="1464" type="line"/>
      <point x="419" y="1434" type="line"/>
      <point x="304" y="901" type="line"/>
    </contour>
    <contour>
      <point x="485" y="901" type="line"/>
      <point x="511" y="1434" type="line"/>
      <point x="538" y="1464" type="line"/>
      <point x="689" y="1464" type="line"/>
      <point x="707" y="1434" type="line"/>
      <point x="592" y="901" type="line"/>
    </contour>
  </outline>
</glyph>
<glyph name="percent" format="2">
  <advance width="1200"/>
  <unicode hex="0025"/>
  <outline>
    <contour>
      <point x="472" y="1342" type="qcurve"/>
      <point x="446" y="1342"/>
      <point x="397" y="1276"/>
      <point x="358" y="1171"/>
      <point x="334" y="1040"/>
      <point x="334" y="975" type="qcurve"/>
      <point x="334" y="896"/>
      <point x="372" y="826"/>
      <point x="404" y="826" type="qcurve"/>
      <point x="431" y="826"/>
      <point x="480" y="888"/>
      <point x="519" y="990"/>
      <point x="542" y="1118"/>
      <point x="542" y="1184" type="qcurve"/>
      <point x="542" y="1226"/>
      <point x="530" y="1285"/>
      <point x="511" y="1324"/>
      <point x="485" y="1342"/>
    </contour>
    <contour>
      <point x="985" y="608" type="qcurve"/>
      <point x="963" y="608"/>
      <point x="915" y="548"/>
      <point x="874" y="449"/>
      <point x="847" y="324"/>
      <point x="847" y="258" type="qcurve"/>
      <point x="847" y="214"/>
      <point x="860" y="151"/>
      <point x="881" y="111"/>
      <point x="905" y="92"/>
      <point x="917" y="92" type="qcurve"/>
      <point x="938" y="92"/>
      <point x="987" y="152"/>
      <point x="1028" y="249"/>
      <point x="1055" y="375"/>
      <point x="1055" y="441" type="qcurve"/>
      <point x="1055" y="485"/>
      <point x="1042" y="548"/>
      <point x="1022" y="589"/>
      <point x="997" y="608"/>
    </contour>
    <contour>
      <point x="1227" y="1434" type="line"/>
      <point x="265" y="-30" type="line"/>
      <point x="162" y="0" type="line"/>
      <point x="1124" y="1464" type="line"/>
    </contour>
    <contour>
      <point x="1001" y="730" type="qcurve"/>
      <point x="1042" y="730"/>
      <point x="1112" y="697"/>
      <point x="1163" y="628"/>
      <point x="1191" y="524"/>
      <point x="1191" y="454" type="qcurve"/>
      <point x="1191" y="367"/>
      <point x="1154" y="194"/>
      <point x="1080" y="56"/>
      <point x="971" y="-30"/>
      <point x="900" y="-30" type="qcurve"/>
      <point x="860" y="-30"/>
      <point x="790" y="3"/>
      <point x="739" y="72"/>
      <point x="710" y="175"/>
      <point x="710" y="246" type="qcurve"/>
      <point x="710" y="303"/>
      <point x="727" y="420"/>
      <point x="761" y="527"/>
      <point x="809" y="621"/>
      <point x="874" y="690"/>
      <point x="953" y="730"/>
    </contour>
    <contour>
      <point x="488" y="1464" type="qcurve"/>
      <point x="530" y="1464"/>
      <point x="599" y="1430"/>
      <point x="650" y="1362"/>
      <point x="679" y="1258"/>
      <point x="679" y="1188" type="qcurve"/>
      <point x="679" y="1130"/>
      <point x="662" y="1014"/>
      <point x="629" y="906"/>
      <point x="580" y="813"/>
      <point x="515" y="744"/>
      <point x="435" y="704"/>
      <point x="388" y="704" type="qcurve"/>
      <point x="347" y="704"/>
      <point x="277" y="738"/>
      <point x="226" y="806"/>
      <point x="197" y="910"/>
      <point x="197" y="980" type="qcurve"/>
      <point x="197" y="1038"/>
      <point x="214" y="1154"/>
      <point x="248" y="1262"/>
      <point x="296" y="1355"/>
      <point x="362" y="1424"/>
      <point x="441" y="1464"/>
    </contour>
  </outline>
</glyph>
<glyph name="ampersand" format="2">
  <advance width="936"/>
  <unicode hex="0026"/>
  <outline>
    <contour>
      <point x="561" y="1191" type="qcurve"/>
      <point x="561" y="1159"/>
      <point x="570" y="1093"/>
      <point x="585" y="1034"/>
      <point x="602" y="987"/>
      <point x="611" y="974" type="qcurve"/>
      <point x="638" y="993"/>
      <point x="686" y="1039"/>
      <point x="722" y="1095"/>
      <point x="744" y="1162"/>
      <point x="744" y="1203" type="qcurve"/>
      <point x="744" y="1228"/>
      <point x="731" y="1272"/>
      <point x="709" y="1304"/>
      <point x="676" y="1322"/>
      <point x="656" y="1322" type="qcurve"/>
      <point x="635" y="1322"/>
      <point x="600" y="1301"/>
      <point x="575" y="1265"/>
      <point x="561" y="1217"/>
    </contour>
    <contour>
      <point x="461" y="709" type="line"/>
      <point x="421" y="676"/>
      <point x="357" y="583"/>
      <point x="313" y="475"/>
      <point x="290" y="356"/>
      <point x="290" y="298" type="qcurve"/>
      <point x="290" y="238"/>
      <point x="317" y="156"/>
      <point x="357" y="105"/>
      <point x="405" y="82"/>
      <point x="427" y="82" type="qcurve"/>
      <point x="454" y="82"/>
      <point x="508" y="97"/>
      <point x="558" y="123"/>
      <point x="602" y="156"/>
      <point x="620" y="174" type="qcurve"/>
    </contour>
    <contour>
      <point x="682" y="-30" type="line"/>
      <point x="648" y="82" type="line"/>
      <point x="621" y="60"/>
      <point x="563" y="19"/>
      <point x="502" y="-12"/>
      <point x="433" y="-30"/>
      <point x="395" y="-30" type="qcurve"/>
      <point x="324" y="-30"/>
      <point x="215" y="17"/>
      <point x="140" y="103"/>
      <point x="101" y="225"/>
      <point x="101" y="301" type="qcurve"/>
      <point x="101" y="398"/>
      <point x="158" y="563"/>
      <point x="249" y="701"/>
      <point x="362" y="812"/>
      <point x="419" y="855" type="qcurve"/>
      <point x="401" y="906"/>
      <point x="372" y="1025"/>
      <point x="372" y="1091" type="qcurve"/>
      <point x="372" y="1170"/>
      <point x="426" y="1297"/>
      <point x="512" y="1386"/>
      <point x="619" y="1434"/>
      <point x="671" y="1434" type="qcurve"/>
      <point x="725" y="1434"/>
      <point x="805" y="1396"/>
      <point x="856" y="1333"/>
      <point x="881" y="1253"/>
      <point x="881" y="1210" type="qcurve"/>
      <point x="881" y="1146"/>
      <point x="836" y="1034"/>
      <point x="768" y="939"/>
      <point x="687" y="863"/>
      <point x="651" y="835" type="qcurve"/>
      <point x="776" y="396" type="line"/>
      <point x="788" y="413"/>
      <point x="812" y="464"/>
      <point x="835" y="520"/>
      <point x="854" y="576"/>
      <point x="859" y="599" type="qcurve"/>
      <point x="974" y="569" type="line"/>
      <point x="962" y="537"/>
      <point x="925" y="456"/>
      <point x="883" y="374"/>
      <point x="837" y="297"/>
      <point x="816" y="269" type="qcurve"/>
      <point x="899" y="0" type="line"/>
    </contour>
  </outline>
</glyph>
<glyph name="quotesingle" format="2">
  <advance width="432"/>
  <unicode hex="0027"/>
  <outline>
    <contour>
      <point x="281" y="901" type="line"/>
      <point x="307" y="1434" type="line"/>
      <point x="334" y="1464" type="line"/>
      <point x="485" y="1464" type="line"/>
      <point x="503" y="1434" type="line"/>
      <point x="388" y="901" type="line"/>
    </contour>
  </outline>
</glyph>
<glyph name="parenleft" format="2">
  <advance width="552"/>
  <unicode hex="0028"/>
  <outline>
    <contour>
      <point x="672" y="1464" type="line"/>
      <point x="574" y="1359"/>
      <point x="435" y="1078"/>
      <point x="347" y="763"/>
      <point x="305" y="434"/>
      <point x="305" y="280" type="qcurve"/>
      <point x="305" y="196"/>
      <point x="320" y="39"/>
      <point x="352" y="-103"/>
      <point x="404" y="-227"/>
      <point x="441" y="-278" type="qcurve"/>
      <point x="427" y="-384" type="line"/>
      <point x="362" y="-321"/>
      <point x="258" y="-168"/>
      <point x="185" y="12"/>
      <point x="146" y="220"/>
      <point x="146" y="339" type="qcurve"/>
      <point x="146" y="534"/>
      <point x="224" y="901"/>
      <point x="366" y="1222"/>
      <point x="565" y="1482"/>
      <point x="686" y="1570" type="qcurve"/>
    </contour>
  </outline>
</glyph>
<glyph name="asterisk" format="2">
  <advance width="768"/>
  <unicode hex="002A"/>
  <outline>
    <contour>
      <point x="254" y="1321" type="line"/>
      <point x="330" y="1500" type="line"/>
      <point x="506" y="1295" type="line"/>
      <point x="512" y="1298" type="line"/>
      <point x="464" y="1606" type="line"/>
      <point x="618" y="1606" type="line"/>
      <point x="572" y="1299" type="line"/>
      <point x="578" y="1295" type="line"/>
      <point x="755" y="1501" type="line"/>
      <point x="831" y="1326" type="line"/>
      <point x="608" y="1225" type="line"/>
      <point x="608" y="1216" type="line"/>
      <point x="830" y="1118" type="line"/>
      <point x="754" y="941" type="line"/>
      <point x="578" y="1146" type="line"/>
      <point x="572" y="1143" type="line"/>
      <point x="620" y="835" type="line"/>
      <point x="466" y="835" type="line"/>
      <point x="512" y="1143" type="line"/>
      <point x="507" y="1147" type="line"/>
      <point x="331" y="938" type="line"/>
      <point x="254" y="1113" type="line"/>
      <point x="476" y="1217" type="line"/>
      <point x="476" y="1225" type="line"/>
    </contour>
    <contour>
      <point x="503" y="1221" type="qcurve"/>
      <point x="503" y="1200"/>
      <point x="526" y="1170"/>
      <point x="542" y="1170" type="qcurve"/>
      <point x="558" y="1170"/>
      <point x="581" y="1200"/>
      <point x="581" y="1221" type="qcurve"/>
      <point x="581" y="1243"/>
      <point x="558" y="1273"/>
      <point x="542" y="1273" type="qcurve"/>
      <point x="526" y="1273"/>
      <point x="503" y="1243"/>
    </contour>
  </outline>
</glyph>
<glyph name="plus" format="2">
  <advance width="864"/>
  <unicode hex="002B"/>
  <outline>
    <contour>
      <point x="118" y="381" type="line"/>
      <point x="146" y="593" type="line"/>
      <point x="431" y="593" type="line"/>
      <point x="481" y="974" type="line"/>
      <point x="640" y="974" type="line"/>
      <point x="590" y="593" type="line"/>
      <point x="875" y="593" type="line"/>
      <point x="847" y="381" type="line"/>
      <point x="562" y="381" type="line"/>
      <point x="512" y="0" type="line"/>
      <point x="353" y="0" type="line"/>
      <point x="403" y="381" type="line"/>
    </contour>
  </outline>
</glyph>
<glyph name="comma" format="2">
  <advance width="432"/>
  <unicode hex="002C"/>
  <outline>
    <contour>
      <point x="138" y="154" type="line"/>
      <point x="289" y="325" type="line"/>
      <point x="309" y="325" type="line"/>
      <point x="322" y="297"/>
      <point x="346" y="196"/>
      <point x="346" y="121" type="qcurve"/>
      <point x="346" y="25"/>
      <point x="298" y="-145"/>
      <point x="217" y="-290"/>
      <point x="113" y="-412"/>
      <point x="56" y="-460" type="qcurve"/>
      <point x="0" y="-367" type="line"/>
      <point x="34" y="-331"/>
      <point x="96" y="-254"/>
      <point x="143" y="-169"/>
      <point x="172" y="-74"/>
      <point x="172" y="-19" type="qcurve"/>
      <point x="172" y="29"/>
      <point x="149" y="99"/>
      <point x="134" y="128" type="qcurve"/>
    </contour>
  </outline>
</glyph>
<glyph name="hyphen" format="2">
  <advance width="552"/>
  <unicode hex="002D"/>
  <outline>
    <contour>
      <point x="125" y="593" type="line"/>
      <point x="584" y="593" type="line"/>
      <point x="556" y="381" type="line"/>
      <point x="97" y="381" type="line"/>
    </contour>
  </outline>
</glyph>
<glyph name="two" format="2">
  <advance width="840"/>
  <unicode hex="0032"/>
  <outline>
    <contour>
      <point x="255" y="1265" type="line"/>
      <point x="333" y="1360"/>
      <point x="499" y="1464"/>
      <point x="594" y="1464" type="qcurve"/>
      <point x="655" y="1464"/>
      <point x="766" y="1422"/>
      <point x="851" y="1337"/>
      <point x="901" y="1209"/>
      <point x="901" y="1124" type="qcurve"/>
      <point x="901" y="1041"/>
      <point x="878" y="910"/>
      <point x="827" y="787"/>
      <point x="743" y="659"/>
      <point x="618" y="500"/>
      <point x="450" y="298"/>
      <point x="341" y="162" type="qcurve"/>
      <point x="806" y="202" type="line"/>
      <point x="779" y="0" type="line"/>
      <point x="73" y="0" type="line"/>
      <point x="80" y="59" type="line"/>
      <point x="213" y="229"/>
      <point x="407" y="486"/>
      <point x="542" y="684"/>
      <point x="626" y="835"/>
      <point x="673" y="961"/>
      <point x="689" y="1074"/>
      <point x="689" y="1136" type="qcurve"/>
      <point x="689" y="1178"/>
      <point x="672" y="1253"/>
      <point x="639" y="1309"/>
      <point x="593" y="1342"/>
      <point x="563" y="1342" type="qcurve"/>
      <point x="437" y="1342"/>
      <point x="339" y="1153" type="qcurve"/>
    </contour>
  </outline>
</glyph>
<glyph name="four" format="2">
  <advance width="840"/>
  <unicode hex="0034"/>
  <outline>
    <contour>
      <point x="644" y="1434" type="line"/>
      <point x="851" y="1391" type="line"/>
      <point x="300" y="472" type="line"/>
      <point x="520" y="488" type="line"/>
      <point x="545" y="686" type="line"/>
      <point x="719" y="740" type="line"/>
      <point x="764" y="740" type="line"/>
      <point x="732" y="502" type="line"/>
      <point x="845" y="510" type="line"/>
      <point x="824" y="350" type="line"/>
      <point x="713" y="350" type="line"/>
      <point x="667" y="0" type="line"/>
      <point x="455" y="0" type="line"/>
      <point x="501" y="350" type="line"/>
      <point x="100" y="350" type="line"/>
      <point x="108" y="410" type="line"/>
    </contour>
  </outline>
</glyph>
<glyph name="five" format="2">
  <advance width="840"/>
  <unicode hex="0035"/>
  <outline>
    <contour>
      <point x="232" y="760" type="line"/>
      <point x="320" y="1434" type="line"/>
      <point x="851" y="1434" type="line"/>
      <point x="824" y="1232" type="line"/>
      <point x="436" y="1272" type="line"/>
      <point x="386" y="893" type="line"/>
      <point x="395" y="899"/>
      <point x="426" y="910"/>
      <point x="461" y="919"/>
      <point x="496" y="925"/>
      <point x="509" y="925" type="qcurve"/>
      <point x="581" y="925"/>
      <point x="703" y="867"/>
      <point x="793" y="762"/>
      <point x="844" y="615"/>
      <point x="844" y="527" type="qcurve"/>
      <point x="844" y="400"/>
      <point x="773" y="194"/>
      <point x="651" y="49"/>
      <point x="486" y="-30"/>
      <point x="392" y="-30" type="qcurve"/>
      <point x="334" y="-30"/>
      <point x="238" y="9"/>
      <point x="161" y="69"/>
      <point x="105" y="139"/>
      <point x="88" y="170" type="qcurve"/>
      <point x="173" y="282" type="line"/>
      <point x="188" y="251"/>
      <point x="229" y="184"/>
      <point x="281" y="128"/>
      <point x="345" y="92"/>
      <point x="385" y="92" type="qcurve"/>
      <point x="448" y="92"/>
      <point x="541" y="168"/>
      <point x="602" y="294"/>
      <point x="632" y="456"/>
      <point x="632" y="542" type="qcurve"/>
      <point x="632" y="608"/>
      <point x="606" y="706"/>
      <point x="565" y="771"/>
      <point x="512" y="803"/>
      <point x="485" y="803" type="qcurve"/>
      <point x="437" y="803"/>
      <point x="370" y="776"/>
      <point x="352" y="760" type="qcurve"/>
    </contour>
  </outline>
</glyph>
<glyph name="six" format="2">
  <advance width="840"/>
  <unicode hex="0036"/>
  <outline>
    <contour>
      <point x="521" y="780" type="qcurve"/>
      <point x="491" y="780"/>
      <point x="437" y="739"/>
      <point x="391" y="669"/>
      <point x="354" y="577"/>
      <point x="328" y="476"/>
      <point x="314" y="371"/>
      <point x="314" y="324" type="qcurve"/>
      <point x="314" y="268"/>
      <point x="332" y="182"/>
      <point x="363" y="123"/>
      <point x="406" y="92"/>
      <point x="431" y="92" type="qcurve"/>
      <point x="470" y="92"/>
      <point x="543" y="175"/>
      <point x="599" y="309"/>
      <point x="632" y="476"/>
      <point x="632" y="560" type="qcurve"/>
      <point x="632" y="666"/>
      <point x="569" y="780"/>
    </contour>
    <contour>
      <point x="863" y="1342" type="line"/>
      <point x="776" y="1342"/>
      <point x="618" y="1263"/>
      <point x="488" y="1123"/>
      <point x="393" y="929"/>
      <point x="370" y="814" type="qcurve"/>
      <point x="413" y="856"/>
      <point x="508" y="902"/>
      <point x="553" y="902" type="qcurve"/>
      <point x="621" y="902"/>
      <point x="728" y="844"/>
      <point x="803" y="742"/>
      <point x="843" y="602"/>
      <point x="843" y="521" type="qcurve"/>
      <point x="843" y="408"/>
      <point x="776" y="208"/>
      <point x="662" y="58"/>
      <point x="512" y="-30"/>
      <point x="429" y="-30" type="qcurve"/>
      <point x="367" y="-30"/>
      <point x="256" y="33"/>
      <point x="173" y="157"/>
      <point x="125" y="343"/>
      <point x="125" y="465" type="qcurve"/>
      <point x="125" y="584"/>
      <point x="167" y="825"/>
      <point x="253" y="1047"/>
      <point x="380" y="1240"/>
      <point x="548" y="1382"/>
      <point x="756" y="1464"/>
      <point x="880" y="1464" type="qcurve"/>
    </contour>
  </outline>
</glyph>
<glyph name="seven" format="2">
  <advance width="840"/>
  <unicode hex="0037"/>
  <outline>
    <contour>
      <point x="945" y="1434" type="line"/>
      <point x="938" y="1375" type="line"/>
      <point x="329" y="-30" type="line"/>
      <point x="125" y="0" type="line"/>
      <point x="727" y="1272" type="line"/>
      <point x="236" y="1232" type="line"/>
      <point x="264" y="1434" type="line"/>
    </contour>
  </outline>
</glyph>
<glyph name="nine" format="2">
  <advance width="840"/>
  <unicode hex="0039"/>
  <outline>
    <contour>
      <point x="492" y="684" type="qcurve"/>
      <point x="529" y="684"/>
      <point x="587" y="728"/>
      <point x="633" y="800"/>
      <point x="665" y="892"/>
      <point x="687" y="988"/>
      <point x="697" y="1080"/>
      <point x="697" y="1116" type="qcurve"/>
      <point x="697" y="1222"/>
      <point x="633" y="1342"/>
      <point x="579" y="1342" type="qcurve"/>
      <point x="538" y="1342"/>
      <point x="465" y="1262"/>
      <point x="411" y="1134"/>
      <point x="380" y="975"/>
      <point x="380" y="897" type="qcurve"/>
      <point x="380" y="797"/>
      <point x="440" y="684"/>
    </contour>
    <contour>
      <point x="146" y="92" type="line"/>
      <point x="232" y="92"/>
      <point x="392" y="177"/>
      <point x="524" y="322"/>
      <point x="620" y="514"/>
      <point x="642" y="621" type="qcurve"/>
      <point x="602" y="591"/>
      <point x="506" y="562"/>
      <point x="461" y="562" type="qcurve"/>
      <point x="392" y="562"/>
      <point x="282" y="613"/>
      <point x="207" y="705"/>
      <point x="168" y="835"/>
      <point x="168" y="914" type="qcurve"/>
      <point x="168" y="1027"/>
      <point x="235" y="1227"/>
      <point x="348" y="1377"/>
      <point x="497" y="1464"/>
      <point x="581" y="1464" type="qcurve"/>
      <point x="643" y="1464"/>
      <point x="754" y="1400"/>
      <point x="837" y="1276"/>
      <point x="886" y="1092"/>
      <point x="886" y="971" type="qcurve"/>
      <point x="886" y="852"/>
      <point x="846" y="612"/>
      <point x="766" y="389"/>
      <point x="642" y="196"/>
      <point x="475" y="52"/>
      <point x="261" y="-30"/>
      <point x="131" y="-30" type="qcurve"/>
    </contour>
  </outline>
</glyph>
<glyph name="semicolon" format="2">
  <advance width="432"/>
  <unicode hex="003B"/>
  <outline>
    <contour>
      <point x="174" y="154" type="line"/>
      <point x="325" y="325" type="line"/>
      <point x="345" y="325" type="line"/>
      <point x="358" y="299"/>
      <point x="382" y="195"/>
      <point x="382" y="120" type="qcurve"/>
      <point x="382" y="24"/>
      <point x="334" y="-145"/>
      <point x="253" y="-291"/>
      <point x="149" y="-412"/>
      <point x="92" y="-460" type="qcurve"/>
      <point x="36" y="-367" type="line"/>
      <point x="70" y="-331"/>
      <point x="131" y="-255"/>
      <point x="179" y="-169"/>
      <point x="208" y="-73"/>
      <point x="208" y="-19" type="qcurve"/>
      <point x="208" y="29"/>
      <point x="185" y="100"/>
      <point x="170" y="128" type="qcurve"/>
    </contour>
    <contour>
      <point x="486" y="858" type="qcurve"/>
      <point x="486" y="828"/>
      <point x="469" y="774"/>
      <point x="440" y="735"/>
      <point x="399" y="712"/>
      <point x="377" y="712" type="qcurve"/>
      <point x="354" y="712"/>
      <point x="314" y="735"/>
      <point x="284" y="774"/>
      <point x="267" y="828"/>
      <point x="267" y="858" type="qcurve"/>
      <point x="267" y="888"/>
      <point x="284" y="942"/>
      <point x="314" y="981"/>
      <point x="354" y="1004"/>
      <point x="377" y="1004" type="qcurve"/>
      <point x="399" y="1004"/>
      <point x="440" y="981"/>
      <point x="469" y="942"/>
      <point x="486" y="888"/>
    </contour>
  </outline>
</glyph>
<glyph name="less" format="2">
  <advance width="864"/>
  <unicode hex="003C"/>
  <outline>
    <contour>
      <point x="820" y="1004" type="line"/>
      <point x="820" y="804" type="line"/>
      <point x="367" y="487" type="line"/>
      <point x="736" y="170" type="line"/>
      <point x="683" y="-30" type="line"/>
      <point x="141" y="436" type="line"/>
      <point x="155" y="538" type="line"/>
    </contour>
  </outline>
</glyph>
<glyph name="greater" format="2">
  <advance width="864"/>
  <unicode hex="003E"/>
  <outline>
    <contour>
      <point x="311" y="1004" type="line"/>
      <point x="852" y="538" type="line"/>
      <point x="839" y="436" type="line"/>
      <point x="173" y="-30" type="line"/>
      <point x="173" y="170" type="line"/>
      <point x="626" y="487" type="line"/>
      <point x="257" y="804" type="line"/>
    </contour>
  </outline>
</glyph>
<glyph name="question" format="2">
  <advance width="768"/>
  <unicode hex="003F"/>
  <outline>
    <contour>
      <point x="255" y="1265" type="line"/>
      <point x="302" y="1322"/>
      <point x="389" y="1399"/>
      <point x="473" y="1445"/>
      <point x="557" y="1464"/>
      <point x="602" y="1464" type="qcurve"/>
      <point x="657" y="1464"/>
      <point x="750" y="1421"/>
      <point x="817" y="1347"/>
      <point x="854" y="1247"/>
      <point x="854" y="1190" type="qcurve"/>
      <point x="854" y="1110"/>
      <point x="812" y="988"/>
      <point x="737" y="894"/>
      <point x="635" y="820"/>
      <point x="575" y="787" type="qcurve"/>
      <point x="543" y="770"/>
      <point x="490" y="730"/>
      <point x="450" y="681"/>
      <point x="428" y="622"/>
      <point x="428" y="586" type="qcurve"/>
      <point x="428" y="561"/>
      <point x="441" y="522"/>
      <point x="463" y="496"/>
      <point x="489" y="482"/>
      <point x="503" y="482" type="qcurve"/>
      <point x="488" y="370" type="line"/>
      <point x="445" y="370"/>
      <point x="380" y="408"/>
      <point x="335" y="470"/>
      <point x="314" y="548"/>
      <point x="314" y="589" type="qcurve"/>
      <point x="314" y="648"/>
      <point x="344" y="739"/>
      <point x="393" y="813"/>
      <point x="457" y="874"/>
      <point x="522" y="933"/>
      <point x="586" y="993"/>
      <point x="635" y="1066"/>
      <point x="665" y="1156"/>
      <point x="665" y="1214" type="qcurve"/>
      <point x="665" y="1275"/>
      <point x="608" y="1342"/>
      <point x="565" y="1342" type="qcurve"/>
      <point x="533" y="1342"/>
      <point x="475" y="1319"/>
      <point x="421" y="1273"/>
      <point x="368" y="1201"/>
      <point x="339" y="1153" type="qcurve"/>
    </contour>
    <contour>
      <point x="503" y="96" type="qcurve"/>
      <point x="503" y="70"/>
      <point x="488" y="24"/>
      <point x="462" y="-10"/>
      <point x="428" y="-30"/>
      <point x="408" y="-30" type="qcurve"/>
      <point x="389" y="-30"/>
      <point x="354" y="-10"/>
      <point x="329" y="24"/>
      <point x="314" y="70"/>
      <point x="314" y="96" type="qcurve"/>
      <point x="314" y="122"/>
      <point x="329" y="168"/>
      <point x="354" y="202"/>
      <point x="389" y="222"/>
      <point x="408" y="222" type="qcurve"/>
      <point x="428" y="222"/>
      <point x="462" y="202"/>
      <point x="488" y="168"/>
      <point x="503" y="122"/>
    </contour>
  </outline>
</glyph>
<glyph name="F" format="2">
  <advance width="816"/>
  <unicode hex="0046"/>
  <outline>
    <contour>
      <point x="287" y="1434" type="line"/>
      <point x="947" y="1434" type="line"/>
      <point x="926" y="1273" type="line"/>
      <point x="505" y="1312" type="line"/>
      <point x="445" y="859" type="line"/>
      <point x="800" y="859" type="line"/>
      <point x="781" y="717" type="line"/>
      <point x="426" y="717" type="line"/>
      <point x="332" y="0" type="line"/>
      <point x="98" y="0" type="line"/>
    </contour>
  </outline>
</glyph>
<glyph name="P" format="2">
  <advance width="864"/>
  <unicode hex="0050"/>
  <outline>
    <contour>
      <point x="505" y="1302" type="line"/>
      <point x="427" y="717" type="line"/>
      <point x="479" y="717" type="line"/>
      <point x="539" y="717"/>
      <point x="633" y="784"/>
      <point x="698" y="889"/>
      <point x="731" y="1020"/>
      <point x="731" y="1085" type="qcurve"/>
      <point x="731" y="1132"/>
      <point x="707" y="1212"/>
      <point x="661" y="1270"/>
      <point x="596" y="1302"/>
      <point x="557" y="1302" type="qcurve"/>
    </contour>
    <contour>
      <point x="288" y="1434" type="line"/>
      <point x="607" y="1434" type="line"/>
      <point x="706" y="1434"/>
      <point x="843" y="1379"/>
      <point x="928" y="1285"/>
      <point x="965" y="1159"/>
      <point x="965" y="1089" type="qcurve"/>
      <point x="965" y="987"/>
      <point x="906" y="804"/>
      <point x="788" y="666"/>
      <point x="611" y="585"/>
      <point x="494" y="585" type="qcurve"/>
      <point x="410" y="585" type="line"/>
      <point x="333" y="0" type="line"/>
      <point x="99" y="0" type="line"/>
    </contour>
  </outline>
</glyph>
<glyph name="Q" format="2">
  <advance width="1200"/>
  <unicode hex="0051"/>
  <outline>
    <contour>
      <point x="792" y="1464" type="qcurve"/>
      <point x="885" y="1464"/>
      <point x="1054" y="1380"/>
      <point x="1182" y="1223"/>
      <point x="1258" y="998"/>
      <point x="1258" y="856" type="qcurve"/>
      <point x="1258" y="712"/>
      <point x="1190" y="457"/>
      <point x="1072" y="245"/>
      <point x="910" y="80"/>
      <point x="815" y="28" type="qcurve"/>
      <point x="884" y="16"/>
      <point x="988" y="-50"/>
      <point x="1061" y="-135"/>
      <point x="1106" y="-230"/>
      <point x="1118" y="-271" type="qcurve"/>
      <point x="977" y="-459" type="line"/>
      <point x="961" y="-392"/>
      <point x="928" y="-276"/>
      <point x="886" y="-181"/>
      <point x="831" y="-107"/>
      <point x="757" y="-56"/>
      <point x="659" y="-30"/>
      <point x="594" y="-30" type="qcurve"/>
      <point x="500" y="-30"/>
      <point x="332" y="53"/>
      <point x="203" y="210"/>
      <point x="128" y="435"/>
      <point x="128" y="577" type="qcurve"/>
      <point x="128" y="695"/>
      <point x="179" y="918"/>
      <point x="268" y="1115"/>
      <point x="392" y="1279"/>
      <point x="539" y="1398"/>
      <point x="705" y="1464"/>
    </contour>
    <contour>
      <point x="362" y="536" type="qcurve"/>
      <point x="362" y="433"/>
      <point x="400" y="275"/>
      <point x="466" y="167"/>
      <point x="558" y="112"/>
      <point x="613" y="112" type="qcurve"/>
      <point x="668" y="112"/>
      <point x="771" y="171"/>
      <point x="863" y="276"/>
      <point x="938" y="422"/>
      <point x="993" y="597"/>
      <point x="1024" y="794"/>
      <point x="1024" y="898" type="qcurve"/>
      <point x="1024" y="1001"/>
      <point x="986" y="1159"/>
      <point x="920" y="1267"/>
      <point x="828" y="1322"/>
      <point x="773" y="1322" type="qcurve"/>
      <point x="719" y="1322"/>
      <point x="615" y="1263"/>
      <point x="524" y="1158"/>
      <point x="447" y="1012"/>
      <point x="392" y="837"/>
      <point x="362" y="640"/>
    </contour>
  </outline>
</glyph>
<glyph name="R" format="2">
  <advance width="936"/>
  <unicode hex="0052"/>
  <outline>
    <contour>
      <point x="505" y="1302" type="line"/>
      <point x="428" y="717" type="line"/>
      <point x="521" y="717" type="line"/>
      <point x="571" y="717"/>
      <point x="661" y="780"/>
      <point x="729" y="880"/>
      <point x="770" y="1007"/>
      <point x="770" y="1072" type="qcurve"/>
      <point x="770" y="1122"/>
      <point x="740" y="1207"/>
      <point x="693" y="1268"/>
      <point x="632" y="1302"/>
      <point x="600" y="1302" type="qcurve"/>
    </contour>
    <contour>
      <point x="288" y="1434" type="line"/>
      <point x="633" y="1434" type="line"/>
      <point x="725" y="1434"/>
      <point x="865" y="1389"/>
      <point x="957" y="1303"/>
      <point x="1004" y="1180"/>
      <point x="1004" y="1101" type="qcurve"/>
      <point x="1004" y="1008"/>
      <point x="950" y="848"/>
      <point x="862" y="720"/>
      <point x="746" y="629"/>
      <point x="684" y="606" type="qcurve"/>
      <point x="923" y="0" type="line"/>
      <point x="677" y="-30" type="line"/>
      <point x="455" y="585" type="line"/>
      <point x="410" y="585" type="line"/>
      <point x="333" y="0" type="line"/>
      <point x="99" y="0" type="line"/>
    </contour>
  </outline>
</glyph>
<glyph name="backslash" format="2">
  <advance width="432"/>
  <unicode hex="005C"/>
  <outline>
    <contour>
      <point x="290" y="1586" type="line"/>
      <point x="482" y="-134" type="line"/>
      <point x="323" y="-152" type="line"/>
      <point x="132" y="1569" type="line"/>
    </contour>
  </outline>
</glyph>
<glyph name="bracketright" format="2">
  <advance width="552"/>
  <unicode hex="005D"/>
  <outline>
    <contour>
      <point x="339" y="-278" type="line"/>
      <point x="11" y="-278" type="line"/>
      <point x="26" y="-156" type="line"/>
      <point x="167" y="-156" type="line"/>
      <point x="365" y="1342" type="line"/>
      <point x="224" y="1342" type="line"/>
      <point x="240" y="1464" type="line"/>
      <point x="570" y="1464" type="line"/>
    </contour>
  </outline>
</glyph>
<glyph name="asciicircum" format="2">
  <advance width="936"/>
  <unicode hex="005E"/>
  <outline>
    <contour>
      <point x="596" y="1434" type="line"/>
      <point x="718" y="1434" type="line"/>
      <point x="954" y="648" type="line"/>
      <point x="818" y="553" type="line"/>
      <point x="624" y="1181" type="line"/>
      <point x="264" y="553" type="line"/>
      <point x="153" y="648" type="line"/>
    </contour>
  </outline>
</glyph>
<glyph name="grave" format="2">
  <advance width="576"/>
  <unicode hex="0060"/>
  <outline>
    <contour>
      <point x="514" y="1138" type="line"/>
      <point x="239" y="1426" type="line"/>
      <point x="239" y="1470" type="line"/>
      <point x="328" y="1588" type="line"/>
      <point x="361" y="1588" type="line"/>
      <point x="572" y="1219" type="line"/>
    </contour>
  </outline>
</glyph>
<glyph name="e" format="2">
  <advance width="768"/>
  <unicode hex="0065"/>
  <outline>
    <contour>
      <point x="453" y="82" type="qcurve"/>
      <point x="483" y="82"/>
      <point x="536" y="109"/>
      <point x="581" y="152"/>
      <point x="620" y="207"/>
      <point x="637" y="235" type="qcurve"/>
      <point x="722" y="122" type="line"/>
      <point x="695" y="90"/>
      <point x="630" y="34"/>
      <point x="553" y="-7"/>
      <point x="465" y="-30"/>
      <point x="416" y="-30" type="qcurve"/>
      <point x="341" y="-30"/>
      <point x="226" y="28"/>
      <point x="147" y="134"/>
      <point x="106" y="282"/>
      <point x="106" y="372" type="qcurve"/>
      <point x="106" y="458"/>
      <point x="137" y="619"/>
      <point x="195" y="759"/>
      <point x="277" y="875"/>
      <point x="378" y="958"/>
      <point x="496" y="1004"/>
      <point x="560" y="1004" type="qcurve"/>
      <point x="606" y="1004"/>
      <point x="695" y="964"/>
      <point x="765" y="875"/>
      <point x="808" y="734"/>
      <point x="808" y="632" type="qcurve"/>
      <point x="808" y="599"/>
      <point x="803" y="527"/>
      <point x="797" y="487" type="qcurve"/>
      <point x="328" y="487" type="line"/>
      <point x="322" y="445"/>
      <point x="317" y="373"/>
      <point x="317" y="341" type="qcurve"/>
      <point x="317" y="268"/>
      <point x="340" y="169"/>
      <point x="378" y="108"/>
      <point x="427" y="82"/>
    </contour>
    <contour>
      <point x="538" y="892" type="qcurve"/>
      <point x="507" y="892"/>
      <point x="449" y="855"/>
      <point x="397" y="781"/>
      <point x="356" y="671"/>
      <point x="343" y="599" type="qcurve"/>
      <point x="631" y="599" type="line"/>
      <point x="635" y="630"/>
      <point x="639" y="684"/>
      <point x="639" y="708" type="qcurve"/>
      <point x="639" y="805"/>
      <point x="581" y="892"/>
    </contour>
  </outline>
</glyph>
<glyph name="f" format="2">
  <advance width="552"/>
  <unicode hex="0066"/>
  <outline>
    <contour>
      <point x="172" y="1004" type="line"/>
      <point x="274" y="1004" type="line"/>
      <point x="288" y="1139"/>
      <point x="370" y="1326"/>
      <point x="491" y="1442"/>
      <point x="646" y="1494"/>
      <point x="733" y="1494" type="qcurve"/>
      <point x="718" y="1382" type="line"/>
      <point x="677" y="1382"/>
      <point x="605" y="1356"/>
      <point x="549" y="1293"/>
      <point x="509" y="1189"/>
      <point x="499" y="1111" type="qcurve"/>
      <point x="485" y="1004" type="line"/>
      <point x="617" y="1004" type="line"/>
      <point x="598" y="865" type="line"/>
      <point x="467" y="873" type="line"/>
      <point x="353" y="0" type="line"/>
      <point x="141" y="0" type="line"/>
      <point x="258" y="886" type="line"/>
      <point x="157" y="892" type="line"/>
    </contour>
  </outline>
</glyph>
<glyph name="i" format="2">
  <advance width="432"/>
  <unicode hex="0069"/>
  <outline>
    <contour>
      <point x="239" y="974" type="line"/>
      <point x="410" y="1004" type="line"/>
      <point x="455" y="1004" type="line"/>
      <point x="322" y="0" type="line"/>
      <point x="110" y="0" type="line"/>
    </contour>
    <contour>
      <point x="276" y="1288" type="qcurve"/>
      <point x="276" y="1318"/>
      <point x="293" y="1372"/>
      <point x="323" y="1411"/>
      <point x="363" y="1434"/>
      <point x="386" y="1434" type="qcurve"/>
      <point x="408" y="1434"/>
      <point x="449" y="1411"/>
      <point x="478" y="1372"/>
      <point x="495" y="1318"/>
      <point x="495" y="1288" type="qcurve"/>
      <point x="495" y="1258"/>
      <point x="478" y="1204"/>
      <point x="449" y="1165"/>
      <point x="408" y="1142"/>
      <point x="386" y="1142" type="qcurve"/>
      <point x="363" y="1142"/>
      <point x="323" y="1165"/>
      <point x="293" y="1204"/>
      <point x="276" y="1258"/>
    </contour>
  </outline>
</glyph>
<glyph name="k" format="2">
  <advance width="768"/>
  <unicode hex="006B"/>
  <outline>
    <contour>
      <point x="768" y="0" type="line"/>
      <point x="546" y="-30" type="line"/>
      <point x="386" y="449" type="line"/>
      <point x="338" y="396" type="line"/>
      <point x="287" y="0" type="line"/>
      <point x="75" y="0" type="line"/>
      <point x="269" y="1464" type="line"/>
      <point x="439" y="1494" type="line"/>
      <point x="484" y="1494" type="line"/>
      <point x="362" y="571" type="line"/>
      <point x="744" y="1004" type="line"/>
      <point x="849" y="973" type="line"/>
      <point x="554" y="638" type="line"/>
    </contour>
  </outline>
</glyph>
<glyph name="r" format="2">
  <advance width="552"/>
  <unicode hex="0072"/>
  <outline>
    <contour>
      <point x="415" y="974" type="line"/>
      <point x="395" y="826" type="line"/>
      <point x="411" y="859"/>
      <point x="452" y="923"/>
      <point x="497" y="973"/>
      <point x="545" y="1004"/>
      <point x="570" y="1004" type="qcurve"/>
      <point x="608" y="1004"/>
      <point x="660" y="964"/>
      <point x="672" y="944" type="qcurve"/>
      <point x="645" y="740" type="line"/>
      <point x="608" y="782"/>
      <point x="533" y="782" type="qcurve"/>
      <point x="495" y="782"/>
      <point x="436" y="745"/>
      <point x="394" y="689"/>
      <point x="368" y="623"/>
      <point x="365" y="595" type="qcurve"/>
      <point x="285" y="0" type="line"/>
      <point x="75" y="0" type="line"/>
      <point x="200" y="944" type="line"/>
      <point x="370" y="974" type="line"/>
    </contour>
  </outline>
</glyph>
<glyph name="s" format="2">
  <advance width="648"/>
  <unicode hex="0073"/>
  <outline>
    <contour>
      <point x="125" y="234" type="line"/>
      <point x="139" y="203"/>
      <point x="177" y="148"/>
      <point x="223" y="106"/>
      <point x="274" y="82"/>
      <point x="301" y="82" type="qcurve"/>
      <point x="330" y="82"/>
      <point x="383" y="106"/>
      <point x="424" y="151"/>
      <point x="447" y="215"/>
      <point x="447" y="254" type="qcurve"/>
      <point x="447" y="351"/>
      <point x="329" y="413" type="qcurve"/>
      <point x="299" y="429"/>
      <point x="240" y="481"/>
      <point x="195" y="552"/>
      <point x="168" y="640"/>
      <point x="168" y="692" type="qcurve"/>
      <point x="168" y="768"/>
      <point x="218" y="884"/>
      <point x="298" y="963"/>
      <point x="399" y="1004"/>
      <point x="450" y="1004" type="qcurve"/>
      <point x="495" y="1004"/>
      <point x="568" y="983"/>
      <point x="631" y="944"/>
      <point x="686" y="888"/>
      <point x="714" y="852" type="qcurve"/>
      <point x="630" y="740" type="line"/>
      <point x="619" y="772"/>
      <point x="585" y="827"/>
      <point x="543" y="868"/>
      <point x="494" y="892"/>
      <point x="467" y="892" type="qcurve"/>
      <point x="445" y="892"/>
      <point x="404" y="872"/>
      <point x="374" y="833"/>
      <point x="357" y="778"/>
      <point x="357" y="744" type="qcurve"/>
      <point x="357" y="710"/>
      <point x="374" y="662"/>
      <point x="400" y="628"/>
      <point x="432" y="606"/>
      <point x="448" y="598" type="qcurve"/>
      <point x="548" y="547"/>
      <point x="644" y="403"/>
      <point x="644" y="309" type="qcurve"/>
      <point x="644" y="222"/>
      <point x="585" y="94"/>
      <point x="493" y="10"/>
      <point x="377" y="-30"/>
      <point x="321" y="-30" type="qcurve"/>
      <point x="273" y="-30"/>
      <point x="189" y="-3"/>
      <point x="119" y="40"/>
      <point x="62" y="95"/>
      <point x="41" y="122" type="qcurve"/>
    </contour>
  </outline>
</glyph>
<glyph name="x" format="2">
  <advance width="768"/>
  <unicode hex="0078"/>
  <outline>
    <contour>
      <point x="398" y="1004" type="line"/>
      <point x="525" y="683" type="line"/>
      <point x="737" y="1004" type="line"/>
      <point x="837" y="974" type="line"/>
      <point x="571" y="569" type="line"/>
      <point x="793" y="0" type="line"/>
      <point x="572" y="-30" type="line"/>
      <point x="425" y="346" type="line"/>
      <point x="177" y="-30" type="line"/>
      <point x="77" y="0" type="line"/>
      <point x="379" y="460" type="line"/>
      <point x="178" y="974" type="line"/>
    </contour>
  </outline>
</glyph>
<glyph name="braceleft" format="2">
  <advance width="552"/>
  <unicode hex="007B"/>
  <outline>
    <contour>
      <point x="680" y="1342" type="line"/>
      <point x="636" y="1342"/>
      <point x="584" y="1321"/>
      <point x="553" y="1276"/>
      <point x="538" y="1204"/>
      <point x="531" y="1153" type="qcurve"/>
      <point x="500" y="917" type="line"/>
      <point x="492" y="861"/>
      <point x="462" y="766"/>
      <point x="414" y="687"/>
      <point x="347" y="620"/>
      <point x="302" y="593" type="qcurve"/>
      <point x="363" y="547"/>
      <point x="420" y="429"/>
      <point x="420" y="349" type="qcurve"/>
      <point x="420" y="330"/>
      <point x="417" y="290"/>
      <point x="414" y="269" type="qcurve"/>
      <point x="381" y="21" type="line"/>
      <point x="377" y="-6"/>
      <point x="373" y="-51"/>
      <point x="373" y="-69" type="qcurve"/>
      <point x="373" y="-93"/>
      <point x="383" y="-126"/>
      <point x="408" y="-147"/>
      <point x="450" y="-156"/>
      <point x="482" y="-156" type="qcurve"/>
      <point x="466" y="-278" type="line"/>
      <point x="396" y="-278"/>
      <point x="291" y="-256"/>
      <point x="222" y="-204"/>
      <point x="188" y="-119"/>
      <point x="188" y="-56" type="qcurve"/>
      <point x="188" y="-15"/>
      <point x="194" y="36" type="qcurve"/>
      <point x="220" y="230" type="line"/>
      <point x="226" y="274"/>
      <point x="233" y="351"/>
      <point x="233" y="384" type="qcurve"/>
      <point x="233" y="418"/>
      <point x="223" y="473"/>
      <point x="196" y="512"/>
      <point x="152" y="532"/>
      <point x="118" y="532" type="qcurve"/>
      <point x="134" y="654" type="line"/>
      <point x="185" y="654"/>
      <point x="247" y="698"/>
      <point x="285" y="778"/>
      <point x="307" y="889"/>
      <point x="316" y="956" type="qcurve"/>
      <point x="341" y="1140" type="line"/>
      <point x="353" y="1233"/>
      <point x="406" y="1358"/>
      <point x="492" y="1433"/>
      <point x="614" y="1464"/>
      <point x="696" y="1464" type="qcurve"/>
    </contour>
  </outline>
</glyph>
<glyph name="bar" format="2">
  <advance width="552"/>
  <unicode hex="007C"/>
  <outline>
    <contour>
      <point x="602" y="1682" type="line"/>
      <point x="342" y="-278" type="line"/>
      <point x="153" y="-278" type="line"/>
      <point x="413" y="1682" type="line"/>
    </contour>
  </outline>
</glyph>
<glyph name="asciitilde" format="2">
  <advance width="936"/>
  <unicode hex="007E"/>
  <outline>
    <contour>
      <point x="110" y="386" type="line"/>
      <point x="110" y="427"/>
      <point x="143" y="526"/>
      <point x="205" y="611"/>
      <point x="296" y="669"/>
      <point x="355" y="669" type="qcurve"/>
      <point x="398" y="669"/>
      <point x="467" y="642"/>
      <point x="526" y="602"/>
      <point x="575" y="554"/>
      <point x="625" y="514"/>
      <point x="677" y="487"/>
      <point x="708" y="487" type="qcurve"/>
      <point x="741" y="487"/>
      <point x="793" y="518"/>
      <point x="828" y="569"/>
      <point x="847" y="634"/>
      <point x="847" y="669" type="qcurve"/>
      <point x="893" y="669" type="line"/>
      <point x="953" y="589" type="line"/>
      <point x="953" y="548"/>
      <point x="921" y="449"/>
      <point x="858" y="363"/>
      <point x="767" y="305"/>
      <point x="707" y="305" type="qcurve"/>
      <point x="661" y="305"/>
      <point x="590" y="332"/>
      <point x="534" y="372"/>
      <point x="487" y="420"/>
      <point x="440" y="460"/>
      <point x="387" y="487"/>
      <point x="354" y="487" type="qcurve"/>
      <point x="321" y="487"/>
      <point x="270" y="456"/>
      <point x="236" y="405"/>
      <point x="217" y="340"/>
      <point x="217" y="305" type="qcurve"/>
      <point x="170" y="305" type="line"/>
    </contour>
  </outline>
</glyph>
<glyph name="cent" format="2">
  <advance width="840"/>
  <unicode hex="00A2"/>
  <outline>
    <contour>
      <point x="778" y="1226" type="line"/>
      <point x="862" y="1189" type="line"/>
      <point x="774" y="955" type="line"/>
      <point x="803" y="935"/>
      <point x="842" y="882"/>
      <point x="860" y="852" type="qcurve"/>
      <point x="775" y="740" type="line"/>
      <point x="766" y="760"/>
      <point x="741" y="808"/>
      <point x="725" y="829" type="qcurve"/>
      <point x="451" y="98" type="line"/>
      <point x="473" y="82"/>
      <point x="503" y="82" type="qcurve"/>
      <point x="530" y="82"/>
      <point x="580" y="109"/>
      <point x="624" y="152"/>
      <point x="662" y="206"/>
      <point x="679" y="234" type="qcurve"/>
      <point x="764" y="122" type="line"/>
      <point x="737" y="90"/>
      <point x="678" y="34"/>
      <point x="607" y="-7"/>
      <point x="520" y="-30"/>
      <point x="465" y="-30" type="qcurve"/>
      <point x="434" y="-30"/>
      <point x="404" y="-24" type="qcurve"/>
      <point x="326" y="-234" type="line"/>
      <point x="242" y="-197" type="line"/>
      <point x="318" y="6" type="line"/>
      <point x="236" y="53"/>
      <point x="148" y="246"/>
      <point x="148" y="377" type="qcurve"/>
      <point x="148" y="462"/>
      <point x="179" y="622"/>
      <point x="238" y="761"/>
      <point x="320" y="876"/>
      <point x="422" y="959"/>
      <point x="539" y="1004"/>
      <point x="602" y="1004" type="qcurve"/>
      <point x="627" y="1004"/>
      <point x="671" y="999"/>
      <point x="690" y="994" type="qcurve"/>
    </contour>
    <contour>
      <point x="650" y="886" type="line"/>
      <point x="630" y="892"/>
      <point x="610" y="892" type="qcurve"/>
      <point x="578" y="892"/>
      <point x="516" y="849"/>
      <point x="462" y="774"/>
      <point x="417" y="671"/>
      <point x="384" y="553"/>
      <point x="366" y="423"/>
      <point x="366" y="358" type="qcurve"/>
      <point x="366" y="309"/>
      <point x="378" y="226"/>
      <point x="389" y="193" type="qcurve"/>
    </contour>
  </outline>
</glyph>
<glyph name="sterling" format="2">
  <advance width="840"/>
  <unicode hex="00A3"/>
  <outline>
    <contour>
      <point x="179" y="803" type="line"/>
      <point x="330" y="803" type="line"/>
      <point x="334" y="833"/>
      <point x="336" y="881"/>
      <point x="336" y="901" type="qcurve"/>
      <point x="336" y="941"/>
      <point x="330" y="1002"/>
      <point x="330" y="1041" type="qcurve"/>
      <point x="330" y="1138"/>
      <point x="389" y="1295"/>
      <point x="488" y="1405"/>
      <point x="614" y="1464"/>
      <point x="681" y="1464" type="qcurve"/>
      <point x="773" y="1464"/>
      <point x="898" y="1383"/>
      <point x="941" y="1311" type="qcurve"/>
      <point x="858" y="1201" type="line"/>
      <point x="850" y="1225"/>
      <point x="827" y="1278"/>
      <point x="791" y="1323"/>
      <point x="741" y="1352"/>
      <point x="706" y="1352" type="qcurve"/>
      <point x="675" y="1352"/>
      <point x="619" y="1320"/>
      <point x="575" y="1261"/>
      <point x="549" y="1176"/>
      <point x="549" y="1122" type="qcurve"/>
      <point x="549" y="1090"/>
      <point x="543" y="1002"/>
      <point x="536" y="912"/>
      <point x="529" y="830"/>
      <point x="527" y="803" type="qcurve"/>
      <point x="736" y="803" type="line"/>
      <point x="719" y="678" type="line"/>
      <point x="513" y="693" type="line"/>
      <point x="501" y="602"/>
      <point x="443" y="432"/>
      <point x="368" y="283"/>
      <point x="287" y="158"/>
      <point x="252" y="112" type="qcurve"/>
      <point x="290" y="108"/>
      <point x="372" y="97"/>
      <point x="449" y="88"/>
      <point x="514" y="82"/>
      <point x="536" y="82" type="qcurve"/>
      <point x="565" y="82"/>
      <point x="612" y="110"/>
      <point x="652" y="153"/>
      <point x="685" y="207"/>
      <point x="699" y="234" type="qcurve"/>
      <point x="784" y="122" type="line"/>
      <point x="769" y="103"/>
      <point x="724" y="51"/>
      <point x="659" y="3"/>
      <point x="569" y="-30"/>
      <point x="510" y="-30" type="qcurve"/>
      <point x="450" y="-30"/>
      <point x="347" y="-21"/>
      <point x="246" y="-9"/>
      <point x="137" y="0"/>
      <point x="71" y="0" type="qcurve"/>
      <point x="86" y="112" type="line"/>
      <point x="127" y="158"/>
      <point x="198" y="261"/>
      <point x="259" y="399"/>
      <point x="306" y="581"/>
      <point x="323" y="706" type="qcurve"/>
      <point x="167" y="718" type="line"/>
    </contour>
  </outline>
</glyph>
<glyph name="currency" format="2">
  <advance width="768"/>
  <unicode hex="00A4"/>
  <outline>
    <contour>
      <point x="215" y="1189" type="line"/>
      <point x="308" y="1063" type="line"/>
      <point x="388" y="1136"/>
      <point x="480" y="1136" type="qcurve"/>
      <point x="572" y="1136"/>
      <point x="653" y="1059" type="qcurve"/>
      <point x="752" y="1189" type="line"/>
      <point x="824" y="1093" type="line"/>
      <point x="725" y="963" type="line"/>
      <point x="752" y="911"/>
      <point x="779" y="796"/>
      <point x="779" y="738" type="qcurve"/>
      <point x="779" y="678"/>
      <point x="751" y="562"/>
      <point x="724" y="511" type="qcurve"/>
      <point x="824" y="378" type="line"/>
      <point x="752" y="282" type="line"/>
      <point x="653" y="413" type="line"/>
      <point x="573" y="337"/>
      <point x="480" y="337" type="qcurve"/>
      <point x="389" y="337"/>
      <point x="310" y="409" type="qcurve"/>
      <point x="215" y="282" type="line"/>
      <point x="143" y="378" type="line"/>
      <point x="238" y="503" type="line"/>
      <point x="209" y="555"/>
      <point x="182" y="673"/>
      <point x="182" y="736" type="qcurve"/>
      <point x="182" y="862"/>
      <point x="238" y="969" type="qcurve"/>
      <point x="143" y="1093" type="line"/>
    </contour>
    <contour>
      <point x="480" y="954" type="qcurve"/>
      <point x="446" y="954"/>
      <point x="388" y="918"/>
      <point x="344" y="858"/>
      <point x="318" y="779"/>
      <point x="318" y="736" type="qcurve"/>
      <point x="318" y="693"/>
      <point x="344" y="614"/>
      <point x="388" y="554"/>
      <point x="446" y="519"/>
      <point x="480" y="519" type="qcurve"/>
      <point x="512" y="519"/>
      <point x="571" y="553"/>
      <point x="616" y="612"/>
      <point x="643" y="691"/>
      <point x="643" y="736" type="qcurve"/>
      <point x="643" y="779"/>
      <point x="616" y="858"/>
      <point x="571" y="918"/>
      <point x="512" y="954"/>
    </contour>
  </outline>
</glyph>
<glyph name="yen" format="2">
  <advance width="768"/>
  <unicode hex="00A5"/>
  <outline>
    <contour>
      <point x="416" y="1464" type="line"/>
      <point x="518" y="732" type="line"/>
      <point x="815" y="1464" type="line"/>
      <point x="931" y="1434" type="line"/>
      <point x="745" y="974" type="line"/>
      <point x="870" y="974" type="line"/>
      <point x="854" y="852" type="line"/>
      <point x="696" y="852" type="line"/>
      <point x="620" y="665" type="line"/>
      <point x="830" y="665" type="line"/>
      <point x="814" y="543" type="line"/>
      <point x="572" y="543" type="line"/>
      <point x="501" y="0" type="line"/>
      <point x="267" y="0" type="line"/>
      <point x="338" y="543" type="line"/>
      <point x="98" y="543" type="line"/>
      <point x="113" y="665" type="line"/>
      <point x="324" y="665" type="line"/>
      <point x="298" y="852" type="line"/>
      <point x="139" y="852" type="line"/>
      <point x="155" y="974" type="line"/>
      <point x="280" y="974" type="line"/>
      <point x="215" y="1434" type="line"/>
    </contour>
  </outline>
</glyph>
<glyph name="section" format="2">
  <advance width="768"/>
  <unicode hex="00A7"/>
  <outline>
    <contour>
      <point x="372" y="510" type="qcurve"/>
      <point x="372" y="468"/>
      <point x="395" y="395"/>
      <point x="431" y="332"/>
      <point x="475" y="277"/>
      <point x="497" y="253" type="qcurve"/>
      <point x="533" y="296"/>
      <point x="572" y="411"/>
      <point x="572" y="468" type="qcurve"/>
      <point x="572" y="511"/>
      <point x="550" y="584"/>
      <point x="514" y="646"/>
      <point x="470" y="698"/>
      <point x="448" y="721" type="qcurve"/>
      <point x="414" y="680"/>
      <point x="372" y="568"/>
    </contour>
    <contour>
      <point x="330" y="-490" type="qcurve"/>
      <point x="284" y="-490"/>
      <point x="208" y="-464"/>
      <point x="144" y="-422"/>
      <point x="91" y="-367"/>
      <point x="69" y="-338" type="qcurve"/>
      <point x="153" y="-226" type="line"/>
      <point x="164" y="-259"/>
      <point x="199" y="-314"/>
      <point x="239" y="-355"/>
      <point x="284" y="-378"/>
      <point x="305" y="-378" type="qcurve"/>
      <point x="338" y="-378"/>
      <point x="392" y="-341"/>
      <point x="428" y="-281"/>
      <point x="449" y="-207"/>
      <point x="449" y="-169" type="qcurve"/>
      <point x="449" y="-101"/>
      <point x="405" y="0"/>
      <point x="339" y="86"/>
      <point x="263" y="165"/>
      <point x="197" y="257"/>
      <point x="153" y="372"/>
      <point x="153" y="449" type="qcurve"/>
      <point x="153" y="518"/>
      <point x="187" y="634"/>
      <point x="244" y="731"/>
      <point x="317" y="810"/>
      <point x="358" y="843" type="qcurve"/>
      <point x="330" y="891"/>
      <point x="299" y="1000"/>
      <point x="299" y="1065" type="qcurve"/>
      <point x="299" y="1150"/>
      <point x="353" y="1296"/>
      <point x="440" y="1403"/>
      <point x="554" y="1464"/>
      <point x="614" y="1464" type="qcurve"/>
      <point x="666" y="1464"/>
      <point x="741" y="1440"/>
      <point x="800" y="1398"/>
      <point x="850" y="1343"/>
      <point x="876" y="1312" type="qcurve"/>
      <point x="792" y="1200" type="line"/>
      <point x="784" y="1225"/>
      <point x="753" y="1279"/>
      <point x="712" y="1323"/>
      <point x="663" y="1352"/>
      <point x="636" y="1352" type="qcurve"/>
      <point x="602" y="1352"/>
      <point x="551" y="1314"/>
      <point x="515" y="1252"/>
      <point x="496" y="1176"/>
      <point x="496" y="1139" type="qcurve"/>
      <point x="496" y="1071"/>
      <point x="539" y="971"/>
      <point x="605" y="886"/>
      <point x="682" y="807"/>
      <point x="748" y="716"/>
      <point x="791" y="602"/>
      <point x="791" y="525" type="qcurve"/>
      <point x="791" y="456"/>
      <point x="758" y="340"/>
      <point x="701" y="242"/>
      <point x="626" y="162"/>
      <point x="586" y="129" type="qcurve"/>
      <point x="614" y="82"/>
      <point x="645" y="-28"/>
      <point x="645" y="-94" type="qcurve"/>
      <point x="645" y="-180"/>
      <point x="592" y="-325"/>
      <point x="504" y="-431"/>
      <point x="391" y="-490"/>
    </contour>
  </outline>
</glyph>
<glyph name="dieresis" format="2">
  <advance width="576"/>
  <unicode hex="00A8"/>
  <outline>
    <contour>
      <point x="188" y="1302" type="qcurve"/>
      <point x="188" y="1330"/>
      <point x="203" y="1378"/>
      <point x="230" y="1414"/>
      <point x="266" y="1434"/>
      <point x="286" y="1434" type="qcurve"/>
      <point x="307" y="1434"/>
      <point x="343" y="1414"/>
      <point x="370" y="1378"/>
      <point x="385" y="1330"/>
      <point x="385" y="1302" type="qcurve"/>
      <point x="385" y="1275"/>
      <point x="370" y="1227"/>
      <point x="343" y="1192"/>
      <point x="307" y="1172"/>
      <point x="286" y="1172" type="qcurve"/>
      <point x="266" y="1172"/>
      <point x="230" y="1192"/>
      <point x="203" y="1227"/>
      <point x="188" y="1275"/>
    </contour>
    <contour>
      <point x="535" y="1302" type="qcurve"/>
      <point x="535" y="1330"/>
      <point x="550" y="1378"/>
      <point x="576" y="1414"/>
      <point x="612" y="1434"/>
      <point x="632" y="1434" type="qcurve"/>
      <point x="653" y="1434"/>
      <point x="689" y="1414"/>
      <point x="716" y="1378"/>
      <point x="731" y="1330"/>
      <point x="731" y="1302" type="qcurve"/>
      <point x="731" y="1275"/>
      <point x="716" y="1227"/>
      <point x="689" y="1192"/>
      <point x="653" y="1172"/>
      <point x="632" y="1172" type="qcurve"/>
      <point x="612" y="1172"/>
      <point x="576" y="1192"/>
      <point x="550" y="1227"/>
      <point x="535" y="1275"/>
    </contour>
  </outline>
</glyph>
<glyph name="ordfeminine" format="2">
  <advance width="648"/>
  <unicode hex="00AA"/>
  <outline>
    <contour>
      <point x="545" y="1059" type="line"/>
      <point x="504" y="1054"/>
      <point x="418" y="1025"/>
      <point x="347" y="970"/>
      <point x="302" y="886"/>
      <point x="302" y="827" type="qcurve"/>
      <point x="302" y="797"/>
      <point x="316" y="762"/>
      <point x="338" y="744"/>
      <point x="366" y="739"/>
      <point x="379" y="739" type="qcurve"/>
      <point x="395" y="739"/>
      <point x="434" y="755"/>
      <point x="470" y="781"/>
      <point x="503" y="814"/>
      <point x="515" y="831" type="qcurve"/>
    </contour>
    <contour>
      <point x="204" y="1343" type="line"/>
      <point x="266" y="1400"/>
      <point x="407" y="1464"/>
      <point x="477" y="1464" type="qcurve"/>
      <point x="522" y="1464"/>
      <point x="611" y="1430"/>
      <point x="681" y="1363"/>
      <point x="725" y="1265"/>
      <point x="725" y="1202" type="qcurve"/>
      <point x="725" y="1188"/>
      <point x="722" y="1162"/>
      <point x="721" y="1148" type="qcurve"/>
      <point x="674" y="793" type="line"/>
      <point x="674" y="789"/>
      <point x="673" y="782"/>
      <point x="673" y="778" type="qcurve"/>
      <point x="673" y="739"/>
      <point x="710" y="739" type="qcurve"/>
      <point x="696" y="637" type="line"/>
      <point x="647" y="637"/>
      <point x="584" y="651"/>
      <point x="545" y="675"/>
      <point x="526" y="708"/>
      <point x="519" y="727" type="qcurve"/>
      <point x="501" y="709"/>
      <point x="459" y="677"/>
      <point x="410" y="652"/>
      <point x="352" y="637"/>
      <point x="318" y="637" type="qcurve"/>
      <point x="278" y="637"/>
      <point x="214" y="661"/>
      <point x="168" y="707"/>
      <point x="143" y="774"/>
      <point x="143" y="818" type="qcurve"/>
      <point x="143" y="897"/>
      <point x="204" y="1015"/>
      <point x="314" y="1094"/>
      <point x="466" y="1136"/>
      <point x="555" y="1140" type="qcurve"/>
      <point x="563" y="1195" type="line"/>
      <point x="566" y="1218"/>
      <point x="566" y="1243" type="qcurve"/>
      <point x="566" y="1273"/>
      <point x="548" y="1318"/>
      <point x="518" y="1347"/>
      <point x="477" y="1362"/>
      <point x="453" y="1362" type="qcurve"/>
      <point x="437" y="1362"/>
      <point x="395" y="1352"/>
      <point x="347" y="1327"/>
      <point x="296" y="1285"/>
      <point x="272" y="1253" type="qcurve"/>
    </contour>
  </outline>
</glyph>
<glyph name="guillemotleft" format="2">
  <advance width="768"/>
  <unicode hex="00AB"/>
  <outline>
    <contour>
      <point x="398" y="906" type="line"/>
      <point x="555" y="868" type="line"/>
      <point x="308" y="487" type="line"/>
      <point x="454" y="106" type="line"/>
      <point x="286" y="68" type="line"/>
      <point x="95" y="487" type="line"/>
    </contour>
    <contour>
      <point x="695" y="906" type="line"/>
      <point x="851" y="868" type="line"/>
      <point x="605" y="487" type="line"/>
      <point x="750" y="106" type="line"/>
      <point x="582" y="68" type="line"/>
      <point x="392" y="487" type="line"/>
    </contour>
  </outline>
</glyph>
<glyph name="macron" format="2">
  <advance width="576"/>
  <unicode hex="00AF"/>
  <outline>
    <contour>
      <point x="233" y="1354" type="line"/>
      <point x="677" y="1354" type="line"/>
      <point x="653" y="1172" type="line"/>
      <point x="209" y="1172" type="line"/>
    </contour>
  </outline>
</glyph>
<glyph name="degree" format="2">
  <advance width="576"/>
  <unicode hex="00B0"/>
  <outline>
    <contour>
      <point x="348" y="1272" type="qcurve"/>
      <point x="348" y="1241"/>
      <point x="365" y="1188"/>
      <point x="393" y="1149"/>
      <point x="432" y="1126"/>
      <point x="455" y="1126" type="qcurve"/>
      <point x="477" y="1126"/>
      <point x="517" y="1149"/>
      <point x="547" y="1188"/>
      <point x="564" y="1241"/>
      <point x="564" y="1272" type="qcurve"/>
      <point x="564" y="1300"/>
      <point x="547" y="1352"/>
      <point x="517" y="1391"/>
      <point x="477" y="1414"/>
      <point x="455" y="1414" type="qcurve"/>
      <point x="432" y="1414"/>
      <point x="393" y="1391"/>
      <point x="365" y="1352"/>
      <point x="348" y="1300"/>
    </contour>
    <contour>
      <point x="234" y="1271" type="qcurve"/>
      <point x="234" y="1331"/>
      <point x="268" y="1439"/>
      <point x="328" y="1519"/>
      <point x="409" y="1566"/>
      <point x="455" y="1566" type="qcurve"/>
      <point x="501" y="1566"/>
      <point x="582" y="1519"/>
      <point x="643" y="1439"/>
      <point x="678" y="1331"/>
      <point x="678" y="1271" type="qcurve"/>
      <point x="678" y="1207"/>
      <point x="643" y="1098"/>
      <point x="582" y="1019"/>
      <point x="501" y="974"/>
      <point x="455" y="974" type="qcurve"/>
      <point x="409" y="974"/>
      <point x="328" y="1019"/>
      <point x="268" y="1098"/>
      <point x="234" y="1207"/>
    </contour>
  </outline>
</glyph>
<glyph name="plusminus" format="2">
  <advance width="864"/>
  <unicode hex="00B1"/>
  <outline>
    <contour>
      <point x="84" y="212" type="line"/>
      <point x="836" y="212" type="line"/>
      <point x="808" y="0" type="line"/>
      <point x="56" y="0" type="line"/>
    </contour>
    <contour>
      <point x="168" y="762" type="line"/>
      <point x="196" y="974" type="line"/>
      <point x="481" y="974" type="line"/>
      <point x="531" y="1355" type="line"/>
      <point x="690" y="1355" type="line"/>
      <point x="640" y="974" type="line"/>
      <point x="925" y="974" type="line"/>
      <point x="897" y="762" type="line"/>
      <point x="612" y="762" type="line"/>
      <point x="562" y="381" type="line"/>
      <point x="403" y="381" type="line"/>
      <point x="453" y="762" type="line"/>
    </contour>
  </outline>
</glyph>
<glyph name="twosuperior" format="2">
  <advance width="552"/>
  <unicode hex="00B2"/>
  <outline>
    <contour>
      <point x="239" y="1345" type="line"/>
      <point x="287" y="1402"/>
      <point x="395" y="1464"/>
      <point x="452" y="1464" type="qcurve"/>
      <point x="489" y="1464"/>
      <point x="557" y="1438"/>
      <point x="609" y="1386"/>
      <point x="641" y="1309"/>
      <point x="641" y="1257" type="qcurve"/>
      <point x="641" y="1186"/>
      <point x="596" y="1062"/>
      <point x="506" y="934"/>
      <point x="373" y="792"/>
      <point x="284" y="704" type="qcurve"/>
      <point x="567" y="725" type="line"/>
      <point x="548" y="586" type="line"/>
      <point x="138" y="586" type="line"/>
      <point x="143" y="621" type="line"/>
      <point x="221" y="724"/>
      <point x="335" y="881"/>
      <point x="415" y="1001"/>
      <point x="466" y="1090"/>
      <point x="494" y="1158"/>
      <point x="504" y="1212"/>
      <point x="504" y="1238" type="qcurve"/>
      <point x="504" y="1262"/>
      <point x="494" y="1303"/>
      <point x="475" y="1334"/>
      <point x="446" y="1352"/>
      <point x="428" y="1352" type="qcurve"/>
      <point x="355" y="1352"/>
      <point x="296" y="1269" type="qcurve"/>
    </contour>
  </outline>
</glyph>
<glyph name="threesuperior" format="2">
  <advance width="552"/>
  <unicode hex="00B3"/>
  <outline>
    <contour>
      <point x="455" y="1464" type="qcurve"/>
      <point x="491" y="1464"/>
      <point x="550" y="1438"/>
      <point x="593" y="1393"/>
      <point x="617" y="1331"/>
      <point x="617" y="1295" type="qcurve"/>
      <point x="617" y="1256"/>
      <point x="596" y="1193"/>
      <point x="562" y="1142"/>
      <point x="518" y="1103"/>
      <point x="494" y="1089" type="qcurve"/>
      <point x="511" y="1079"/>
      <point x="551" y="1046"/>
      <point x="585" y="998"/>
      <point x="608" y="933"/>
      <point x="608" y="891" type="qcurve"/>
      <point x="608" y="817"/>
      <point x="556" y="704"/>
      <point x="473" y="626"/>
      <point x="374" y="586"/>
      <point x="327" y="586" type="qcurve"/>
      <point x="292" y="586"/>
      <point x="237" y="607"/>
      <point x="194" y="642"/>
      <point x="163" y="684"/>
      <point x="151" y="705" type="qcurve"/>
      <point x="208" y="781" type="line"/>
      <point x="227" y="748"/>
      <point x="285" y="698"/>
      <point x="333" y="698" type="qcurve"/>
      <point x="365" y="698"/>
      <point x="417" y="730"/>
      <point x="453" y="784"/>
      <point x="472" y="855"/>
      <point x="472" y="894" type="qcurve"/>
      <point x="472" y="931"/>
      <point x="454" y="982"/>
      <point x="425" y="1014"/>
      <point x="390" y="1028"/>
      <point x="374" y="1028" type="qcurve"/>
      <point x="326" y="1028" type="line"/>
      <point x="341" y="1130" type="line"/>
      <point x="383" y="1130" type="line"/>
      <point x="407" y="1130"/>
      <point x="450" y="1148"/>
      <point x="483" y="1183"/>
      <point x="503" y="1233"/>
      <point x="503" y="1266" type="qcurve"/>
      <point x="503" y="1287"/>
      <point x="490" y="1319"/>
      <point x="470" y="1341"/>
      <point x="444" y="1352"/>
      <point x="431" y="1352" type="qcurve"/>
      <point x="399" y="1352"/>
      <point x="341" y="1309"/>
      <point x="317" y="1269" type="qcurve"/>
      <point x="260" y="1345" type="line"/>
      <point x="272" y="1364"/>
      <point x="312" y="1407"/>
      <point x="363" y="1441"/>
      <point x="422" y="1464"/>
    </contour>
  </outline>
</glyph>
<glyph name="guillemotright" format="2">
  <advance width="768"/>
  <unicode hex="00BB"/>
  <outline>
    <contour>
      <point x="608" y="906" type="line"/>
      <point x="800" y="487" type="line"/>
      <point x="499" y="68" type="line"/>
      <point x="341" y="106" type="line"/>
      <point x="587" y="487" type="line"/>
      <point x="443" y="868" type="line"/>
    </contour>
    <contour>
      <point x="312" y="906" type="line"/>
      <point x="504" y="487" type="line"/>
      <point x="203" y="68" type="line"/>
      <point x="45" y="106" type="line"/>
      <point x="291" y="487" type="line"/>
      <point x="146" y="868" type="line"/>
    </contour>
  </outline>
</glyph>
<glyph name="questiondown" format="2">
  <advance width="768"/>
  <unicode hex="00BF"/>
  <outline>
    <contour>
      <point x="701" y="122" type="line"/>
      <point x="668" y="80"/>
      <point x="603" y="22"/>
      <point x="535" y="-14"/>
      <point x="459" y="-30"/>
      <point x="414" y="-30" type="qcurve"/>
      <point x="361" y="-30"/>
      <point x="269" y="3"/>
      <point x="200" y="66"/>
      <point x="161" y="157"/>
      <point x="161" y="214" type="qcurve"/>
      <point x="161" y="290"/>
      <point x="197" y="401"/>
      <point x="256" y="485"/>
      <point x="332" y="547"/>
      <point x="410" y="601"/>
      <point x="485" y="652"/>
      <point x="544" y="714"/>
      <point x="580" y="792"/>
      <point x="580" y="846" type="qcurve"/>
      <point x="580" y="871"/>
      <point x="566" y="911"/>
      <point x="545" y="938"/>
      <point x="518" y="952"/>
      <point x="505" y="952" type="qcurve"/>
      <point x="473" y="952"/>
      <point x="430" y="919"/>
      <point x="410" y="893" type="qcurve"/>
      <point x="349" y="974" type="line"/>
      <point x="372" y="996"/>
      <point x="417" y="1030"/>
      <point x="466" y="1052"/>
      <point x="520" y="1064"/>
      <point x="552" y="1064" type="qcurve"/>
      <point x="587" y="1064"/>
      <point x="642" y="1028"/>
      <point x="680" y="969"/>
      <point x="701" y="892"/>
      <point x="701" y="852" type="qcurve"/>
      <point x="701" y="783"/>
      <point x="671" y="679"/>
      <point x="622" y="598"/>
      <point x="558" y="534"/>
      <point x="492" y="476"/>
      <point x="428" y="418"/>
      <point x="379" y="350"/>
      <point x="349" y="266"/>
      <point x="349" y="210" type="qcurve"/>
      <point x="349" y="180"/>
      <point x="365" y="132"/>
      <point x="392" y="99"/>
      <point x="429" y="82"/>
      <point x="450" y="82" type="qcurve"/>
      <point x="546" y="82"/>
      <point x="618" y="234" type="qcurve"/>
    </contour>
    <contour>
      <point x="496" y="1338" type="qcurve"/>
      <point x="496" y="1364"/>
      <point x="511" y="1410"/>
      <point x="536" y="1444"/>
      <point x="571" y="1464"/>
      <point x="590" y="1464" type="qcurve"/>
      <point x="610" y="1464"/>
      <point x="644" y="1444"/>
      <point x="670" y="1410"/>
      <point x="685" y="1364"/>
      <point x="685" y="1338" type="qcurve"/>
      <point x="685" y="1312"/>
      <point x="670" y="1266"/>
      <point x="644" y="1232"/>
      <point x="610" y="1212"/>
      <point x="590" y="1212" type="qcurve"/>
      <point x="571" y="1212"/>
      <point x="536" y="1232"/>
      <point x="511" y="1266"/>
      <point x="496" y="1312"/>
    </contour>
  </outline>
</glyph>
<glyph name="AE" format="2">
  <advance width="1320"/>
  <unicode hex="00C6"/>
  <outline>
    <contour>
      <point x="820" y="1434" type="line"/>
      <point x="1430" y="1434" type="line"/>
      <point x="1409" y="1272" type="line"/>
      <point x="1007" y="1312" type="line"/>
      <point x="947" y="859" type="line"/>
      <point x="1277" y="859" type="line"/>
      <point x="1258" y="717" type="line"/>
      <point x="929" y="717" type="line"/>
      <point x="850" y="122" type="line"/>
      <point x="1283" y="162" type="line"/>
      <point x="1263" y="0" type="line"/>
      <point x="600" y="0" type="line"/>
      <point x="645" y="345" type="line"/>
      <point x="341" y="345" type="line"/>
      <point x="128" y="-30" type="line"/>
      <point x="11" y="0" type="line"/>
    </contour>
    <contour>
      <point x="421" y="487" type="line"/>
      <point x="664" y="487" type="line"/>
      <point x="738" y="1047" type="line"/>
    </contour>
  </outline>
</glyph>
<glyph name="multiply" format="2">
  <advance width="864"/>
  <unicode hex="00D7"/>
  <outline>
    <contour>
      <point x="230" y="854" type="line"/>
      <point x="363" y="1004" type="line"/>
      <point x="529" y="735" type="line"/>
      <point x="767" y="1004" type="line"/>
      <point x="859" y="854" type="line"/>
      <point x="622" y="585" type="line"/>
      <point x="788" y="316" type="line"/>
      <point x="656" y="166" type="line"/>
      <point x="489" y="435" type="line"/>
      <point x="252" y="166" type="line"/>
      <point x="159" y="316" type="line"/>
      <point x="397" y="585" type="line"/>
    </contour>
  </outline>
</glyph>
<glyph name="germandbls" format="2">
  <advance width="864"/>
  <unicode hex="00DF"/>
  <outline>
    <contour>
      <point x="212" y="1039" type="line"/>
      <point x="227" y="1153"/>
      <point x="304" y="1340"/>
      <point x="410" y="1473"/>
      <point x="537" y="1546"/>
      <point x="602" y="1546" type="qcurve"/>
      <point x="662" y="1546"/>
      <point x="751" y="1506"/>
      <point x="809" y="1440"/>
      <point x="837" y="1357"/>
      <point x="837" y="1314" type="qcurve"/>
      <point x="837" y="1258"/>
      <point x="806" y="1172"/>
      <point x="761" y="1101"/>
      <point x="707" y="1041"/>
      <point x="662" y="983"/>
      <point x="632" y="923"/>
      <point x="632" y="888" type="qcurve"/>
      <point x="632" y="856"/>
      <point x="668" y="799"/>
      <point x="722" y="740"/>
      <point x="785" y="675"/>
      <point x="840" y="594"/>
      <point x="876" y="493"/>
      <point x="876" y="427" type="qcurve"/>
      <point x="876" y="325"/>
      <point x="809" y="157"/>
      <point x="683" y="36"/>
      <point x="502" y="-30"/>
      <point x="389" y="-30" type="qcurve"/>
      <point x="404" y="82" type="line"/>
      <point x="449" y="82"/>
      <point x="539" y="113"/>
      <point x="611" y="179"/>
      <point x="656" y="282"/>
      <point x="656" y="354" type="qcurve"/>
      <point x="656" y="398"/>
      <point x="633" y="472"/>
      <point x="599" y="541"/>
      <point x="560" y="608"/>
      <point x="525" y="679"/>
      <point x="503" y="760"/>
      <point x="503" y="808" type="qcurve"/>
      <point x="503" y="855"/>
      <point x="525" y="941"/>
      <point x="560" y="1021"/>
      <point x="599" y="1100"/>
      <point x="633" y="1182"/>
      <point x="656" y="1268"/>
      <point x="656" y="1316" type="qcurve"/>
      <point x="656" y="1365"/>
      <point x="620" y="1434"/>
      <point x="583" y="1434" type="qcurve"/>
      <point x="554" y="1434"/>
      <point x="509" y="1399"/>
      <point x="471" y="1310"/>
      <point x="440" y="1158"/>
      <point x="424" y="1041" type="qcurve"/>
      <point x="287" y="0" type="line"/>
      <point x="75" y="0" type="line"/>
    </contour>
  </outline>
</glyph>
<glyph name="divide" format="2">
  <advance width="864"/>
  <unicode hex="00F7"/>
  <outline>
    <contour>
      <point x="164" y="593" type="line"/>
      <point x="857" y="593" type="line"/>
      <point x="829" y="381" type="line"/>
      <point x="136" y="381" type="line"/>
    </contour>
    <contour>
      <point x="556" y="116" type="qcurve"/>
      <point x="556" y="86"/>
      <point x="539" y="32"/>
      <point x="509" y="-7"/>
      <point x="469" y="-30"/>
      <point x="446" y="-30" type="qcurve"/>
      <point x="424" y="-30"/>
      <point x="383" y="-7"/>
      <point x="354" y="32"/>
      <point x="337" y="86"/>
      <point x="337" y="116" type="qcurve"/>
      <point x="337" y="146"/>
      <point x="354" y="200"/>
      <point x="383" y="239"/>
      <point x="424" y="262"/>
      <point x="446" y="262" type="qcurve"/>
      <point x="469" y="262"/>
      <point x="509" y="239"/>
      <point x="539" y="200"/>
      <point x="556" y="146"/>
    </contour>
    <contour>
      <point x="654" y="858" type="qcurve"/>
      <point x="654" y="828"/>
      <point x="637" y="774"/>
      <point x="608" y="735"/>
      <point x="567" y="712"/>
      <point x="545" y="712" type="qcurve"/>
      <point x="522" y="712"/>
      <point x="482" y="735"/>
      <point x="452" y="774"/>
      <point x="435" y="828"/>
      <point x="435" y="858" type="qcurve"/>
      <point x="435" y="888"/>
      <point x="452" y="942"/>
      <point x="482" y="981"/>
      <point x="522" y="1004"/>
      <point x="545" y="1004" type="qcurve"/>
      <point x="567" y="1004"/>
      <point x="608" y="981"/>
      <point x="637" y="942"/>
      <point x="654" y="888"/>
    </contour>
  </outline>
</glyph>
<glyph name="Eogonek" format="2">
  <advance width="816"/>
  <unicode hex="0118"/>
  <outline>
    <contour>
      <point x="706" y="-407" type="line"/>
      <point x="671" y="-428"/>
      <point x="614" y="-450"/>
      <point x="580" y="-450" type="qcurve"/>
      <point x="540" y="-450"/>
      <point x="484" y="-423"/>
      <point x="448" y="-376"/>
      <point x="431" y="-315"/>
      <point x="431" y="-280" type="qcurve"/>
      <point x="431" y="-230"/>
      <point x="458" y="-146"/>
      <point x="503" y="-77"/>
      <point x="560" y="-22"/>
      <point x="587" y="0" type="qcurve"/>
      <point x="98" y="0" type="line"/>
      <point x="287" y="1434" type="line"/>
      <point x="927" y="1434" type="line"/>
      <point x="906" y="1272" type="line"/>
      <point x="505" y="1312" type="line"/>
      <point x="445" y="859" type="line"/>
      <point x="775" y="859" type="line"/>
      <point x="755" y="717" type="line"/>
      <point x="426" y="717" type="line"/>
      <point x="347" y="122" type="line"/>
      <point x="782" y="162" type="line"/>
      <point x="761" y="0" type="line"/>
      <point x="724" y="0" type="line"/>
      <point x="697" y="-17"/>
      <point x="636" y="-61"/>
      <point x="586" y="-117"/>
      <point x="552" y="-186"/>
      <point x="552" y="-227" type="qcurve"/>
      <point x="552" y="-265"/>
      <point x="589" y="-308"/>
      <point x="613" y="-308" type="qcurve"/>
      <point x="636" y="-308"/>
      <point x="673" y="-284"/>
      <point x="688" y="-270" type="qcurve"/>
    </contour>
  </outline>
</glyph>
<glyph name="Hbar" format="2">
  <advance width="1128"/>
  <unicode hex="0126"/>
  <outline>
    <contour>
      <point x="288" y="1434" type="line"/>
      <point x="527" y="1464" type="line"/>
      <point x="485" y="1146" type="line"/>
      <point x="947" y="1146" type="line"/>
      <point x="984" y="1434" type="line"/>
      <point x="1223" y="1464" type="line"/>
      <point x="1181" y="1146" type="line"/>
      <point x="1256" y="1146" type="line"/>
      <point x="1237" y="1004" type="line"/>
      <point x="1162" y="1004" type="line"/>
      <point x="1029" y="0" type="line"/>
      <point x="795" y="0" type="line"/>
      <point x="871" y="575" type="line"/>
      <point x="409" y="575" type="line"/>
      <point x="333" y="0" type="line"/>
      <point x="99" y="0" type="line"/>
      <point x="232" y="1004" type="line"/>
      <point x="157" y="1004" type="line"/>
      <point x="176" y="1146" type="line"/>
      <point x="251" y="1146" type="line"/>
    </contour>
    <contour>
      <point x="890" y="717" type="line"/>
      <point x="928" y="1004" type="line"/>
      <point x="466" y="1004" type="line"/>
      <point x="428" y="717" type="line"/>
    </contour>
  </outline>
</glyph>
<glyph name="iogonek" format="2">
  <advance width="432"/>
  <unicode hex="012F"/>
  <outline>
    <contour>
      <point x="239" y="974" type="line"/>
      <point x="410" y="1004" type="line"/>
      <point x="455" y="1004" type="line"/>
      <point x="343" y="164" type="line"/>
      <point x="341" y="146"/>
      <point x="341" y="129" type="qcurve"/>
      <point x="341" y="109"/>
      <point x="358" y="82"/>
      <point x="386" y="82" type="qcurve"/>
      <point x="371" y="-30" type="line"/>
      <point x="361" y="-30"/>
      <point x="341" y="-29"/>
      <point x="332" y="-28" type="qcurve"/>
      <point x="310" y="-46"/>
      <point x="264" y="-86"/>
      <point x="227" y="-133"/>
      <point x="203" y="-191"/>
      <point x="203" y="-227" type="qcurve"/>
      <point x="203" y="-265"/>
      <point x="240" y="-308"/>
      <point x="264" y="-308" type="qcurve"/>
      <point x="287" y="-308"/>
      <point x="324" y="-284"/>
      <point x="339" y="-270" type="qcurve"/>
      <point x="357" y="-407" type="line"/>
      <point x="322" y="-428"/>
      <point x="265" y="-450"/>
      <point x="231" y="-450" type="qcurve"/>
      <point x="191" y="-450"/>
      <point x="135" y="-423"/>
      <point x="99" y="-376"/>
      <point x="82" y="-315"/>
      <point x="82" y="-280" type="qcurve"/>
      <point x="82" y="-198"/>
      <point x="160" y="-68"/>
      <point x="231" y="-6" type="qcurve"/>
      <point x="185" y="16"/>
      <point x="137" y="105"/>
      <point x="137" y="170" type="qcurve"/>
      <point x="137" y="187"/>
      <point x="141" y="231"/>
      <point x="143" y="245" type="qcurve"/>
    </contour>
    <contour>
      <point x="277" y="1288" type="qcurve"/>
      <point x="277" y="1318"/>
      <point x="294" y="1372"/>
      <point x="323" y="1411"/>
      <point x="364" y="1434"/>
      <point x="386" y="1434" type="qcurve"/>
      <point x="409" y="1434"/>
      <point x="449" y="1411"/>
      <point x="479" y="1372"/>
      <point x="496" y="1318"/>
      <point x="496" y="1288" type="qcurve"/>
      <point x="496" y="1258"/>
      <point x="479" y="1204"/>
      <point x="449" y="1165"/>
      <point x="409" y="1142"/>
      <point x="386" y="1142" type="qcurve"/>
      <point x="364" y="1142"/>
      <point x="323" y="1165"/>
      <point x="294" y="1204"/>
      <point x="277" y="1258"/>
    </contour>
  </outline>
</glyph>
<glyph name="jcircumflex" format="2">
  <advance width="432"/>
  <unicode hex="0135"/>
  <outline>
    <contour>
      <point x="332" y="1464" type="line"/>
      <point x="488" y="1464" type="line"/>
      <point x="608" y="1129" type="line"/>
      <point x="512" y="1099" type="line"/>
      <point x="389" y="1302" type="line"/>
      <point x="211" y="1099" type="line"/>
      <point x="125" y="1129" type="line"/>
    </contour>
    <contour>
      <point x="242" y="974" type="line"/>
      <point x="413" y="1004" type="line"/>
      <point x="458" y="1004" type="line"/>
      <point x="315" y="-76" type="line"/>
      <point x="299" y="-202"/>
      <point x="242" y="-362"/>
      <point x="155" y="-455"/>
      <point x="31" y="-490"/>
      <point x="-52" y="-490" type="qcurve"/>
      <point x="-22" y="-378" type="line"/>
      <point x="2" y="-378"/>
      <point x="38" y="-363"/>
      <point x="63" y="-323"/>
      <point x="80" y="-250"/>
      <point x="89" y="-191" type="qcurve"/>
    </contour>
  </outline>
</glyph>
<glyph name="kgreenlandic" format="2">
  <advance width="768"/>
  <unicode hex="0138"/>
  <outline>
    <contour>
      <point x="203" y="974" type="line"/>
      <point x="374" y="1004" type="line"/>
      <point x="419" y="1004" type="line"/>
      <point x="362" y="571" type="line"/>
      <point x="744" y="1004" type="line"/>
      <point x="849" y="973" type="line"/>
      <point x="554" y="638" type="line"/>
      <point x="768" y="0" type="line"/>
      <point x="546" y="-30" type="line"/>
      <point x="386" y="449" type="line"/>
      <point x="338" y="396" type="line"/>
      <point x="287" y="0" type="line"/>
      <point x="75" y="0" type="line"/>
    </contour>
  </outline>
</glyph>
<glyph name="Lslash" format="2">
  <advance width="816"/>
  <unicode hex="0141"/>
  <outline>
    <contour>
      <point x="287" y="1434" type="line"/>
      <point x="525" y="1464" type="line"/>
      <point x="455" y="937" type="line"/>
      <point x="542" y="1004" type="line"/>
      <point x="542" y="813" type="line"/>
      <point x="427" y="724" type="line"/>
      <point x="347" y="122" type="line"/>
      <point x="781" y="162" type="line"/>
      <point x="760" y="0" type="line"/>
      <point x="98" y="0" type="line"/>
      <point x="167" y="524" type="line"/>
      <point x="80" y="457" type="line"/>
      <point x="80" y="648" type="line"/>
      <point x="194" y="736" type="line"/>
    </contour>
  </outline>
</glyph>
<glyph name="Eng" format="2">
  <advance width="1128"/>
  <unicode hex="014A"/>
  <outline>
    <contour>
      <point x="285" y="1434" type="line"/>
      <point x="411" y="1464" type="line"/>
      <point x="968" y="437" type="line"/>
      <point x="1106" y="1464" type="line"/>
      <point x="1223" y="1434" type="line"/>
      <point x="1023" y="-76" type="line"/>
      <point x="1010" y="-177"/>
      <point x="973" y="-331"/>
      <point x="911" y="-436"/>
      <point x="816" y="-490"/>
      <point x="744" y="-490" type="qcurve"/>
      <point x="759" y="-378" type="line"/>
      <point x="860" y="-378"/>
      <point x="885" y="-191" type="qcurve"/>
      <point x="911" y="0" type="line"/>
      <point x="353" y="1026" type="line"/>
      <point x="218" y="0" type="line"/>
      <point x="96" y="0" type="line"/>
    </contour>
  </outline>
</glyph>
<glyph name="oe" format="2">
  <advance width="1368"/>
  <unicode hex="0153"/>
  <outline>
    <contour>
      <point x="1025" y="82" type="qcurve"/>
      <point x="1055" y="82"/>
      <point x="1111" y="109"/>
      <point x="1160" y="152"/>
      <point x="1201" y="206"/>
      <point x="1217" y="234" type="qcurve"/>
      <point x="1287" y="122" type="line"/>
      <point x="1261" y="90"/>
      <point x="1197" y="34"/>
      <point x="1123" y="-7"/>
      <point x="1037" y="-30"/>
      <point x="988" y="-30" type="qcurve"/>
      <point x="904" y="-30"/>
      <point x="772" y="42"/>
      <point x="733" y="108" type="qcurve"/>
      <point x="674" y="42"/>
      <point x="522" y="-30"/>
      <point x="436" y="-30" type="qcurve"/>
      <point x="359" y="-30"/>
      <point x="241" y="29"/>
      <point x="160" y="135"/>
      <point x="118" y="285"/>
      <point x="118" y="375" type="qcurve"/>
      <point x="118" y="461"/>
      <point x="149" y="622"/>
      <point x="208" y="761"/>
      <point x="290" y="876"/>
      <point x="391" y="959"/>
      <point x="509" y="1004"/>
      <point x="573" y="1004" type="qcurve"/>
      <point x="659" y="1004"/>
      <point x="794" y="929"/>
      <point x="835" y="863" type="qcurve"/>
      <point x="893" y="929"/>
      <point x="1046" y="1004"/>
      <point x="1133" y="1004" type="qcurve"/>
      <point x="1179" y="1004"/>
      <point x="1268" y="964"/>
      <point x="1338" y="875"/>
      <point x="1381" y="734"/>
      <point x="1381" y="632" type="qcurve"/>
      <point x="1381" y="599"/>
      <point x="1376" y="527"/>
      <point x="1370" y="487" type="qcurve"/>
      <point x="890" y="487" type="line"/>
      <point x="884" y="448"/>
      <point x="880" y="379"/>
      <point x="880" y="348" type="qcurve"/>
      <point x="880" y="273"/>
      <point x="905" y="171"/>
      <point x="947" y="109"/>
      <point x="999" y="82"/>
    </contour>
    <contour>
      <point x="558" y="892" type="qcurve"/>
      <point x="524" y="892"/>
      <point x="464" y="842"/>
      <point x="415" y="757"/>
      <point x="377" y="644"/>
      <point x="350" y="518"/>
      <point x="337" y="384"/>
      <point x="337" y="322" type="qcurve"/>
      <point x="337" y="207"/>
      <point x="392" y="82"/>
      <point x="451" y="82" type="qcurve"/>
      <point x="485" y="82"/>
      <point x="545" y="129"/>
      <point x="597" y="211"/>
      <point x="638" y="320"/>
      <point x="668" y="444"/>
      <point x="683" y="576"/>
      <point x="683" y="639" type="qcurve"/>
      <point x="683" y="760"/>
      <point x="619" y="892"/>
    </contour>
    <contour>
      <point x="1110" y="892" type="qcurve"/>
      <point x="1080" y="892"/>
      <point x="1016" y="855"/>
      <point x="959" y="781"/>
      <point x="914" y="671"/>
      <point x="905" y="599" type="qcurve"/>
      <point x="1206" y="599" type="line"/>
      <point x="1210" y="630"/>
      <point x="1214" y="684"/>
      <point x="1214" y="708" type="qcurve"/>
      <point x="1214" y="756"/>
      <point x="1198" y="826"/>
      <point x="1170" y="871"/>
      <point x="1132" y="892"/>
    </contour>
  </outline>
</glyph>
<glyph name="Scedilla" format="2">
  <advance width="864"/>
  <unicode hex="015E"/>
  <outline>
    <contour>
      <point x="938" y="1235" type="qcurve"/>
      <point x="846" y="1113" type="line"/>
      <point x="833" y="1150"/>
      <point x="791" y="1224"/>
      <point x="737" y="1284"/>
      <point x="673" y="1322"/>
      <point x="637" y="1322" type="qcurve"/>
      <point x="599" y="1322"/>
      <point x="539" y="1286"/>
      <point x="497" y="1224"/>
      <point x="476" y="1142"/>
      <point x="476" y="1097" type="qcurve"/>
      <point x="476" y="1059"/>
      <point x="486" y="993"/>
      <point x="518" y="933"/>
      <point x="575" y="880"/>
      <point x="621" y="856" type="qcurve"/>
      <point x="731" y="801"/>
      <point x="843" y="603"/>
      <point x="843" y="474" type="qcurve"/>
      <point x="843" y="369"/>
      <point x="783" y="198"/>
      <point x="685" y="71"/>
      <point x="558" y="-9"/>
      <point x="491" y="-22" type="qcurve"/>
      <point x="479" y="-72" type="line"/>
      <point x="494" y="-75"/>
      <point x="528" y="-98"/>
      <point x="557" y="-137"/>
      <point x="575" y="-195"/>
      <point x="575" y="-232" type="qcurve"/>
      <point x="575" y="-295"/>
      <point x="534" y="-391"/>
      <point x="468" y="-456"/>
      <point x="386" y="-490"/>
      <point x="346" y="-490" type="qcurve"/>
      <point x="309" y="-490"/>
      <point x="253" y="-465"/>
      <point x="211" y="-428"/>
      <point x="184" y="-386"/>
      <point x="176" y="-368" type="qcurve"/>
      <point x="251" y="-270" type="line"/>
      <point x="263" y="-315"/>
      <point x="302" y="-368"/>
      <point x="331" y="-368" type="qcurve"/>
      <point x="353" y="-368"/>
      <point x="389" y="-348"/>
      <point x="413" y="-314"/>
      <point x="426" y="-268"/>
      <point x="426" y="-242" type="qcurve"/>
      <point x="426" y="-216"/>
      <point x="413" y="-169"/>
      <point x="386" y="-134"/>
      <point x="350" y="-113"/>
      <point x="326" y="-113" type="qcurve"/>
      <point x="352" y="-24" type="line"/>
      <point x="312" y="-17"/>
      <point x="235" y="22"/>
      <point x="166" y="80"/>
      <point x="107" y="155"/>
      <point x="85" y="199" type="qcurve"/>
      <point x="176" y="321" type="line"/>
      <point x="195" y="282"/>
      <point x="247" y="206"/>
      <point x="310" y="148"/>
      <point x="383" y="112"/>
      <point x="425" y="112" type="qcurve"/>
      <point x="468" y="112"/>
      <point x="542" y="152"/>
      <point x="595" y="222"/>
      <point x="624" y="316"/>
      <point x="624" y="370" type="qcurve"/>
      <point x="624" y="410"/>
      <point x="611" y="483"/>
      <point x="574" y="549"/>
      <point x="509" y="607"/>
      <point x="459" y="631" type="qcurve"/>
      <point x="418" y="651"/>
      <point x="347" y="721"/>
      <point x="294" y="814"/>
      <point x="264" y="927"/>
      <point x="264" y="990" type="qcurve"/>
      <point x="264" y="1097"/>
      <point x="326" y="1272"/>
      <point x="430" y="1396"/>
      <point x="566" y="1464"/>
      <point x="641" y="1464" type="qcurve"/>
      <point x="698" y="1464"/>
      <point x="790" y="1425"/>
      <point x="864" y="1361"/>
      <point x="920" y="1278"/>
    </contour>
  </outline>
</glyph>
<glyph name="Tcommaaccent" format="2">
  <advance width="864"/>
  <unicode hex="0162"/>
  <outline>
    <contour>
      <point x="212" y="1434" type="line"/>
      <point x="1031" y="1434" type="line"/>
      <point x="1010" y="1272" type="line"/>
      <point x="722" y="1312" type="line"/>
      <point x="549" y="0" type="line"/>
      <point x="444" y="0" type="line"/>
      <point x="434" y="-72" type="line"/>
      <point x="450" y="-75"/>
      <point x="485" y="-98"/>
      <point x="514" y="-137"/>
      <point x="533" y="-195"/>
      <point x="533" y="-232" type="qcurve"/>
      <point x="533" y="-295"/>
      <point x="491" y="-391"/>
      <point x="425" y="-456"/>
      <point x="342" y="-490"/>
      <point x="302" y="-490" type="qcurve"/>
      <point x="265" y="-490"/>
      <point x="209" y="-465"/>
      <point x="167" y="-428"/>
      <point x="140" y="-386"/>
      <point x="132" y="-368" type="qcurve"/>
      <point x="206" y="-270" type="line"/>
      <point x="219" y="-315"/>
      <point x="258" y="-368"/>
      <point x="287" y="-368" type="qcurve"/>
      <point x="309" y="-368"/>
      <point x="345" y="-348"/>
      <point x="369" y="-314"/>
      <point x="382" y="-268"/>
      <point x="382" y="-242" type="qcurve"/>
      <point x="382" y="-195"/>
      <point x="340" y="-123"/>
      <point x="301" y="-115" type="qcurve"/>
      <point x="488" y="1313" type="line"/>
      <point x="190" y="1272" type="line"/>
    </contour>
  </outline>
</glyph>
<glyph name="Tbar" format="2">
  <advance width="864"/>
  <unicode hex="0166"/>
  <outline>
    <contour>
      <point x="212" y="1434" type="line"/>
      <point x="1031" y="1434" type="line"/>
      <point x="1010" y="1272" type="line"/>
      <point x="722" y="1312" type="line"/>
      <point x="662" y="859" type="line"/>
      <point x="841" y="859" type="line"/>
      <point x="822" y="717" type="line"/>
      <point x="644" y="717" type="line"/>
      <point x="549" y="0" type="line"/>
      <point x="315" y="0" type="line"/>
      <point x="410" y="717" type="line"/>
      <point x="234" y="717" type="line"/>
      <point x="254" y="859" type="line"/>
      <point x="428" y="859" type="line"/>
      <point x="488" y="1313" type="line"/>
      <point x="190" y="1272" type="line"/>
    </contour>
  </outline>
</glyph>
<glyph name="uogonek" format="2">
  <advance width="840"/>
  <unicode hex="0173"/>
  <outline>
    <contour>
      <point x="794" y="-407" type="line"/>
      <point x="759" y="-428"/>
      <point x="702" y="-450"/>
      <point x="668" y="-450" type="qcurve"/>
      <point x="629" y="-450"/>
      <point x="572" y="-423"/>
      <point x="536" y="-376"/>
      <point x="519" y="-315"/>
      <point x="519" y="-280" type="qcurve"/>
      <point x="519" y="-198"/>
      <point x="596" y="-69"/>
      <point x="664" y="-9" type="qcurve"/>
      <point x="632" y="5"/>
      <point x="593" y="49"/>
      <point x="581" y="82" type="qcurve"/>
      <point x="560" y="62"/>
      <point x="509" y="22"/>
      <point x="448" y="-10"/>
      <point x="379" y="-30"/>
      <point x="342" y="-30" type="qcurve"/>
      <point x="293" y="-30"/>
      <point x="209" y="-1"/>
      <point x="146" y="60"/>
      <point x="110" y="157"/>
      <point x="110" y="226" type="qcurve"/>
      <point x="110" y="259"/>
      <point x="114" y="298" type="qcurve"/>
      <point x="203" y="974" type="line"/>
      <point x="374" y="1004" type="line"/>
      <point x="419" y="1004" type="line"/>
      <point x="320" y="258" type="line"/>
      <point x="316" y="223"/>
      <point x="316" y="198" type="qcurve"/>
      <point x="316" y="163"/>
      <point x="329" y="118"/>
      <point x="351" y="92"/>
      <point x="377" y="82"/>
      <point x="389" y="82" type="qcurve"/>
      <point x="416" y="82"/>
      <point x="468" y="100"/>
      <point x="516" y="131"/>
      <point x="558" y="174"/>
      <point x="574" y="199" type="qcurve"/>
      <point x="676" y="974" type="line"/>
      <point x="847" y="1004" type="line"/>
      <point x="892" y="1004" type="line"/>
      <point x="781" y="165" type="line"/>
      <point x="777" y="145"/>
      <point x="777" y="130" type="qcurve"/>
      <point x="777" y="106"/>
      <point x="799" y="82"/>
      <point x="824" y="82" type="qcurve"/>
      <point x="809" y="-30" type="line"/>
      <point x="798" y="-30"/>
      <point x="778" y="-30"/>
      <point x="768" y="-29" type="qcurve"/>
      <point x="741" y="-49"/>
      <point x="695" y="-92"/>
      <point x="660" y="-142"/>
      <point x="641" y="-197"/>
      <point x="641" y="-227" type="qcurve"/>
      <point x="641" y="-265"/>
      <point x="677" y="-308"/>
      <point x="701" y="-308" type="qcurve"/>
      <point x="725" y="-308"/>
      <point x="761" y="-284"/>
      <point x="776" y="-270" type="qcurve"/>
    </contour>
  </outline>
</glyph>
<glyph name="florin" format="2">
  <advance width="768"/>
  <unicode hex="0192"/>
  <outline>
    <contour>
      <point x="366" y="731" type="line"/>
      <point x="272" y="738" type="line"/>
      <point x="287" y="848" type="line"/>
      <point x="400" y="848" type="line"/>
      <point x="455" y="1050" type="line"/>
      <point x="523" y="1303"/>
      <point x="782" y="1546"/>
      <point x="974" y="1546" type="qcurve"/>
      <point x="959" y="1434" type="line"/>
      <point x="905" y="1434"/>
      <point x="819" y="1374"/>
      <point x="749" y="1269"/>
      <point x="694" y="1126"/>
      <point x="671" y="1042" type="qcurve"/>
      <point x="620" y="848" type="line"/>
      <point x="755" y="848" type="line"/>
      <point x="734" y="708" type="line"/>
      <point x="583" y="718" type="line"/>
      <point x="391" y="4" type="line"/>
      <point x="356" y="-126"/>
      <point x="256" y="-313"/>
      <point x="126" y="-433"/>
      <point x="-34" y="-490"/>
      <point x="-129" y="-490" type="qcurve"/>
      <point x="-114" y="-378" type="line"/>
      <point x="-62" y="-378"/>
      <point x="24" y="-320"/>
      <point x="95" y="-217"/>
      <point x="152" y="-73"/>
      <point x="175" y="14" type="qcurve"/>
    </contour>
  </outline>
</glyph>
<glyph name="uni019E" format="2">
  <advance width="840"/>
  <unicode hex="019E"/>
  <outline>
    <contour>
      <point x="200" y="944" type="line"/>
      <point x="370" y="974" type="line"/>
      <point x="415" y="974" type="line"/>
      <point x="404" y="892" type="line"/>
      <point x="427" y="914"/>
      <point x="480" y="955"/>
      <point x="538" y="986"/>
      <point x="598" y="1004"/>
      <point x="627" y="1004" type="qcurve"/>
      <point x="680" y="1004"/>
      <point x="764" y="970"/>
      <point x="823" y="906"/>
      <point x="854" y="812"/>
      <point x="854" y="752" type="qcurve"/>
      <point x="854" y="733"/>
      <point x="851" y="697"/>
      <point x="848" y="680" type="qcurve"/>
      <point x="698" y="-460" type="line"/>
      <point x="527" y="-490" type="line"/>
      <point x="482" y="-490" type="line"/>
      <point x="643" y="724" type="line"/>
      <point x="644" y="738"/>
      <point x="647" y="764"/>
      <point x="647" y="776" type="qcurve"/>
      <point x="647" y="827"/>
      <point x="599" y="892"/>
      <point x="558" y="892" type="qcurve"/>
      <point x="533" y="892"/>
      <point x="483" y="868"/>
      <point x="438" y="832"/>
      <point x="401" y="789"/>
      <point x="388" y="770" type="qcurve"/>
      <point x="287" y="0" type="line"/>
      <point x="75" y="0" type="line"/>
    </contour>
  </outline>
</glyph>
<glyph name="uni0255" format="2">
  <advance width="768"/>
  <unicode hex="0255"/>
  <outline>
    <contour>
      <point x="734" y="740" type="line"/>
      <point x="725" y="759"/>
      <point x="699" y="811"/>
      <point x="659" y="859"/>
      <point x="604" y="892"/>
      <point x="568" y="892" type="qcurve"/>
      <point x="518" y="892"/>
      <point x="430" y="799"/>
      <point x="363" y="646"/>
      <point x="325" y="449"/>
      <point x="325" y="344" type="qcurve"/>
      <point x="360" y="385"/>
      <point x="427" y="439"/>
      <point x="488" y="472"/>
      <point x="540" y="486"/>
      <point x="561" y="486" type="qcurve"/>
      <point x="604" y="486"/>
      <point x="668" y="457"/>
      <point x="712" y="407"/>
      <point x="734" y="339"/>
      <point x="734" y="300" type="qcurve"/>
      <point x="734" y="216"/>
      <point x="677" y="92"/>
      <point x="587" y="10"/>
      <point x="476" y="-30"/>
      <point x="423" y="-30" type="qcurve"/>
      <point x="350" y="-30"/>
      <point x="247" y="19"/>
      <point x="206" y="64" type="qcurve"/>
      <point x="95" y="-60" type="line"/>
      <point x="-10" y="-30" type="line"/>
      <point x="150" y="149" type="line"/>
      <point x="128" y="197"/>
      <point x="106" y="311"/>
      <point x="106" y="377" type="qcurve"/>
      <point x="106" y="462"/>
      <point x="137" y="622"/>
      <point x="196" y="761"/>
      <point x="278" y="876"/>
      <point x="380" y="959"/>
      <point x="497" y="1004"/>
      <point x="560" y="1004" type="qcurve"/>
      <point x="614" y="1004"/>
      <point x="695" y="980"/>
      <point x="756" y="938"/>
      <point x="801" y="883"/>
      <point x="818" y="852" type="qcurve"/>
    </contour>
    <contour>
      <point x="545" y="374" type="qcurve"/>
      <point x="526" y="374"/>
      <point x="485" y="358"/>
      <point x="436" y="320"/>
      <point x="377" y="259"/>
      <point x="340" y="214" type="qcurve"/>
      <point x="356" y="151"/>
      <point x="415" y="82"/>
      <point x="468" y="82" type="qcurve"/>
      <point x="501" y="82"/>
      <point x="559" y="112"/>
      <point x="602" y="165"/>
      <point x="627" y="237"/>
      <point x="627" y="278" type="qcurve"/>
      <point x="627" y="305"/>
      <point x="614" y="341"/>
      <point x="590" y="364"/>
      <point x="561" y="374"/>
    </contour>
  </outline>
</glyph>
<glyph name="uni025A" format="2">
  <advance width="1080"/>
  <unicode hex="025A"/>
  <outline>
    <contour>
      <point x="451" y="892" type="qcurve"/>
      <point x="420" y="892"/>
      <point x="368" y="865"/>
      <point x="323" y="821"/>
      <point x="286" y="767"/>
      <point x="269" y="739" type="qcurve"/>
      <point x="185" y="852" type="line"/>
      <point x="210" y="884"/>
      <point x="275" y="940"/>
      <point x="351" y="981"/>
      <point x="439" y="1004"/>
      <point x="488" y="1004" type="qcurve"/>
      <point x="584" y="1004"/>
      <point x="715" y="918"/>
      <point x="756" y="831" type="qcurve"/>
      <point x="981" y="1004" type="line"/>
      <point x="1005" y="943" type="line"/>
      <point x="962" y="889"/>
      <point x="917" y="767"/>
      <point x="917" y="697" type="qcurve"/>
      <point x="917" y="679"/>
      <point x="925" y="644"/>
      <point x="941" y="616"/>
      <point x="966" y="599"/>
      <point x="983" y="599" type="qcurve"/>
      <point x="1004" y="599"/>
      <point x="1036" y="626"/>
      <point x="1058" y="668"/>
      <point x="1073" y="717"/>
      <point x="1076" y="740" type="qcurve"/>
      <point x="1164" y="740" type="line"/>
      <point x="1164" y="687"/>
      <point x="1130" y="596"/>
      <point x="1073" y="527"/>
      <point x="1001" y="488"/>
      <point x="965" y="488" type="qcurve"/>
      <point x="935" y="488"/>
      <point x="886" y="518"/>
      <point x="851" y="570"/>
      <point x="833" y="639"/>
      <point x="833" y="678" type="qcurve"/>
      <point x="833" y="704"/>
      <point x="839" y="750"/>
      <point x="842" y="761" type="qcurve"/>
      <point x="790" y="721" type="line"/>
      <point x="796" y="690"/>
      <point x="800" y="633"/>
      <point x="800" y="598" type="qcurve"/>
      <point x="800" y="512"/>
      <point x="768" y="353"/>
      <point x="710" y="213"/>
      <point x="627" y="98"/>
      <point x="525" y="15"/>
      <point x="407" y="-30"/>
      <point x="344" y="-30" type="qcurve"/>
      <point x="295" y="-30"/>
      <point x="206" y="14"/>
      <point x="139" y="102"/>
      <point x="98" y="235"/>
      <point x="98" y="325" type="qcurve"/>
      <point x="586" y="700" type="line"/>
      <point x="580" y="754"/>
      <point x="555" y="827"/>
      <point x="520" y="872"/>
      <point x="476" y="892"/>
    </contour>
    <contour>
      <point x="366" y="82" type="qcurve"/>
      <point x="407" y="82"/>
      <point x="470" y="131"/>
      <point x="518" y="212"/>
      <point x="552" y="315"/>
      <point x="573" y="422"/>
      <point x="584" y="524"/>
      <point x="586" y="564" type="qcurve"/>
      <point x="269" y="320" type="line"/>
      <point x="267" y="303"/>
      <point x="267" y="284" type="qcurve"/>
      <point x="267" y="257"/>
      <point x="276" y="187"/>
      <point x="299" y="125"/>
      <point x="337" y="82"/>
    </contour>
  </outline>
</glyph>
<glyph name="uni025B" format="2">
  <advance width="648"/>
  <unicode hex="025B"/>
  <outline>
    <contour>
      <point x="268" y="551" type="qcurve"/>
      <point x="255" y="561"/>
      <point x="228" y="596"/>
      <point x="206" y="642"/>
      <point x="191" y="698"/>
      <point x="191" y="730" type="qcurve"/>
      <point x="191" y="803"/>
      <point x="245" y="907"/>
      <point x="329" y="973"/>
      <point x="427" y="1004"/>
      <point x="472" y="1004" type="qcurve"/>
      <point x="520" y="1004"/>
      <point x="596" y="979"/>
      <point x="655" y="937"/>
      <point x="698" y="882"/>
      <point x="714" y="852" type="qcurve"/>
      <point x="629" y="740" type="line"/>
      <point x="617" y="773"/>
      <point x="587" y="828"/>
      <point x="551" y="869"/>
      <point x="510" y="892"/>
      <point x="489" y="892" type="qcurve"/>
      <point x="464" y="892"/>
      <point x="424" y="865"/>
      <point x="395" y="821"/>
      <point x="380" y="765"/>
      <point x="380" y="736" type="qcurve"/>
      <point x="380" y="711"/>
      <point x="395" y="662"/>
      <point x="428" y="623"/>
      <point x="483" y="599"/>
      <point x="524" y="599" type="qcurve"/>
      <point x="509" y="487" type="line"/>
      <point x="458" y="487"/>
      <point x="374" y="452"/>
      <point x="315" y="386"/>
      <point x="283" y="291"/>
      <point x="283" y="231" type="qcurve"/>
      <point x="283" y="195"/>
      <point x="301" y="140"/>
      <point x="331" y="102"/>
      <point x="371" y="82"/>
      <point x="392" y="82" type="qcurve"/>
      <point x="420" y="82"/>
      <point x="468" y="108"/>
      <point x="509" y="151"/>
      <point x="545" y="206"/>
      <point x="563" y="235" type="qcurve"/>
      <point x="647" y="122" type="line"/>
      <point x="623" y="92"/>
      <point x="563" y="37"/>
      <point x="493" y="-5"/>
      <point x="415" y="-30"/>
      <point x="374" y="-30" type="qcurve"/>
      <point x="309" y="-30"/>
      <point x="200" y="11"/>
      <point x="122" y="83"/>
      <point x="79" y="181"/>
      <point x="79" y="238" type="qcurve"/>
      <point x="79" y="305"/>
      <point x="113" y="410"/>
      <point x="167" y="487"/>
      <point x="235" y="538"/>
    </contour>
  </outline>
</glyph>
<glyph name="uni025C" format="2">
  <advance width="648"/>
  <unicode hex="025C"/>
  <outline>
    <contour>
      <point x="269" y="-30" type="qcurve"/>
      <point x="228" y="-30"/>
      <point x="158" y="-5"/>
      <point x="99" y="37"/>
      <point x="53" y="92"/>
      <point x="36" y="122" type="qcurve"/>
      <point x="122" y="235" type="line"/>
      <point x="134" y="207"/>
      <point x="166" y="152"/>
      <point x="206" y="109"/>
      <point x="252" y="82"/>
      <point x="281" y="82" type="qcurve"/>
      <point x="317" y="82"/>
      <point x="377" y="125"/>
      <point x="420" y="193"/>
      <point x="444" y="278"/>
      <point x="444" y="320" type="qcurve"/>
      <point x="444" y="357"/>
      <point x="425" y="419"/>
      <point x="383" y="463"/>
      <point x="317" y="487"/>
      <point x="271" y="487" type="qcurve"/>
      <point x="286" y="599" type="line"/>
      <point x="325" y="599"/>
      <point x="393" y="626"/>
      <point x="444" y="677"/>
      <point x="474" y="749"/>
      <point x="474" y="793" type="qcurve"/>
      <point x="474" y="838"/>
      <point x="437" y="892"/>
      <point x="398" y="892" type="qcurve"/>
      <point x="380" y="892"/>
      <point x="341" y="869"/>
      <point x="303" y="828"/>
      <point x="266" y="773"/>
      <point x="248" y="740" type="qcurve"/>
      <point x="163" y="852" type="line"/>
      <point x="186" y="880"/>
      <point x="245" y="935"/>
      <point x="316" y="978"/>
      <point x="398" y="1004"/>
      <point x="446" y="1004" type="qcurve"/>
      <point x="498" y="1004"/>
      <point x="579" y="975"/>
      <point x="635" y="922"/>
      <point x="663" y="849"/>
      <point x="663" y="804" type="qcurve"/>
      <point x="663" y="762"/>
      <point x="640" y="686"/>
      <point x="602" y="621"/>
      <point x="554" y="569"/>
      <point x="530" y="551" type="qcurve"/>
      <point x="554" y="538"/>
      <point x="596" y="504"/>
      <point x="629" y="456"/>
      <point x="648" y="389"/>
      <point x="648" y="343" type="qcurve"/>
      <point x="648" y="279"/>
      <point x="614" y="174"/>
      <point x="557" y="91"/>
      <point x="481" y="30"/>
      <point x="396" y="-10"/>
      <point x="309" y="-30"/>
    </contour>
  </outline>
</glyph>
<glyph name="uni025E" format="2">
  <advance width="840"/>
  <unicode hex="025E"/>
  <outline>
    <contour>
      <point x="575" y="1004" type="qcurve"/>
      <point x="652" y="1004"/>
      <point x="771" y="966"/>
      <point x="852" y="899"/>
      <point x="895" y="804"/>
      <point x="895" y="747" type="qcurve"/>
      <point x="895" y="697"/>
      <point x="872" y="615"/>
      <point x="831" y="550"/>
      <point x="776" y="502"/>
      <point x="743" y="487" type="qcurve"/>
      <point x="770" y="473"/>
      <point x="806" y="431"/>
      <point x="827" y="382"/>
      <point x="836" y="329"/>
      <point x="836" y="304" type="qcurve"/>
      <point x="836" y="238"/>
      <point x="803" y="138"/>
      <point x="745" y="64"/>
      <point x="668" y="14"/>
      <point x="580" y="-17"/>
      <point x="485" y="-30"/>
      <point x="438" y="-30" type="qcurve"/>
      <point x="359" y="-30"/>
      <point x="233" y="24"/>
      <point x="146" y="131"/>
      <point x="99" y="288"/>
      <point x="99" y="391" type="qcurve"/>
      <point x="99" y="521"/>
      <point x="170" y="746"/>
      <point x="296" y="910"/>
      <point x="471" y="1004"/>
    </contour>
    <contour>
      <point x="491" y="542" type="line"/>
      <point x="578" y="542" type="line"/>
      <point x="607" y="542"/>
      <point x="674" y="549"/>
      <point x="731" y="577"/>
      <point x="769" y="633"/>
      <point x="769" y="681" type="qcurve"/>
      <point x="769" y="735"/>
      <point x="662" y="792"/>
      <point x="547" y="792" type="qcurve"/>
      <point x="478" y="792"/>
      <point x="356" y="750"/>
      <point x="266" y="662"/>
      <point x="213" y="525"/>
      <point x="213" y="430" type="qcurve"/>
      <point x="213" y="305"/>
      <point x="343" y="182"/>
      <point x="467" y="182" type="qcurve"/>
      <point x="488" y="182"/>
      <point x="542" y="184"/>
      <point x="599" y="194"/>
      <point x="653" y="213"/>
      <point x="695" y="245"/>
      <point x="722" y="295"/>
      <point x="722" y="330" type="qcurve"/>
      <point x="722" y="387"/>
      <point x="644" y="430"/>
      <point x="563" y="430" type="qcurve"/>
      <point x="476" y="430" type="line"/>
    </contour>
  </outline>
</glyph>
<glyph name="uni025F" format="2">
  <advance width="432"/>
  <unicode hex="025F"/>
  <outline>
    <contour>
      <point x="106" y="599" type="line"/>
      <point x="193" y="599" type="line"/>
      <point x="242" y="974" type="line"/>
      <point x="413" y="1004" type="line"/>
      <point x="458" y="1004" type="line"/>
      <point x="404" y="599" type="line"/>
      <point x="521" y="599" type="line"/>
      <point x="502" y="461" type="line"/>
      <point x="387" y="467" type="line"/>
      <point x="315" y="-76" type="line"/>
      <point x="299" y="-202"/>
      <point x="238" y="-362"/>
      <point x="150" y="-455"/>
      <point x="35" y="-490"/>
      <point x="-37" y="-490" type="qcurve"/>
      <point x="-22" y="-378" type="line"/>
      <point x="3" y="-378"/>
      <point x="38" y="-363"/>
      <point x="63" y="-323"/>
      <point x="80" y="-250"/>
      <point x="89" y="-191" type="qcurve"/>
      <point x="177" y="479" type="line"/>
      <point x="91" y="487" type="line"/>
    </contour>
  </outline>
</glyph>
<glyph name="uni0261" format="2">
  <advance width="840"/>
  <unicode hex="0261"/>
  <outline>
    <contour>
      <point x="525" y="1004" type="qcurve"/>
      <point x="561" y="1004"/>
      <point x="631" y="992"/>
      <point x="712" y="959"/>
      <point x="811" y="900"/>
      <point x="877" y="852" type="qcurve"/>
      <point x="771" y="49" type="line"/>
      <point x="754" y="-80"/>
      <point x="677" y="-271"/>
      <point x="563" y="-398"/>
      <point x="419" y="-460"/>
      <point x="337" y="-460" type="qcurve"/>
      <point x="113" y="-460" type="line"/>
      <point x="131" y="-328" type="line"/>
      <point x="347" y="-328" type="line"/>
      <point x="382" y="-328"/>
      <point x="443" y="-309"/>
      <point x="495" y="-248"/>
      <point x="535" y="-134"/>
      <point x="548" y="-40" type="qcurve"/>
      <point x="564" y="80" type="line"/>
      <point x="527" y="42"/>
      <point x="437" y="0"/>
      <point x="392" y="0" type="qcurve"/>
      <point x="328" y="0"/>
      <point x="221" y="47"/>
      <point x="142" y="140"/>
      <point x="98" y="280"/>
      <point x="98" y="373" type="qcurve"/>
      <point x="98" y="454"/>
      <point x="128" y="611"/>
      <point x="182" y="751"/>
      <point x="257" y="870"/>
      <point x="353" y="956"/>
      <point x="464" y="1004"/>
    </contour>
    <contour>
      <point x="578" y="182" type="qcurve"/>
      <point x="662" y="821" type="line"/>
      <point x="655" y="833"/>
      <point x="634" y="858"/>
      <point x="605" y="879"/>
      <point x="569" y="892"/>
      <point x="546" y="892" type="qcurve"/>
      <point x="515" y="892"/>
      <point x="456" y="848"/>
      <point x="405" y="771"/>
      <point x="363" y="667"/>
      <point x="334" y="549"/>
      <point x="317" y="421"/>
      <point x="317" y="358" type="qcurve"/>
      <point x="317" y="293"/>
      <point x="338" y="200"/>
      <point x="372" y="140"/>
      <point x="418" y="112"/>
      <point x="443" y="112" type="qcurve"/>
      <point x="489" y="112"/>
      <point x="554" y="153"/>
    </contour>
  </outline>
</glyph>
<glyph name="uni0262" format="2">
  <advance width="840"/>
  <unicode hex="0262"/>
  <outline>
    <contour>
      <point x="811" y="740" type="line"/>
      <point x="799" y="767"/>
      <point x="762" y="821"/>
      <point x="712" y="865"/>
      <point x="649" y="892"/>
      <point x="610" y="892" type="qcurve"/>
      <point x="560" y="892"/>
      <point x="479" y="844"/>
      <point x="415" y="763"/>
      <point x="369" y="656"/>
      <point x="339" y="540"/>
      <point x="325" y="421"/>
      <point x="325" y="368" type="qcurve"/>
      <point x="325" y="302"/>
      <point x="347" y="197"/>
      <point x="387" y="122"/>
      <point x="444" y="82"/>
      <point x="480" y="82" type="qcurve"/>
      <point x="500" y="82"/>
      <point x="532" y="88"/>
      <point x="557" y="99"/>
      <point x="578" y="114"/>
      <point x="588" y="123" type="qcurve"/>
      <point x="621" y="376" type="line"/>
      <point x="491" y="376" type="line"/>
      <point x="506" y="488" type="line"/>
      <point x="848" y="488" type="line"/>
      <point x="798" y="122" type="line"/>
      <point x="763" y="90"/>
      <point x="689" y="35"/>
      <point x="604" y="-6"/>
      <point x="502" y="-30"/>
      <point x="438" y="-30" type="qcurve"/>
      <point x="358" y="-30"/>
      <point x="234" y="29"/>
      <point x="149" y="137"/>
      <point x="106" y="287"/>
      <point x="106" y="378" type="qcurve"/>
      <point x="106" y="521"/>
      <point x="188" y="752"/>
      <point x="326" y="916"/>
      <point x="509" y="1004"/>
      <point x="610" y="1004" type="qcurve"/>
      <point x="664" y="1004"/>
      <point x="752" y="980"/>
      <point x="821" y="938"/>
      <point x="875" y="883"/>
      <point x="896" y="852" type="qcurve"/>
    </contour>
  </outline>
</glyph>
<glyph name="uni0263" format="2">
  <advance width="768"/>
  <unicode hex="0263"/>
  <outline>
    <contour>
      <point x="382" y="1004" type="line"/>
      <point x="500" y="459" type="line"/>
      <point x="762" y="1004" type="line"/>
      <point x="864" y="974" type="line"/>
      <point x="536" y="291" type="line"/>
      <point x="551" y="222"/>
      <point x="581" y="76"/>
      <point x="605" y="-54"/>
      <point x="620" y="-158"/>
      <point x="620" y="-185" type="qcurve"/>
      <point x="620" y="-247"/>
      <point x="578" y="-358"/>
      <point x="508" y="-441"/>
      <point x="414" y="-490"/>
      <point x="362" y="-490" type="qcurve"/>
      <point x="319" y="-490"/>
      <point x="257" y="-460"/>
      <point x="217" y="-407"/>
      <point x="198" y="-335"/>
      <point x="198" y="-293" type="qcurve"/>
      <point x="198" y="-238"/>
      <point x="228" y="-124"/>
      <point x="272" y="-14"/>
      <point x="322" y="88"/>
      <point x="342" y="130" type="qcurve"/>
      <point x="160" y="974" type="line"/>
    </contour>
    <contour>
      <point x="376" y="-31" type="qcurve"/>
      <point x="360" y="-63"/>
      <point x="329" y="-129"/>
      <point x="305" y="-195"/>
      <point x="290" y="-259"/>
      <point x="290" y="-287" type="qcurve"/>
      <point x="290" y="-329"/>
      <point x="324" y="-378"/>
      <point x="350" y="-378" type="qcurve"/>
      <point x="368" y="-378"/>
      <point x="398" y="-359"/>
      <point x="420" y="-327"/>
      <point x="431" y="-287"/>
      <point x="431" y="-267" type="qcurve"/>
      <point x="431" y="-235"/>
      <point x="403" y="-124"/>
    </contour>
  </outline>
</glyph>
<glyph name="uni0264" format="2">
  <advance width="768"/>
  <unicode hex="0264"/>
  <outline>
    <contour>
      <point x="539" y="780" type="qcurve"/>
      <point x="572" y="849"/>
      <point x="645" y="937"/>
      <point x="724" y="986"/>
      <point x="809" y="1004"/>
      <point x="854" y="1004" type="qcurve"/>
      <point x="839" y="892" type="line"/>
      <point x="815" y="892"/>
      <point x="761" y="878"/>
      <point x="702" y="835"/>
      <point x="641" y="756"/>
      <point x="612" y="691" type="qcurve"/>
      <point x="582" y="625" type="line"/>
      <point x="598" y="569"/>
      <point x="625" y="460"/>
      <point x="645" y="360"/>
      <point x="657" y="273"/>
      <point x="657" y="240" type="qcurve"/>
      <point x="657" y="182"/>
      <point x="620" y="83"/>
      <point x="557" y="11"/>
      <point x="469" y="-30"/>
      <point x="418" y="-30" type="qcurve"/>
      <point x="332" y="-30"/>
      <point x="249" y="56"/>
      <point x="249" y="137" type="qcurve"/>
      <point x="249" y="183"/>
      <point x="278" y="280"/>
      <point x="319" y="372"/>
      <point x="366" y="456"/>
      <point x="385" y="490" type="qcurve"/>
      <point x="341" y="691" type="line"/>
      <point x="329" y="747"/>
      <point x="299" y="824"/>
      <point x="259" y="871"/>
      <point x="203" y="892"/>
      <point x="164" y="892" type="qcurve"/>
      <point x="179" y="1004" type="line"/>
      <point x="250" y="1004"/>
      <point x="366" y="994"/>
      <point x="456" y="949"/>
      <point x="521" y="859"/>
    </contour>
    <contour>
      <point x="426" y="346" type="qcurve"/>
      <point x="413" y="321"/>
      <point x="385" y="273"/>
      <point x="362" y="225"/>
      <point x="348" y="177"/>
      <point x="348" y="152" type="qcurve"/>
      <point x="348" y="120"/>
      <point x="374" y="82"/>
      <point x="398" y="82" type="qcurve"/>
      <point x="413" y="82"/>
      <point x="439" y="97"/>
      <point x="458" y="123"/>
      <point x="468" y="157"/>
      <point x="468" y="175" type="qcurve"/>
      <point x="468" y="191"/>
      <point x="459" y="236"/>
      <point x="446" y="282"/>
      <point x="432" y="328"/>
    </contour>
  </outline>
</glyph>
<glyph name="uni0268" format="2">
  <advance width="432"/>
  <unicode hex="0268"/>
  <outline>
    <contour>
      <point x="239" y="974" type="line"/>
      <point x="410" y="1004" type="line"/>
      <point x="455" y="1004" type="line"/>
      <point x="401" y="599" type="line"/>
      <point x="503" y="599" type="line"/>
      <point x="484" y="460" type="line"/>
      <point x="383" y="466" type="line"/>
      <point x="322" y="0" type="line"/>
      <point x="110" y="0" type="line"/>
      <point x="173" y="480" type="line"/>
      <point x="87" y="487" type="line"/>
      <point x="102" y="599" type="line"/>
      <point x="189" y="599" type="line"/>
    </contour>
    <contour>
      <point x="281" y="1318" type="qcurve"/>
      <point x="281" y="1348"/>
      <point x="298" y="1402"/>
      <point x="327" y="1441"/>
      <point x="368" y="1464"/>
      <point x="390" y="1464" type="qcurve"/>
      <point x="413" y="1464"/>
      <point x="453" y="1441"/>
      <point x="482" y="1402"/>
      <point x="500" y="1348"/>
      <point x="500" y="1318" type="qcurve"/>
      <point x="500" y="1288"/>
      <point x="482" y="1234"/>
      <point x="453" y="1195"/>
      <point x="413" y="1172"/>
      <point x="390" y="1172" type="qcurve"/>
      <point x="368" y="1172"/>
      <point x="327" y="1195"/>
      <point x="298" y="1234"/>
      <point x="281" y="1288"/>
    </contour>
  </outline>
</glyph>
<glyph name="uni026B" format="2">
  <advance width="552"/>
  <unicode hex="026B"/>
  <outline>
    <contour>
      <point x="364" y="1464" type="line"/>
      <point x="534" y="1494" type="line"/>
      <point x="579" y="1494" type="line"/>
      <point x="496" y="864" type="line"/>
      <point x="534" y="864"/>
      <point x="585" y="944"/>
      <point x="593" y="1004" type="qcurve"/>
      <point x="685" y="1004" type="line"/>
      <point x="675" y="935"/>
      <point x="635" y="826"/>
      <point x="581" y="751"/>
      <point x="514" y="712"/>
      <point x="476" y="712" type="qcurve"/>
      <point x="402" y="154" type="line"/>
      <point x="400" y="142"/>
      <point x="400" y="131" type="qcurve"/>
      <point x="400" y="111"/>
      <point x="419" y="82"/>
      <point x="446" y="82" type="qcurve"/>
      <point x="431" y="-30" type="line"/>
      <point x="307" y="-30"/>
      <point x="197" y="65"/>
      <point x="197" y="169" type="qcurve"/>
      <point x="197" y="186"/>
      <point x="200" y="224"/>
      <point x="203" y="245" type="qcurve"/>
      <point x="283" y="852" type="line"/>
      <point x="245" y="852"/>
      <point x="194" y="772"/>
      <point x="185" y="712" type="qcurve"/>
      <point x="94" y="712" type="line"/>
      <point x="103" y="781"/>
      <point x="143" y="890"/>
      <point x="198" y="965"/>
      <point x="266" y="1004"/>
      <point x="303" y="1004" type="qcurve"/>
    </contour>
  </outline>
</glyph>
<glyph name="uni026F" format="2">
  <advance width="1248"/>
  <unicode hex="026F"/>
  <outline>
    <contour>
      <point x="154" y="1004" type="line"/>
      <point x="212" y="1004"/>
      <point x="301" y="972"/>
      <point x="359" y="916"/>
      <point x="389" y="839"/>
      <point x="389" y="795" type="qcurve"/>
      <point x="389" y="783"/>
      <point x="386" y="753"/>
      <point x="383" y="727" type="qcurve"/>
      <point x="317" y="234" type="line"/>
      <point x="316" y="222"/>
      <point x="314" y="201"/>
      <point x="314" y="191" type="qcurve"/>
      <point x="314" y="161"/>
      <point x="326" y="120"/>
      <point x="347" y="94"/>
      <point x="372" y="82"/>
      <point x="385" y="82" type="qcurve"/>
      <point x="404" y="82"/>
      <point x="446" y="103"/>
      <point x="486" y="137"/>
      <point x="524" y="182"/>
      <point x="539" y="205" type="qcurve"/>
      <point x="641" y="974" type="line"/>
      <point x="812" y="1004" type="line"/>
      <point x="857" y="1004" type="line"/>
      <point x="755" y="233" type="line"/>
      <point x="753" y="221"/>
      <point x="752" y="200"/>
      <point x="752" y="190" type="qcurve"/>
      <point x="752" y="160"/>
      <point x="764" y="119"/>
      <point x="784" y="94"/>
      <point x="809" y="82"/>
      <point x="821" y="82" type="qcurve"/>
      <point x="839" y="82"/>
      <point x="881" y="102"/>
      <point x="922" y="136"/>
      <point x="960" y="180"/>
      <point x="976" y="204" type="qcurve"/>
      <point x="1078" y="974" type="line"/>
      <point x="1249" y="1004" type="line"/>
      <point x="1294" y="1004" type="line"/>
      <point x="1161" y="0" type="line"/>
      <point x="950" y="0" type="line"/>
      <point x="960" y="81" type="line"/>
      <point x="940" y="58"/>
      <point x="891" y="18"/>
      <point x="838" y="-12"/>
      <point x="782" y="-30"/>
      <point x="755" y="-30" type="qcurve"/>
      <point x="680" y="-30"/>
      <point x="581" y="50"/>
      <point x="560" y="122" type="qcurve"/>
      <point x="535" y="92"/>
      <point x="479" y="37"/>
      <point x="419" y="-5"/>
      <point x="353" y="-30"/>
      <point x="317" y="-30" type="qcurve"/>
      <point x="275" y="-30"/>
      <point x="199" y="-1"/>
      <point x="141" y="59"/>
      <point x="107" y="150"/>
      <point x="107" y="212" type="qcurve"/>
      <point x="107" y="242"/>
      <point x="111" y="275" type="qcurve"/>
      <point x="181" y="801" type="line"/>
      <point x="185" y="832"/>
      <point x="185" y="846" type="qcurve"/>
      <point x="185" y="869"/>
      <point x="164" y="892"/>
      <point x="139" y="892" type="qcurve"/>
    </contour>
  </outline>
</glyph>
<glyph name="uni0270" format="2">
  <advance width="1248"/>
  <unicode hex="0270"/>
  <outline>
    <contour>
      <point x="154" y="1004" type="line"/>
      <point x="212" y="1004"/>
      <point x="301" y="972"/>
      <point x="359" y="916"/>
      <point x="389" y="839"/>
      <point x="389" y="795" type="qcurve"/>
      <point x="389" y="783"/>
      <point x="386" y="753"/>
      <point x="383" y="727" type="qcurve"/>
      <point x="317" y="234" type="line"/>
      <point x="316" y="222"/>
      <point x="314" y="201"/>
      <point x="314" y="191" type="qcurve"/>
      <point x="314" y="161"/>
      <point x="326" y="120"/>
      <point x="347" y="94"/>
      <point x="372" y="82"/>
      <point x="385" y="82" type="qcurve"/>
      <point x="404" y="82"/>
      <point x="446" y="103"/>
      <point x="486" y="137"/>
      <point x="524" y="182"/>
      <point x="539" y="205" type="qcurve"/>
      <point x="641" y="974" type="line"/>
      <point x="812" y="1004" type="line"/>
      <point x="857" y="1004" type="line"/>
      <point x="755" y="233" type="line"/>
      <point x="753" y="221"/>
      <point x="752" y="200"/>
      <point x="752" y="190" type="qcurve"/>
      <point x="752" y="160"/>
      <point x="764" y="119"/>
      <point x="784" y="94"/>
      <point x="809" y="82"/>
      <point x="821" y="82" type="qcurve"/>
      <point x="839" y="82"/>
      <point x="881" y="102"/>
      <point x="922" y="136"/>
      <point x="960" y="180"/>
      <point x="976" y="204" type="qcurve"/>
      <point x="1078" y="974" type="line"/>
      <point x="1249" y="1004" type="line"/>
      <point x="1294" y="1004" type="line"/>
      <point x="1100" y="-460" type="line"/>
      <point x="929" y="-490" type="line"/>
      <point x="884" y="-490" type="line"/>
      <point x="959" y="80" type="line"/>
      <point x="915" y="32"/>
      <point x="809" y="-30"/>
      <point x="755" y="-30" type="qcurve"/>
      <point x="680" y="-30"/>
      <point x="581" y="50"/>
      <point x="560" y="122" type="qcurve"/>
      <point x="535" y="92"/>
      <point x="479" y="37"/>
      <point x="419" y="-5"/>
      <point x="353" y="-30"/>
      <point x="317" y="-30" type="qcurve"/>
      <point x="275" y="-30"/>
      <point x="199" y="-1"/>
      <point x="141" y="59"/>
      <point x="107" y="150"/>
      <point x="107" y="212" type="qcurve"/>
      <point x="107" y="242"/>
      <point x="111" y="275" type="qcurve"/>
      <point x="181" y="801" type="line"/>
      <point x="185" y="832"/>
      <point x="185" y="846" type="qcurve"/>
      <point x="185" y="869"/>
      <point x="164" y="892"/>
      <point x="139" y="892" type="qcurve"/>
    </contour>
  </outline>
</glyph>
<glyph name="uni0275" format="2">
  <advance width="840"/>
  <unicode hex="0275"/>
  <outline>
    <contour>
      <point x="553" y="1004" type="qcurve"/>
      <point x="629" y="1004"/>
      <point x="748" y="945"/>
      <point x="829" y="839"/>
      <point x="871" y="690"/>
      <point x="871" y="600" type="qcurve"/>
      <point x="871" y="470"/>
      <point x="802" y="241"/>
      <point x="680" y="70"/>
      <point x="513" y="-30"/>
      <point x="416" y="-30" type="qcurve"/>
      <point x="339" y="-30"/>
      <point x="221" y="29"/>
      <point x="140" y="136"/>
      <point x="98" y="285"/>
      <point x="98" y="375" type="qcurve"/>
      <point x="98" y="461"/>
      <point x="130" y="622"/>
      <point x="188" y="761"/>
      <point x="270" y="876"/>
      <point x="371" y="959"/>
      <point x="488" y="1004"/>
    </contour>
    <contour>
      <point x="317" y="321" type="qcurve"/>
      <point x="317" y="206"/>
      <point x="371" y="82"/>
      <point x="431" y="82" type="qcurve"/>
      <point x="460" y="82"/>
      <point x="510" y="117"/>
      <point x="552" y="175"/>
      <point x="585" y="249"/>
      <point x="611" y="327"/>
      <point x="628" y="402"/>
      <point x="632" y="431" type="qcurve"/>
      <point x="323" y="431" type="line"/>
      <point x="320" y="402"/>
      <point x="317" y="347"/>
    </contour>
    <contour>
      <point x="538" y="892" type="qcurve"/>
      <point x="503" y="892"/>
      <point x="443" y="843"/>
      <point x="393" y="752"/>
      <point x="353" y="623"/>
      <point x="337" y="543" type="qcurve"/>
      <point x="647" y="543" type="line"/>
      <point x="650" y="571"/>
      <point x="652" y="625"/>
      <point x="652" y="651" type="qcurve"/>
      <point x="652" y="766"/>
      <point x="597" y="892"/>
    </contour>
  </outline>
</glyph>
<glyph name="uni0277" format="2">
  <advance width="1200"/>
  <unicode hex="0277"/>
  <outline>
    <contour>
      <point x="307" y="293" type="qcurve"/>
      <point x="307" y="193"/>
      <point x="357" y="82"/>
      <point x="411" y="82" type="qcurve"/>
      <point x="479" y="82"/>
      <point x="569" y="226"/>
      <point x="587" y="366" type="qcurve"/>
      <point x="618" y="599" type="line"/>
      <point x="740" y="599" type="line"/>
      <point x="709" y="366" type="line"/>
      <point x="705" y="337"/>
      <point x="701" y="286"/>
      <point x="701" y="263" type="qcurve"/>
      <point x="701" y="174"/>
      <point x="756" y="82"/>
      <point x="810" y="82" type="qcurve"/>
      <point x="851" y="82"/>
      <point x="923" y="161"/>
      <point x="974" y="290"/>
      <point x="1004" y="452"/>
      <point x="1004" y="535" type="qcurve"/>
      <point x="1004" y="611"/>
      <point x="970" y="742"/>
      <point x="899" y="838"/>
      <point x="791" y="892"/>
      <point x="717" y="892" type="qcurve"/>
      <point x="651" y="892"/>
      <point x="539" y="846"/>
      <point x="448" y="763"/>
      <point x="378" y="650"/>
      <point x="331" y="517"/>
      <point x="307" y="369"/>
    </contour>
    <contour>
      <point x="818" y="-30" type="qcurve"/>
      <point x="776" y="-30"/>
      <point x="709" y="-3"/>
      <point x="659" y="44"/>
      <point x="626" y="106"/>
      <point x="618" y="142" type="qcurve"/>
      <point x="599" y="106"/>
      <point x="551" y="44"/>
      <point x="489" y="-3"/>
      <point x="416" y="-30"/>
      <point x="374" y="-30" type="qcurve"/>
      <point x="316" y="-30"/>
      <point x="212" y="14"/>
      <point x="134" y="102"/>
      <point x="88" y="235"/>
      <point x="88" y="325" type="qcurve"/>
      <point x="88" y="439"/>
      <point x="142" y="628"/>
      <point x="236" y="779"/>
      <point x="362" y="892"/>
      <point x="505" y="967"/>
      <point x="658" y="1004"/>
      <point x="732" y="1004" type="qcurve"/>
      <point x="842" y="1004"/>
      <point x="1024" y="936"/>
      <point x="1153" y="810"/>
      <point x="1223" y="632"/>
      <point x="1223" y="521" type="qcurve"/>
      <point x="1223" y="444"/>
      <point x="1195" y="303"/>
      <point x="1142" y="181"/>
      <point x="1068" y="81"/>
      <point x="977" y="9"/>
      <point x="874" y="-30"/>
    </contour>
  </outline>
</glyph>
<glyph name="uni0278" format="2">
  <advance width="936"/>
  <unicode hex="0278"/>
  <outline>
    <contour>
      <point x="726" y="1494" type="line"/>
      <point x="662" y="1004" type="line"/>
      <point x="737" y="995"/>
      <point x="851" y="928"/>
      <point x="928" y="821"/>
      <point x="966" y="681"/>
      <point x="966" y="598" type="qcurve"/>
      <point x="966" y="476"/>
      <point x="905" y="258"/>
      <point x="790" y="89"/>
      <point x="626" y="-18"/>
      <point x="524" y="-30" type="qcurve"/>
      <point x="467" y="-460" type="line"/>
      <point x="387" y="-490" type="line"/>
      <point x="342" y="-490" type="line"/>
      <point x="403" y="-30" type="line"/>
      <point x="326" y="-21"/>
      <point x="212" y="47"/>
      <point x="136" y="153"/>
      <point x="98" y="295"/>
      <point x="98" y="378" type="qcurve"/>
      <point x="98" y="500"/>
      <point x="160" y="717"/>
      <point x="275" y="885"/>
      <point x="438" y="992"/>
      <point x="540" y="1004" type="qcurve"/>
      <point x="601" y="1464" type="line"/>
      <point x="681" y="1494" type="line"/>
    </contour>
    <contour>
      <point x="755" y="627" type="qcurve"/>
      <point x="755" y="678"/>
      <point x="743" y="766"/>
      <point x="716" y="836"/>
      <point x="676" y="883"/>
      <point x="647" y="892" type="qcurve"/>
      <point x="539" y="82" type="line"/>
      <point x="580" y="97"/>
      <point x="643" y="164"/>
      <point x="691" y="254"/>
      <point x="724" y="360"/>
      <point x="745" y="471"/>
      <point x="755" y="580"/>
    </contour>
    <contour>
      <point x="310" y="348" type="qcurve"/>
      <point x="310" y="297"/>
      <point x="322" y="208"/>
      <point x="347" y="138"/>
      <point x="389" y="91"/>
      <point x="418" y="82" type="qcurve"/>
      <point x="525" y="892" type="line"/>
      <point x="485" y="876"/>
      <point x="422" y="810"/>
      <point x="374" y="720"/>
      <point x="341" y="614"/>
      <point x="320" y="504"/>
      <point x="310" y="395"/>
    </contour>
  </outline>
</glyph>
<glyph name="uni027B" format="2">
  <advance width="552"/>
  <unicode hex="027B"/>
  <outline>
    <contour>
      <point x="420" y="974" type="line"/>
      <point x="591" y="1004" type="line"/>
      <point x="636" y="1004" type="line"/>
      <point x="478" y="-191" type="line"/>
      <point x="474" y="-223"/>
      <point x="470" y="-269"/>
      <point x="470" y="-286" type="qcurve"/>
      <point x="470" y="-313"/>
      <point x="483" y="-349"/>
      <point x="503" y="-370"/>
      <point x="528" y="-378"/>
      <point x="539" y="-378" type="qcurve"/>
      <point x="524" y="-490" type="line"/>
      <point x="470" y="-490"/>
      <point x="377" y="-465"/>
      <point x="308" y="-405"/>
      <point x="270" y="-303"/>
      <point x="270" y="-226" type="qcurve"/>
      <point x="270" y="-163"/>
      <point x="281" y="-76" type="qcurve"/>
      <point x="311" y="148" type="line"/>
      <point x="296" y="115"/>
      <point x="255" y="51"/>
      <point x="210" y="1"/>
      <point x="161" y="-30"/>
      <point x="137" y="-30" type="qcurve"/>
      <point x="118" y="-30"/>
      <point x="86" y="-19"/>
      <point x="59" y="-1"/>
      <point x="41" y="20"/>
      <point x="35" y="30" type="qcurve"/>
      <point x="62" y="234" type="line"/>
      <point x="81" y="212"/>
      <point x="141" y="192"/>
      <point x="177" y="192" type="qcurve"/>
      <point x="215" y="192"/>
      <point x="273" y="229"/>
      <point x="314" y="285"/>
      <point x="338" y="350"/>
      <point x="341" y="379" type="qcurve"/>
    </contour>
  </outline>
</glyph>
<glyph name="uni027C" format="2">
  <advance width="552"/>
  <unicode hex="027C"/>
  <outline>
    <contour>
      <point x="415" y="974" type="line"/>
      <point x="395" y="826" type="line"/>
      <point x="411" y="859"/>
      <point x="449" y="923"/>
      <point x="493" y="973"/>
      <point x="543" y="1004"/>
      <point x="570" y="1004" type="qcurve"/>
      <point x="608" y="1004"/>
      <point x="660" y="964"/>
      <point x="672" y="944" type="qcurve"/>
      <point x="645" y="740" type="line"/>
      <point x="636" y="751"/>
      <point x="609" y="767"/>
      <point x="578" y="777"/>
      <point x="545" y="782"/>
      <point x="529" y="782" type="qcurve"/>
      <point x="491" y="782"/>
      <point x="434" y="745"/>
      <point x="393" y="689"/>
      <point x="368" y="623"/>
      <point x="365" y="595" type="qcurve"/>
      <point x="225" y="-460" type="line"/>
      <point x="55" y="-490" type="line"/>
      <point x="10" y="-490" type="line"/>
      <point x="200" y="944" type="line"/>
      <point x="370" y="974" type="line"/>
    </contour>
  </outline>
</glyph>
<glyph name="uni027D" format="2">
  <advance width="552"/>
  <unicode hex="027D"/>
  <outline>
    <contour>
      <point x="415" y="974" type="line"/>
      <point x="395" y="826" type="line"/>
      <point x="411" y="859"/>
      <point x="452" y="923"/>
      <point x="497" y="973"/>
      <point x="545" y="1004"/>
      <point x="570" y="1004" type="qcurve"/>
      <point x="608" y="1004"/>
      <point x="660" y="964"/>
      <point x="672" y="944" type="qcurve"/>
      <point x="645" y="740" type="line"/>
      <point x="626" y="762"/>
      <point x="566" y="782"/>
      <point x="529" y="782" type="qcurve"/>
      <point x="494" y="782"/>
      <point x="437" y="746"/>
      <point x="395" y="690"/>
      <point x="368" y="625"/>
      <point x="365" y="595" type="qcurve"/>
      <point x="261" y="-191" type="line"/>
      <point x="257" y="-223"/>
      <point x="253" y="-269"/>
      <point x="253" y="-286" type="qcurve"/>
      <point x="253" y="-315"/>
      <point x="266" y="-350"/>
      <point x="286" y="-371"/>
      <point x="311" y="-378"/>
      <point x="323" y="-378" type="qcurve"/>
      <point x="308" y="-490" type="line"/>
      <point x="252" y="-490"/>
      <point x="158" y="-466"/>
      <point x="91" y="-406"/>
      <point x="53" y="-303"/>
      <point x="53" y="-224" type="qcurve"/>
      <point x="53" y="-162"/>
      <point x="65" y="-76" type="qcurve"/>
      <point x="200" y="944" type="line"/>
      <point x="370" y="974" type="line"/>
    </contour>
  </outline>
</glyph>
<glyph name="uni027E" format="2">
  <advance width="432"/>
  <unicode hex="027E"/>
  <outline>
    <contour>
      <point x="110" y="0" type="line"/>
      <point x="188" y="590" type="line"/>
      <point x="205" y="716"/>
      <point x="260" y="876"/>
      <point x="345" y="969"/>
      <point x="463" y="1004"/>
      <point x="541" y="1004" type="qcurve"/>
      <point x="526" y="892" type="line"/>
      <point x="501" y="892"/>
      <point x="466" y="877"/>
      <point x="440" y="837"/>
      <point x="422" y="763"/>
      <point x="415" y="705" type="qcurve"/>
      <point x="322" y="0" type="line"/>
    </contour>
  </outline>
</glyph>
<glyph name="uni0281" format="2">
  <advance width="768"/>
  <unicode hex="0281"/>
  <outline>
    <contour>
      <point x="203" y="974" type="line"/>
      <point x="374" y="1004" type="line"/>
      <point x="419" y="1004" type="line"/>
      <point x="364" y="589" type="line"/>
      <point x="387" y="589" type="line"/>
      <point x="640" y="1004" type="line"/>
      <point x="847" y="974" type="line"/>
      <point x="593" y="589" type="line"/>
      <point x="673" y="554"/>
      <point x="761" y="424"/>
      <point x="761" y="340" type="qcurve"/>
      <point x="761" y="266"/>
      <point x="707" y="142"/>
      <point x="614" y="51"/>
      <point x="488" y="0"/>
      <point x="414" y="0" type="qcurve"/>
      <point x="75" y="0" type="line"/>
    </contour>
    <contour>
      <point x="350" y="477" type="line"/>
      <point x="301" y="112" type="line"/>
      <point x="329" y="112" type="line"/>
      <point x="370" y="112"/>
      <point x="449" y="140"/>
      <point x="511" y="196"/>
      <point x="549" y="279"/>
      <point x="549" y="335" type="qcurve"/>
      <point x="549" y="374"/>
      <point x="521" y="428"/>
      <point x="474" y="462"/>
      <point x="413" y="477"/>
      <point x="379" y="477" type="qcurve"/>
    </contour>
  </outline>
</glyph>
<glyph name="uni0282" format="2">
  <advance width="648"/>
  <unicode hex="0282"/>
  <outline>
    <contour>
      <point x="273" y="-378" type="qcurve"/>
      <point x="258" y="-490" type="line"/>
      <point x="203" y="-490"/>
      <point x="110" y="-465"/>
      <point x="42" y="-405"/>
      <point x="4" y="-303"/>
      <point x="4" y="-226" type="qcurve"/>
      <point x="4" y="-163"/>
      <point x="15" y="-76" type="qcurve"/>
      <point x="41" y="122" type="line"/>
      <point x="125" y="234" type="line"/>
      <point x="139" y="203"/>
      <point x="177" y="148"/>
      <point x="223" y="106"/>
      <point x="274" y="82"/>
      <point x="301" y="82" type="qcurve"/>
      <point x="330" y="82"/>
      <point x="383" y="106"/>
      <point x="424" y="151"/>
      <point x="447" y="215"/>
      <point x="447" y="254" type="qcurve"/>
      <point x="447" y="351"/>
      <point x="329" y="413" type="qcurve"/>
      <point x="299" y="429"/>
      <point x="240" y="481"/>
      <point x="195" y="552"/>
      <point x="168" y="640"/>
      <point x="168" y="692" type="qcurve"/>
      <point x="168" y="768"/>
      <point x="218" y="884"/>
      <point x="298" y="963"/>
      <point x="399" y="1004"/>
      <point x="450" y="1004" type="qcurve"/>
      <point x="495" y="1004"/>
      <point x="568" y="983"/>
      <point x="631" y="944"/>
      <point x="686" y="888"/>
      <point x="714" y="852" type="qcurve"/>
      <point x="630" y="740" type="line"/>
      <point x="619" y="772"/>
      <point x="585" y="827"/>
      <point x="543" y="868"/>
      <point x="494" y="892"/>
      <point x="467" y="892" type="qcurve"/>
      <point x="445" y="892"/>
      <point x="404" y="872"/>
      <point x="374" y="833"/>
      <point x="357" y="778"/>
      <point x="357" y="744" type="qcurve"/>
      <point x="357" y="710"/>
      <point x="374" y="662"/>
      <point x="400" y="628"/>
      <point x="432" y="606"/>
      <point x="448" y="598" type="qcurve"/>
      <point x="548" y="547"/>
      <point x="644" y="403"/>
      <point x="644" y="309" type="qcurve"/>
      <point x="644" y="222"/>
      <point x="585" y="94"/>
      <point x="493" y="10"/>
      <point x="377" y="-30"/>
      <point x="321" y="-30" type="qcurve"/>
      <point x="275" y="-30"/>
      <point x="233" y="-17" type="qcurve"/>
      <point x="212" y="-191" type="line"/>
      <point x="208" y="-223"/>
      <point x="203" y="-269"/>
      <point x="203" y="-286" type="qcurve"/>
      <point x="203" y="-313"/>
      <point x="217" y="-349"/>
      <point x="237" y="-370"/>
      <point x="262" y="-378"/>
    </contour>
  </outline>
</glyph>
<glyph name="uni0284" format="2">
  <advance width="552"/>
  <unicode hex="0284"/>
  <outline>
    <contour>
      <point x="501" y="139" type="line"/>
      <point x="482" y="0" type="line"/>
      <point x="382" y="0" type="line"/>
      <point x="371" y="-76" type="line"/>
      <point x="354" y="-201"/>
      <point x="302" y="-362"/>
      <point x="221" y="-455"/>
      <point x="102" y="-490"/>
      <point x="19" y="-490" type="qcurve"/>
      <point x="34" y="-378" type="line"/>
      <point x="59" y="-378"/>
      <point x="95" y="-363"/>
      <point x="119" y="-323"/>
      <point x="137" y="-250"/>
      <point x="145" y="-191" type="qcurve"/>
      <point x="170" y="0" type="line"/>
      <point x="65" y="0" type="line"/>
      <point x="80" y="109" type="line"/>
      <point x="185" y="116" type="line"/>
      <point x="309" y="1050" type="line"/>
      <point x="326" y="1176"/>
      <point x="377" y="1336"/>
      <point x="459" y="1429"/>
      <point x="578" y="1464"/>
      <point x="662" y="1464" type="qcurve"/>
      <point x="647" y="1352" type="line"/>
      <point x="622" y="1352"/>
      <point x="587" y="1337"/>
      <point x="561" y="1297"/>
      <point x="543" y="1223"/>
      <point x="536" y="1165" type="qcurve"/>
      <point x="398" y="130" type="line"/>
    </contour>
  </outline>
</glyph>
<glyph name="uni0285" format="2">
  <advance width="552"/>
  <unicode hex="0285"/>
  <outline>
    <contour>
      <point x="263" y="1464" type="line"/>
      <point x="332" y="1464"/>
      <point x="434" y="1439"/>
      <point x="500" y="1377"/>
      <point x="532" y="1275"/>
      <point x="532" y="1199" type="qcurve"/>
      <point x="532" y="1135"/>
      <point x="521" y="1050" type="qcurve"/>
      <point x="417" y="269" type="line"/>
      <point x="413" y="237"/>
      <point x="408" y="187"/>
      <point x="408" y="167" type="qcurve"/>
      <point x="408" y="116"/>
      <point x="447" y="82"/>
      <point x="494" y="82" type="qcurve"/>
      <point x="479" y="-30" type="line"/>
      <point x="409" y="-30"/>
      <point x="307" y="-5"/>
      <point x="241" y="56"/>
      <point x="209" y="158"/>
      <point x="209" y="234" type="qcurve"/>
      <point x="209" y="298"/>
      <point x="221" y="384" type="qcurve"/>
      <point x="324" y="1165" type="line"/>
      <point x="328" y="1197"/>
      <point x="333" y="1247"/>
      <point x="333" y="1267" type="qcurve"/>
      <point x="333" y="1318"/>
      <point x="294" y="1352"/>
      <point x="248" y="1352" type="qcurve"/>
    </contour>
  </outline>
</glyph>
<glyph name="uni0287" format="2">
  <advance width="552"/>
  <unicode hex="0287"/>
  <outline>
    <contour>
      <point x="241" y="1464" type="line"/>
      <point x="331" y="1464"/>
      <point x="449" y="1436"/>
      <point x="519" y="1379"/>
      <point x="548" y="1290"/>
      <point x="548" y="1229" type="qcurve"/>
      <point x="548" y="1171"/>
      <point x="537" y="1092" type="qcurve"/>
      <point x="472" y="599" type="line"/>
      <point x="596" y="599" type="line"/>
      <point x="578" y="460" type="line"/>
      <point x="454" y="469" type="line"/>
      <point x="392" y="0" type="line"/>
      <point x="181" y="0" type="line"/>
      <point x="244" y="480" type="line"/>
      <point x="142" y="487" type="line"/>
      <point x="157" y="599" type="line"/>
      <point x="260" y="599" type="line"/>
      <point x="335" y="1165" type="line"/>
      <point x="338" y="1183"/>
      <point x="341" y="1216"/>
      <point x="341" y="1230" type="qcurve"/>
      <point x="341" y="1293"/>
      <point x="288" y="1352"/>
      <point x="226" y="1352" type="qcurve"/>
    </contour>
  </outline>
</glyph>
<glyph name="uni028A" format="2">
  <advance width="840"/>
  <unicode hex="028A"/>
  <outline>
    <contour>
      <point x="644" y="974" type="line"/>
      <point x="960" y="974" type="line"/>
      <point x="941" y="835" type="line"/>
      <point x="791" y="850" type="line"/>
      <point x="791" y="840" type="line"/>
      <point x="826" y="796"/>
      <point x="870" y="650"/>
      <point x="870" y="562" type="qcurve"/>
      <point x="870" y="481"/>
      <point x="836" y="331"/>
      <point x="773" y="199"/>
      <point x="688" y="91"/>
      <point x="587" y="13"/>
      <point x="474" y="-30"/>
      <point x="416" y="-30" type="qcurve"/>
      <point x="344" y="-30"/>
      <point x="227" y="29"/>
      <point x="143" y="136"/>
      <point x="95" y="286"/>
      <point x="95" y="378" type="qcurve"/>
      <point x="95" y="445"/>
      <point x="120" y="578"/>
      <point x="167" y="699"/>
      <point x="231" y="802"/>
      <point x="272" y="840" type="qcurve"/>
      <point x="272" y="850" type="line"/>
      <point x="119" y="835" type="line"/>
      <point x="136" y="974" type="line"/>
      <point x="438" y="974" type="line"/>
      <point x="452" y="863" type="line"/>
      <point x="410" y="816"/>
      <point x="355" y="692"/>
      <point x="321" y="554"/>
      <point x="307" y="410"/>
      <point x="307" y="344" type="qcurve"/>
      <point x="307" y="290"/>
      <point x="320" y="195"/>
      <point x="349" y="123"/>
      <point x="396" y="82"/>
      <point x="431" y="82" type="qcurve"/>
      <point x="471" y="82"/>
      <point x="536" y="128"/>
      <point x="587" y="208"/>
      <point x="623" y="314"/>
      <point x="647" y="434"/>
      <point x="659" y="560"/>
      <point x="659" y="620" type="qcurve"/>
      <point x="659" y="652"/>
      <point x="656" y="721"/>
      <point x="647" y="786"/>
      <point x="629" y="843"/>
      <point x="615" y="863" type="qcurve"/>
    </contour>
  </outline>
</glyph>
<glyph name="uni028B" format="2">
  <advance width="840"/>
  <unicode hex="028B"/>
  <outline>
    <contour>
      <point x="419" y="1004" type="line"/>
      <point x="322" y="269" type="line"/>
      <point x="317" y="236"/>
      <point x="317" y="209" type="qcurve"/>
      <point x="317" y="150"/>
      <point x="359" y="82"/>
      <point x="404" y="82" type="qcurve"/>
      <point x="455" y="82"/>
      <point x="552" y="190"/>
      <point x="627" y="373"/>
      <point x="673" y="613"/>
      <point x="673" y="745" type="qcurve"/>
      <point x="673" y="779"/>
      <point x="663" y="833"/>
      <point x="641" y="871"/>
      <point x="602" y="892"/>
      <point x="574" y="892" type="qcurve"/>
      <point x="589" y="1004" type="line"/>
      <point x="657" y="1004"/>
      <point x="767" y="959"/>
      <point x="843" y="875"/>
      <point x="884" y="754"/>
      <point x="884" y="679" type="qcurve"/>
      <point x="884" y="590"/>
      <point x="848" y="416"/>
      <point x="781" y="259"/>
      <point x="688" y="124"/>
      <point x="576" y="26"/>
      <point x="449" y="-30"/>
      <point x="382" y="-30" type="qcurve"/>
      <point x="305" y="-30"/>
      <point x="200" y="0"/>
      <point x="137" y="60"/>
      <point x="110" y="149"/>
      <point x="110" y="207" type="qcurve"/>
      <point x="110" y="237"/>
      <point x="115" y="304"/>
      <point x="120" y="342" type="qcurve"/>
      <point x="203" y="974" type="line"/>
      <point x="374" y="1004" type="line"/>
    </contour>
  </outline>
</glyph>
<glyph name="uni028C" format="2">
  <advance width="768"/>
  <unicode hex="028C"/>
  <outline>
    <contour>
      <point x="434" y="974" type="line"/>
      <point x="607" y="974" type="line"/>
      <point x="736" y="0" type="line"/>
      <point x="514" y="-30" type="line"/>
      <point x="424" y="666" type="line"/>
      <point x="134" y="-30" type="line"/>
      <point x="32" y="0" type="line"/>
    </contour>
  </outline>
</glyph>
<glyph name="uni028E" format="2">
  <advance width="720"/>
  <unicode hex="028E"/>
  <outline>
    <contour>
      <point x="468" y="-30" type="line"/>
      <point x="365" y="589" type="line"/>
      <point x="132" y="-30" type="line"/>
      <point x="31" y="0" type="line"/>
      <point x="408" y="1004" type="line"/>
      <point x="446" y="1103"/>
      <point x="522" y="1272"/>
      <point x="621" y="1395"/>
      <point x="751" y="1464"/>
      <point x="841" y="1464" type="qcurve"/>
      <point x="826" y="1352" type="line"/>
      <point x="762" y="1352"/>
      <point x="666" y="1285"/>
      <point x="593" y="1177"/>
      <point x="536" y="1043"/>
      <point x="511" y="977" type="qcurve"/>
      <point x="692" y="0" type="line"/>
    </contour>
  </outline>
</glyph>
<glyph name="uni0290" format="2">
  <advance width="720"/>
  <unicode hex="0290"/>
  <outline>
    <contour>
      <point x="30" y="60" type="line"/>
      <point x="557" y="862" type="line"/>
      <point x="173" y="835" type="line"/>
      <point x="191" y="974" type="line"/>
      <point x="826" y="974" type="line"/>
      <point x="818" y="914" type="line"/>
      <point x="284" y="112" type="line"/>
      <point x="715" y="141" type="line"/>
      <point x="671" y="-191" type="line"/>
      <point x="668" y="-223"/>
      <point x="663" y="-269"/>
      <point x="663" y="-286" type="qcurve"/>
      <point x="663" y="-313"/>
      <point x="677" y="-349"/>
      <point x="697" y="-370"/>
      <point x="722" y="-378"/>
      <point x="733" y="-378" type="qcurve"/>
      <point x="718" y="-490" type="line"/>
      <point x="663" y="-490"/>
      <point x="570" y="-465"/>
      <point x="502" y="-405"/>
      <point x="464" y="-303"/>
      <point x="464" y="-226" type="qcurve"/>
      <point x="464" y="-163"/>
      <point x="475" y="-76" type="qcurve"/>
      <point x="485" y="0" type="line"/>
      <point x="23" y="0" type="line"/>
    </contour>
  </outline>
</glyph>
<glyph name="uni0292" format="2">
  <advance width="768"/>
  <unicode hex="0292"/>
  <outline>
    <contour>
      <point x="102" y="-226" type="line"/>
      <point x="111" y="-249"/>
      <point x="140" y="-303"/>
      <point x="182" y="-348"/>
      <point x="235" y="-378"/>
      <point x="268" y="-378" type="qcurve"/>
      <point x="300" y="-378"/>
      <point x="361" y="-335"/>
      <point x="415" y="-260"/>
      <point x="460" y="-158"/>
      <point x="493" y="-40"/>
      <point x="511" y="90"/>
      <point x="511" y="155" type="qcurve"/>
      <point x="511" y="220"/>
      <point x="491" y="323"/>
      <point x="455" y="394"/>
      <point x="405" y="432"/>
      <point x="375" y="432" type="qcurve"/>
      <point x="338" y="432"/>
      <point x="284" y="421"/>
      <point x="257" y="407" type="qcurve"/>
      <point x="266" y="468" type="line"/>
      <point x="524" y="862" type="line"/>
      <point x="173" y="835" type="line"/>
      <point x="191" y="974" type="line"/>
      <point x="793" y="974" type="line"/>
      <point x="785" y="914" type="line"/>
      <point x="524" y="524" type="line"/>
      <point x="572" y="504"/>
      <point x="649" y="433"/>
      <point x="702" y="334"/>
      <point x="730" y="210"/>
      <point x="730" y="138" type="qcurve"/>
      <point x="730" y="10"/>
      <point x="660" y="-219"/>
      <point x="538" y="-390"/>
      <point x="371" y="-490"/>
      <point x="275" y="-490" type="qcurve"/>
      <point x="221" y="-490"/>
      <point x="142" y="-466"/>
      <point x="82" y="-425"/>
      <point x="36" y="-370"/>
      <point x="17" y="-338" type="qcurve"/>
    </contour>
  </outline>
</glyph>
<glyph name="uni0293" format="2">
  <advance width="768"/>
  <unicode hex="0293"/>
  <outline>
    <contour>
      <point x="714" y="-460" type="line"/>
      <point x="606" y="-490" type="line"/>
      <point x="539" y="-374" type="line"/>
      <point x="504" y="-401"/>
      <point x="442" y="-435"/>
      <point x="380" y="-454"/>
      <point x="316" y="-460"/>
      <point x="281" y="-460" type="qcurve"/>
      <point x="223" y="-460"/>
      <point x="136" y="-414"/>
      <point x="77" y="-338"/>
      <point x="47" y="-242"/>
      <point x="47" y="-192" type="qcurve"/>
      <point x="47" y="-129"/>
      <point x="79" y="-28"/>
      <point x="136" y="43"/>
      <point x="215" y="82"/>
      <point x="263" y="82" type="qcurve"/>
      <point x="326" y="82"/>
      <point x="442" y="3"/>
      <point x="485" y="-67" type="qcurve"/>
      <point x="497" y="-14"/>
      <point x="511" y="98"/>
      <point x="511" y="155" type="qcurve"/>
      <point x="511" y="220"/>
      <point x="491" y="323"/>
      <point x="455" y="394"/>
      <point x="405" y="432"/>
      <point x="375" y="432" type="qcurve"/>
      <point x="338" y="432"/>
      <point x="284" y="421"/>
      <point x="257" y="407" type="qcurve"/>
      <point x="266" y="468" type="line"/>
      <point x="524" y="862" type="line"/>
      <point x="173" y="835" type="line"/>
      <point x="191" y="974" type="line"/>
      <point x="793" y="974" type="line"/>
      <point x="785" y="914" type="line"/>
      <point x="524" y="524" type="line"/>
      <point x="622" y="484"/>
      <point x="730" y="284"/>
      <point x="730" y="138" type="qcurve"/>
      <point x="730" y="16"/>
      <point x="668" y="-200"/>
      <point x="611" y="-285" type="qcurve"/>
    </contour>
    <contour>
      <point x="439" y="-200" type="qcurve"/>
      <point x="414" y="-157"/>
      <point x="371" y="-93"/>
      <point x="327" y="-51"/>
      <point x="281" y="-30"/>
      <point x="254" y="-30" type="qcurve"/>
      <point x="229" y="-30"/>
      <point x="184" y="-51"/>
      <point x="151" y="-92"/>
      <point x="131" y="-150"/>
      <point x="131" y="-186" type="qcurve"/>
      <point x="131" y="-219"/>
      <point x="149" y="-278"/>
      <point x="181" y="-322"/>
      <point x="227" y="-348"/>
      <point x="254" y="-348" type="qcurve"/>
      <point x="308" y="-348"/>
      <point x="405" y="-270"/>
    </contour>
  </outline>
</glyph>
<glyph name="uni0294" format="2">
  <advance width="768"/>
  <unicode hex="0294"/>
  <outline>
    <contour>
      <point x="230" y="0" type="line"/>
      <point x="321" y="690" type="line"/>
      <point x="404" y="690" type="line"/>
      <point x="450" y="690"/>
      <point x="530" y="756"/>
      <point x="587" y="867"/>
      <point x="620" y="1010"/>
      <point x="620" y="1088" type="qcurve"/>
      <point x="620" y="1148"/>
      <point x="600" y="1245"/>
      <point x="565" y="1314"/>
      <point x="515" y="1352"/>
      <point x="484" y="1352" type="qcurve"/>
      <point x="456" y="1352"/>
      <point x="406" y="1324"/>
      <point x="362" y="1281"/>
      <point x="324" y="1226"/>
      <point x="308" y="1199" type="qcurve"/>
      <point x="223" y="1312" type="line"/>
      <point x="248" y="1343"/>
      <point x="307" y="1399"/>
      <point x="379" y="1440"/>
      <point x="467" y="1464"/>
      <point x="521" y="1464" type="qcurve"/>
      <point x="600" y="1464"/>
      <point x="719" y="1400"/>
      <point x="799" y="1290"/>
      <point x="839" y="1146"/>
      <point x="839" y="1067" type="qcurve"/>
      <point x="839" y="968"/>
      <point x="789" y="798"/>
      <point x="701" y="664"/>
      <point x="583" y="571"/>
      <point x="514" y="548" type="qcurve"/>
      <point x="442" y="0" type="line"/>
    </contour>
  </outline>
</glyph>
<glyph name="uni0295" format="2">
  <advance width="768"/>
  <unicode hex="0295"/>
  <outline>
    <contour>
      <point x="525" y="0" type="line"/>
      <point x="314" y="0" type="line"/>
      <point x="386" y="548" type="line"/>
      <point x="335" y="566"/>
      <point x="256" y="632"/>
      <point x="203" y="725"/>
      <point x="175" y="842"/>
      <point x="175" y="909" type="qcurve"/>
      <point x="175" y="1032"/>
      <point x="249" y="1236"/>
      <point x="373" y="1383"/>
      <point x="534" y="1464"/>
      <point x="621" y="1464" type="qcurve"/>
      <point x="675" y="1464"/>
      <point x="756" y="1440"/>
      <point x="817" y="1398"/>
      <point x="862" y="1343"/>
      <point x="879" y="1312" type="qcurve"/>
      <point x="794" y="1200" type="line"/>
      <point x="782" y="1227"/>
      <point x="752" y="1281"/>
      <point x="713" y="1325"/>
      <point x="662" y="1352"/>
      <point x="629" y="1352" type="qcurve"/>
      <point x="590" y="1352"/>
      <point x="527" y="1310"/>
      <point x="474" y="1240"/>
      <point x="434" y="1150"/>
      <point x="407" y="1053"/>
      <point x="394" y="957"/>
      <point x="394" y="917" type="qcurve"/>
      <point x="394" y="864"/>
      <point x="414" y="780"/>
      <point x="452" y="722"/>
      <point x="503" y="690"/>
      <point x="533" y="690" type="qcurve"/>
      <point x="616" y="690" type="line"/>
    </contour>
  </outline>
</glyph>
<glyph name="uni0297" format="2">
  <advance width="768"/>
  <unicode hex="0297"/>
  <outline>
    <contour>
      <point x="794" y="1200" type="line"/>
      <point x="782" y="1227"/>
      <point x="752" y="1281"/>
      <point x="713" y="1325"/>
      <point x="662" y="1352"/>
      <point x="629" y="1352" type="qcurve"/>
      <point x="592" y="1352"/>
      <point x="518" y="1297"/>
      <point x="455" y="1194"/>
      <point x="407" y="1047"/>
      <point x="395" y="954" type="qcurve"/>
      <point x="332" y="487" type="line"/>
      <point x="328" y="452"/>
      <point x="324" y="386"/>
      <point x="324" y="356" type="qcurve"/>
      <point x="324" y="291"/>
      <point x="344" y="189"/>
      <point x="380" y="119"/>
      <point x="430" y="82"/>
      <point x="461" y="82" type="qcurve"/>
      <point x="491" y="82"/>
      <point x="542" y="112"/>
      <point x="587" y="157"/>
      <point x="623" y="211"/>
      <point x="637" y="234" type="qcurve"/>
      <point x="722" y="122" type="line"/>
      <point x="695" y="90"/>
      <point x="636" y="34"/>
      <point x="565" y="-7"/>
      <point x="478" y="-30"/>
      <point x="423" y="-30" type="qcurve"/>
      <point x="348" y="-30"/>
      <point x="230" y="29"/>
      <point x="148" y="136"/>
      <point x="105" y="286"/>
      <point x="105" y="377" type="qcurve"/>
      <point x="105" y="403"/>
      <point x="110" y="458"/>
      <point x="113" y="487" type="qcurve"/>
      <point x="175" y="952" type="line"/>
      <point x="190" y="1063"/>
      <point x="269" y="1251"/>
      <point x="386" y="1388"/>
      <point x="536" y="1464"/>
      <point x="621" y="1464" type="qcurve"/>
      <point x="675" y="1464"/>
      <point x="756" y="1440"/>
      <point x="818" y="1398"/>
      <point x="862" y="1343"/>
      <point x="879" y="1312" type="qcurve"/>
    </contour>
  </outline>
</glyph>
<glyph name="uni0299" format="2">
  <advance width="720"/>
  <unicode hex="0299"/>
  <outline>
    <contour>
      <point x="203" y="974" type="line"/>
      <point x="501" y="974" type="line"/>
      <point x="554" y="974"/>
      <point x="634" y="943"/>
      <point x="688" y="888"/>
      <point x="716" y="813"/>
      <point x="716" y="769" type="qcurve"/>
      <point x="716" y="725"/>
      <point x="692" y="649"/>
      <point x="653" y="590"/>
      <point x="602" y="547"/>
      <point x="572" y="536" type="qcurve"/>
      <point x="586" y="530"/>
      <point x="635" y="499"/>
      <point x="682" y="446"/>
      <point x="717" y="370"/>
      <point x="717" y="319" type="qcurve"/>
      <point x="717" y="245"/>
      <point x="666" y="126"/>
      <point x="575" y="44"/>
      <point x="449" y="0"/>
      <point x="374" y="0" type="qcurve"/>
      <point x="75" y="0" type="line"/>
    </contour>
    <contour>
      <point x="362" y="578" type="line"/>
      <point x="393" y="579"/>
      <point x="447" y="605"/>
      <point x="488" y="651"/>
      <point x="511" y="716"/>
      <point x="511" y="757" type="qcurve"/>
      <point x="511" y="789"/>
      <point x="491" y="830"/>
      <point x="460" y="853"/>
      <point x="420" y="862"/>
      <point x="400" y="862" type="qcurve"/>
    </contour>
    <contour>
      <point x="301" y="112" type="line"/>
      <point x="341" y="113"/>
      <point x="416" y="136"/>
      <point x="472" y="185"/>
      <point x="506" y="263"/>
      <point x="506" y="320" type="qcurve"/>
      <point x="506" y="358"/>
      <point x="482" y="413"/>
      <point x="440" y="449"/>
      <point x="383" y="466"/>
      <point x="348" y="466" type="qcurve"/>
    </contour>
  </outline>
</glyph>
<glyph name="uni029A" format="2">
  <advance width="840"/>
  <unicode hex="029A"/>
  <outline>
    <contour>
      <point x="515" y="1004" type="qcurve"/>
      <point x="584" y="1004"/>
      <point x="711" y="946"/>
      <point x="809" y="835"/>
      <point x="869" y="674"/>
      <point x="869" y="572" type="qcurve"/>
      <point x="869" y="485"/>
      <point x="830" y="328"/>
      <point x="763" y="194"/>
      <point x="670" y="86"/>
      <point x="561" y="11"/>
      <point x="440" y="-30"/>
      <point x="378" y="-30" type="qcurve"/>
      <point x="306" y="-30"/>
      <point x="193" y="5"/>
      <point x="115" y="70"/>
      <point x="74" y="162"/>
      <point x="74" y="219" type="qcurve"/>
      <point x="74" y="268"/>
      <point x="97" y="352"/>
      <point x="138" y="420"/>
      <point x="193" y="471"/>
      <point x="224" y="487" type="qcurve"/>
      <point x="197" y="500"/>
      <point x="161" y="538"/>
      <point x="140" y="582"/>
      <point x="132" y="632"/>
      <point x="132" y="658" type="qcurve"/>
      <point x="132" y="724"/>
      <point x="167" y="826"/>
      <point x="226" y="903"/>
      <point x="304" y="956"/>
      <point x="389" y="989"/>
      <point x="476" y="1004"/>
    </contour>
    <contour>
      <point x="476" y="430" type="line"/>
      <point x="390" y="430" type="line"/>
      <point x="362" y="430"/>
      <point x="291" y="422"/>
      <point x="230" y="394"/>
      <point x="188" y="339"/>
      <point x="188" y="292" type="qcurve"/>
      <point x="188" y="237"/>
      <point x="292" y="182"/>
      <point x="407" y="182" type="qcurve"/>
      <point x="476" y="182"/>
      <point x="604" y="225"/>
      <point x="703" y="315"/>
      <point x="762" y="453"/>
      <point x="762" y="548" type="qcurve"/>
      <point x="762" y="610"/>
      <point x="724" y="702"/>
      <point x="653" y="762"/>
      <point x="551" y="792"/>
      <point x="487" y="792" type="qcurve"/>
      <point x="465" y="792"/>
      <point x="411" y="789"/>
      <point x="355" y="780"/>
      <point x="302" y="760"/>
      <point x="260" y="727"/>
      <point x="235" y="677"/>
      <point x="235" y="641" type="qcurve"/>
      <point x="235" y="612"/>
      <point x="258" y="573"/>
      <point x="302" y="551"/>
      <point x="365" y="542"/>
      <point x="405" y="542" type="qcurve"/>
      <point x="491" y="542" type="line"/>
    </contour>
  </outline>
</glyph>
<glyph name="uni029B" format="2">
  <advance width="840"/>
  <unicode hex="029B"/>
  <outline>
    <contour>
      <point x="811" y="740" type="line"/>
      <point x="799" y="767"/>
      <point x="762" y="821"/>
      <point x="712" y="865"/>
      <point x="649" y="892"/>
      <point x="610" y="892" type="qcurve"/>
      <point x="560" y="892"/>
      <point x="479" y="844"/>
      <point x="415" y="763"/>
      <point x="369" y="656"/>
      <point x="339" y="540"/>
      <point x="325" y="421"/>
      <point x="325" y="368" type="qcurve"/>
      <point x="325" y="302"/>
      <point x="347" y="197"/>
      <point x="387" y="122"/>
      <point x="444" y="82"/>
      <point x="480" y="82" type="qcurve"/>
      <point x="500" y="82"/>
      <point x="532" y="88"/>
      <point x="557" y="98"/>
      <point x="578" y="113"/>
      <point x="588" y="122" type="qcurve"/>
      <point x="621" y="376" type="line"/>
      <point x="491" y="376" type="line"/>
      <point x="506" y="488" type="line"/>
      <point x="848" y="488" type="line"/>
      <point x="800" y="122" type="line"/>
      <point x="765" y="90"/>
      <point x="691" y="35"/>
      <point x="605" y="-6"/>
      <point x="502" y="-30"/>
      <point x="438" y="-30" type="qcurve"/>
      <point x="358" y="-30"/>
      <point x="234" y="29"/>
      <point x="149" y="137"/>
      <point x="106" y="287"/>
      <point x="106" y="378" type="qcurve"/>
      <point x="106" y="521"/>
      <point x="188" y="752"/>
      <point x="326" y="916"/>
      <point x="509" y="1004"/>
      <point x="610" y="1004" type="qcurve"/>
      <point x="638" y="1004"/>
      <point x="688" y="997"/>
      <point x="711" y="991" type="qcurve"/>
      <point x="730" y="1050"/>
      <point x="778" y="1141"/>
      <point x="851" y="1202"/>
      <point x="956" y="1234"/>
      <point x="1032" y="1234" type="qcurve"/>
      <point x="1017" y="1122" type="line"/>
      <point x="992" y="1122"/>
      <point x="956" y="1108"/>
      <point x="931" y="1067"/>
      <point x="914" y="994"/>
      <point x="906" y="935" type="qcurve"/>
      <point x="896" y="852" type="line"/>
    </contour>
  </outline>
</glyph>
<glyph name="uni029C" format="2">
  <advance width="840"/>
  <unicode hex="029C"/>
  <outline>
    <contour>
      <point x="421" y="1004" type="line"/>
      <point x="367" y="599" type="line"/>
      <point x="631" y="599" type="line"/>
      <point x="680" y="974" type="line"/>
      <point x="851" y="1004" type="line"/>
      <point x="896" y="1004" type="line"/>
      <point x="764" y="0" type="line"/>
      <point x="552" y="0" type="line"/>
      <point x="616" y="487" type="line"/>
      <point x="352" y="487" type="line"/>
      <point x="288" y="0" type="line"/>
      <point x="77" y="0" type="line"/>
      <point x="205" y="974" type="line"/>
      <point x="376" y="1004" type="line"/>
    </contour>
  </outline>
</glyph>
<glyph name="uni029E" format="2">
  <advance width="768"/>
  <unicode hex="029E"/>
  <outline>
    <contour>
      <point x="128" y="974" type="line"/>
      <point x="350" y="1004" type="line"/>
      <point x="510" y="525" type="line"/>
      <point x="557" y="578" type="line"/>
      <point x="610" y="974" type="line"/>
      <point x="781" y="1004" type="line"/>
      <point x="826" y="1004" type="line"/>
      <point x="632" y="-460" type="line"/>
      <point x="461" y="-490" type="line"/>
      <point x="416" y="-490" type="line"/>
      <point x="535" y="403" type="line"/>
      <point x="152" y="-30" type="line"/>
      <point x="47" y="1" type="line"/>
      <point x="343" y="336" type="line"/>
    </contour>
  </outline>
</glyph>
<glyph name="uni029F" format="2">
  <advance width="720"/>
  <unicode hex="029F"/>
  <outline>
    <contour>
      <point x="203" y="974" type="line"/>
      <point x="374" y="1004" type="line"/>
      <point x="419" y="1004" type="line"/>
      <point x="301" y="112" type="line"/>
      <point x="698" y="141" type="line"/>
      <point x="679" y="0" type="line"/>
      <point x="75" y="0" type="line"/>
    </contour>
  </outline>
</glyph>
<glyph name="uni02A0" format="2">
  <advance width="885"/>
  <unicode hex="02A0"/>
  <outline>
    <contour>
      <point x="526" y="1004" type="qcurve"/>
      <point x="548" y="1004"/>
      <point x="593" y="989"/>
      <point x="635" y="964"/>
      <point x="668" y="932"/>
      <point x="677" y="915" type="qcurve"/>
      <point x="696" y="1011"/>
      <point x="754" y="1134"/>
      <point x="836" y="1206"/>
      <point x="945" y="1234"/>
      <point x="1014" y="1234" type="qcurve"/>
      <point x="999" y="1122" type="line"/>
      <point x="974" y="1122"/>
      <point x="939" y="1107"/>
      <point x="914" y="1067"/>
      <point x="896" y="993"/>
      <point x="888" y="935" type="qcurve"/>
      <point x="704" y="-460" type="line"/>
      <point x="533" y="-490" type="line"/>
      <point x="488" y="-490" type="line"/>
      <point x="560" y="51" type="line"/>
      <point x="524" y="13"/>
      <point x="433" y="-30"/>
      <point x="388" y="-30" type="qcurve"/>
      <point x="325" y="-30"/>
      <point x="218" y="24"/>
      <point x="141" y="126"/>
      <point x="98" y="275"/>
      <point x="98" y="370" type="qcurve"/>
      <point x="98" y="450"/>
      <point x="127" y="606"/>
      <point x="181" y="747"/>
      <point x="257" y="867"/>
      <point x="353" y="955"/>
      <point x="464" y="1004"/>
    </contour>
    <contour>
      <point x="659" y="802" type="line"/>
      <point x="651" y="817"/>
      <point x="631" y="849"/>
      <point x="604" y="875"/>
      <point x="569" y="892"/>
      <point x="547" y="892" type="qcurve"/>
      <point x="515" y="892"/>
      <point x="455" y="846"/>
      <point x="404" y="767"/>
      <point x="362" y="661"/>
      <point x="333" y="541"/>
      <point x="317" y="412"/>
      <point x="317" y="350" type="qcurve"/>
      <point x="317" y="283"/>
      <point x="336" y="183"/>
      <point x="369" y="116"/>
      <point x="414" y="82"/>
      <point x="440" y="82" type="qcurve"/>
      <point x="485" y="82"/>
      <point x="552" y="133"/>
      <point x="575" y="163" type="qcurve"/>
    </contour>
  </outline>
</glyph>
<glyph name="uni02A2" format="2">
  <advance width="768"/>
  <unicode hex="02A2"/>
  <outline>
    <contour>
      <point x="525" y="0" type="line"/>
      <point x="314" y="0" type="line"/>
      <point x="347" y="257" type="line"/>
      <point x="260" y="263" type="line"/>
      <point x="276" y="375" type="line"/>
      <point x="362" y="375" type="line"/>
      <point x="386" y="548" type="line"/>
      <point x="335" y="566"/>
      <point x="256" y="632"/>
      <point x="203" y="725"/>
      <point x="175" y="842"/>
      <point x="175" y="909" type="qcurve"/>
      <point x="175" y="1032"/>
      <point x="249" y="1236"/>
      <point x="373" y="1383"/>
      <point x="534" y="1464"/>
      <point x="621" y="1464" type="qcurve"/>
      <point x="675" y="1464"/>
      <point x="756" y="1440"/>
      <point x="817" y="1398"/>
      <point x="862" y="1343"/>
      <point x="879" y="1312" type="qcurve"/>
      <point x="794" y="1200" type="line"/>
      <point x="782" y="1227"/>
      <point x="752" y="1281"/>
      <point x="713" y="1325"/>
      <point x="662" y="1352"/>
      <point x="629" y="1352" type="qcurve"/>
      <point x="590" y="1352"/>
      <point x="527" y="1310"/>
      <point x="474" y="1240"/>
      <point x="434" y="1150"/>
      <point x="407" y="1053"/>
      <point x="394" y="957"/>
      <point x="394" y="917" type="qcurve"/>
      <point x="394" y="864"/>
      <point x="414" y="780"/>
      <point x="452" y="722"/>
      <point x="503" y="690"/>
      <point x="533" y="690" type="qcurve"/>
      <point x="616" y="690" type="line"/>
      <point x="574" y="375" type="line"/>
      <point x="677" y="375" type="line"/>
      <point x="653" y="236" type="line"/>
      <point x="557" y="242" type="line"/>
    </contour>
  </outline>
</glyph>
<glyph name="uni02A6" format="2">
  <advance width="936"/>
  <unicode hex="02A6"/>
  <outline>
    <contour>
      <point x="512" y="1322" type="line"/>
      <point x="470" y="1004" type="line"/>
      <point x="757" y="1004" type="line"/>
      <point x="802" y="1004"/>
      <point x="875" y="983"/>
      <point x="938" y="944"/>
      <point x="993" y="888"/>
      <point x="1021" y="852" type="qcurve"/>
      <point x="937" y="740" type="line"/>
      <point x="926" y="771"/>
      <point x="892" y="827"/>
      <point x="850" y="868"/>
      <point x="800" y="892"/>
      <point x="774" y="892" type="qcurve"/>
      <point x="752" y="892"/>
      <point x="711" y="872"/>
      <point x="681" y="833"/>
      <point x="664" y="778"/>
      <point x="664" y="744" type="qcurve"/>
      <point x="664" y="710"/>
      <point x="680" y="662"/>
      <point x="707" y="628"/>
      <point x="739" y="606"/>
      <point x="755" y="598" type="qcurve"/>
      <point x="855" y="547"/>
      <point x="950" y="403"/>
      <point x="950" y="309" type="qcurve"/>
      <point x="950" y="222"/>
      <point x="892" y="94"/>
      <point x="800" y="10"/>
      <point x="684" y="-30"/>
      <point x="628" y="-30" type="qcurve"/>
      <point x="462" y="-30" type="line"/>
      <point x="373" y="-30"/>
      <point x="257" y="-2"/>
      <point x="188" y="55"/>
      <point x="161" y="142"/>
      <point x="161" y="203" type="qcurve"/>
      <point x="161" y="233"/>
      <point x="166" y="303"/>
      <point x="171" y="342" type="qcurve"/>
      <point x="243" y="885" type="line"/>
      <point x="142" y="892" type="line"/>
      <point x="157" y="1004" type="line"/>
      <point x="259" y="1004" type="line"/>
      <point x="296" y="1292" type="line"/>
      <point x="467" y="1322" type="line"/>
    </contour>
    <contour>
      <point x="754" y="254" type="qcurve"/>
      <point x="754" y="352"/>
      <point x="636" y="413" type="qcurve"/>
      <point x="605" y="429"/>
      <point x="547" y="481"/>
      <point x="502" y="552"/>
      <point x="475" y="640"/>
      <point x="475" y="692" type="qcurve"/>
      <point x="475" y="745"/>
      <point x="500" y="833"/>
      <point x="521" y="869" type="qcurve"/>
      <point x="452" y="873" type="line"/>
      <point x="373" y="269" type="line"/>
      <point x="371" y="251"/>
      <point x="368" y="219"/>
      <point x="368" y="205" type="qcurve"/>
      <point x="368" y="142"/>
      <point x="420" y="82"/>
      <point x="481" y="82" type="qcurve"/>
      <point x="610" y="82" type="line"/>
      <point x="639" y="82"/>
      <point x="691" y="106"/>
      <point x="731" y="151"/>
      <point x="754" y="215"/>
    </contour>
  </outline>
</glyph>
<glyph name="uni02A8" format="2">
  <advance width="1080"/>
  <unicode hex="02A8"/>
  <outline>
    <contour>
      <point x="460" y="1322" type="line"/>
      <point x="505" y="1322" type="line"/>
      <point x="463" y="1004" type="line"/>
      <point x="596" y="1004" type="line"/>
      <point x="578" y="865" type="line"/>
      <point x="445" y="873" type="line"/>
      <point x="365" y="269" type="line"/>
      <point x="363" y="251"/>
      <point x="360" y="219"/>
      <point x="360" y="205" type="qcurve"/>
      <point x="360" y="151"/>
      <point x="398" y="90"/>
      <point x="440" y="82" type="qcurve"/>
      <point x="500" y="150" type="line"/>
      <point x="478" y="198"/>
      <point x="455" y="311"/>
      <point x="455" y="377" type="qcurve"/>
      <point x="455" y="462"/>
      <point x="487" y="622"/>
      <point x="545" y="761"/>
      <point x="628" y="876"/>
      <point x="729" y="959"/>
      <point x="846" y="1004"/>
      <point x="910" y="1004" type="qcurve"/>
      <point x="964" y="1004"/>
      <point x="1045" y="980"/>
      <point x="1106" y="938"/>
      <point x="1151" y="883"/>
      <point x="1168" y="852" type="qcurve"/>
      <point x="1083" y="740" type="line"/>
      <point x="1074" y="763"/>
      <point x="1045" y="817"/>
      <point x="1004" y="862"/>
      <point x="950" y="892"/>
      <point x="917" y="892" type="qcurve"/>
      <point x="869" y="892"/>
      <point x="780" y="799"/>
      <point x="713" y="648"/>
      <point x="674" y="457"/>
      <point x="674" y="360" type="qcurve"/>
      <point x="674" y="345" type="line"/>
      <point x="710" y="386"/>
      <point x="777" y="440"/>
      <point x="839" y="473"/>
      <point x="893" y="486"/>
      <point x="914" y="486" type="qcurve"/>
      <point x="956" y="486"/>
      <point x="1019" y="457"/>
      <point x="1062" y="407"/>
      <point x="1083" y="339"/>
      <point x="1083" y="300" type="qcurve"/>
      <point x="1083" y="216"/>
      <point x="1026" y="92"/>
      <point x="936" y="10"/>
      <point x="826" y="-30"/>
      <point x="773" y="-30" type="qcurve"/>
      <point x="700" y="-30"/>
      <point x="595" y="20"/>
      <point x="552" y="62" type="qcurve"/>
      <point x="470" y="-30" type="line"/>
      <point x="377" y="-30"/>
      <point x="254" y="-2"/>
      <point x="182" y="55"/>
      <point x="153" y="144"/>
      <point x="153" y="206" type="qcurve"/>
      <point x="153" y="236"/>
      <point x="158" y="304"/>
      <point x="164" y="342" type="qcurve"/>
      <point x="236" y="885" type="line"/>
      <point x="134" y="892" type="line"/>
      <point x="149" y="1004" type="line"/>
      <point x="251" y="1004" type="line"/>
      <point x="289" y="1292" type="line"/>
    </contour>
    <contour>
      <point x="898" y="374" type="qcurve"/>
      <point x="878" y="374"/>
      <point x="836" y="357"/>
      <point x="786" y="319"/>
      <point x="726" y="257"/>
      <point x="689" y="212" type="qcurve"/>
      <point x="706" y="149"/>
      <point x="775" y="82"/>
      <point x="818" y="82" type="qcurve"/>
      <point x="851" y="82"/>
      <point x="908" y="112"/>
      <point x="952" y="165"/>
      <point x="977" y="237"/>
      <point x="977" y="278" type="qcurve"/>
      <point x="977" y="305"/>
      <point x="964" y="341"/>
      <point x="942" y="364"/>
      <point x="914" y="374"/>
    </contour>
  </outline>
</glyph>
<glyph name="uni02A9" format="2">
  <advance width="1200"/>
  <unicode hex="02A9"/>
  <outline>
    <contour>
      <point x="172" y="1004" type="line"/>
      <point x="274" y="1004" type="line"/>
      <point x="285" y="1103"/>
      <point x="333" y="1253"/>
      <point x="401" y="1362"/>
      <point x="485" y="1434"/>
      <point x="579" y="1477"/>
      <point x="681" y="1494"/>
      <point x="733" y="1494" type="qcurve"/>
      <point x="718" y="1382" type="line"/>
      <point x="677" y="1382"/>
      <point x="605" y="1356"/>
      <point x="549" y="1293"/>
      <point x="509" y="1189"/>
      <point x="499" y="1111" type="qcurve"/>
      <point x="485" y="1004" type="line"/>
      <point x="785" y="1004" type="line"/>
      <point x="770" y="893" type="line"/>
      <point x="793" y="912"/>
      <point x="844" y="952"/>
      <point x="899" y="984"/>
      <point x="956" y="1004"/>
      <point x="986" y="1004" type="qcurve"/>
      <point x="1039" y="1004"/>
      <point x="1126" y="973"/>
      <point x="1187" y="909"/>
      <point x="1220" y="813"/>
      <point x="1220" y="749" type="qcurve"/>
      <point x="1220" y="732"/>
      <point x="1217" y="698"/>
      <point x="1214" y="680" type="qcurve"/>
      <point x="1115" y="-76" type="line"/>
      <point x="1098" y="-202"/>
      <point x="1042" y="-362"/>
      <point x="954" y="-455"/>
      <point x="830" y="-490"/>
      <point x="747" y="-490" type="qcurve"/>
      <point x="762" y="-378" type="line"/>
      <point x="790" y="-378"/>
      <point x="831" y="-363"/>
      <point x="860" y="-323"/>
      <point x="881" y="-250"/>
      <point x="888" y="-191" type="qcurve"/>
      <point x="1009" y="724" type="line"/>
      <point x="1010" y="728"/>
      <point x="1010" y="742"/>
      <point x="1012" y="757"/>
      <point x="1013" y="771"/>
      <point x="1013" y="775" type="qcurve"/>
      <point x="1013" y="807"/>
      <point x="998" y="851"/>
      <point x="974" y="879"/>
      <point x="941" y="892"/>
      <point x="924" y="892" type="qcurve"/>
      <point x="899" y="892"/>
      <point x="851" y="869"/>
      <point x="806" y="833"/>
      <point x="767" y="790"/>
      <point x="754" y="770" type="qcurve"/>
      <point x="653" y="0" type="line"/>
      <point x="441" y="0" type="line"/>
      <point x="555" y="867" type="line"/>
      <point x="467" y="873" type="line"/>
      <point x="353" y="0" type="line"/>
      <point x="141" y="0" type="line"/>
      <point x="258" y="886" type="line"/>
      <point x="157" y="892" type="line"/>
    </contour>
  </outline>
</glyph>
<glyph name="uni02AB" format="2">
  <advance width="840"/>
  <unicode hex="02AB"/>
  <outline>
    <contour>
      <point x="285" y="1464" type="line"/>
      <point x="455" y="1494" type="line"/>
      <point x="500" y="1494" type="line"/>
      <point x="431" y="974" type="line"/>
      <point x="946" y="974" type="line"/>
      <point x="938" y="914" type="line"/>
      <point x="404" y="112" type="line"/>
      <point x="835" y="141" type="line"/>
      <point x="817" y="0" type="line"/>
      <point x="227" y="0" type="line"/>
      <point x="175" y="26"/>
      <point x="126" y="120"/>
      <point x="126" y="201" type="qcurve"/>
      <point x="126" y="206"/>
      <point x="127" y="231"/>
      <point x="128" y="260"/>
      <point x="130" y="290"/>
      <point x="131" y="300" type="qcurve"/>
    </contour>
    <contour>
      <point x="677" y="862" type="line"/>
      <point x="414" y="843" type="line"/>
      <point x="351" y="366" type="line"/>
    </contour>
  </outline>
</glyph>
<glyph name="uni02AC" format="2">
  <advance width="720"/>
  <unicode hex="02AC"/>
  <outline>
    <contour>
      <point x="518" y="602" type="line"/>
      <point x="548" y="221" type="line"/>
      <point x="680" y="602" type="line"/>
      <point x="740" y="584" type="line"/>
      <point x="537" y="0" type="line"/>
      <point x="434" y="0" type="line"/>
      <point x="402" y="372" type="line"/>
      <point x="273" y="0" type="line"/>
      <point x="170" y="0" type="line"/>
      <point x="120" y="584" type="line"/>
      <point x="254" y="602" type="line"/>
      <point x="283" y="221" type="line"/>
      <point x="415" y="602" type="line"/>
    </contour>
    <contour>
      <point x="632" y="1464" type="line"/>
      <point x="662" y="1083" type="line"/>
      <point x="793" y="1464" type="line"/>
      <point x="854" y="1446" type="line"/>
      <point x="650" y="862" type="line"/>
      <point x="548" y="862" type="line"/>
      <point x="515" y="1234" type="line"/>
      <point x="386" y="862" type="line"/>
      <point x="283" y="862" type="line"/>
      <point x="234" y="1446" type="line"/>
      <point x="367" y="1464" type="line"/>
      <point x="397" y="1083" type="line"/>
      <point x="528" y="1464" type="line"/>
    </contour>
  </outline>
</glyph>
<glyph name="uni02B9" format="2">
  <advance width="576"/>
  <unicode hex="02B9"/>
  <outline>
    <contour>
      <point x="290" y="1149" type="line"/>
      <point x="425" y="1580" type="line"/>
      <point x="457" y="1590" type="line"/>
      <point x="566" y="1507" type="line"/>
      <point x="575" y="1464" type="line"/>
      <point x="363" y="1094" type="line"/>
    </contour>
  </outline>
</glyph>
<glyph name="uni02BB" format="2">
  <advance width="576"/>
  <unicode hex="02BB"/>
  <outline>
    <contour>
      <point x="556" y="1219" type="line"/>
      <point x="445" y="1071" type="line"/>
      <point x="425" y="1071" type="line"/>
      <point x="419" y="1078"/>
      <point x="395" y="1115"/>
      <point x="371" y="1178"/>
      <point x="352" y="1265"/>
      <point x="352" y="1322" type="qcurve"/>
      <point x="352" y="1381"/>
      <point x="377" y="1478"/>
      <point x="419" y="1556"/>
      <point x="471" y="1615"/>
      <point x="498" y="1638" type="qcurve"/>
      <point x="556" y="1561" type="line"/>
      <point x="545" y="1551"/>
      <point x="522" y="1520"/>
      <point x="502" y="1476"/>
      <point x="488" y="1422"/>
      <point x="488" y="1389" type="qcurve"/>
      <point x="488" y="1358"/>
      <point x="504" y="1310"/>
      <point x="527" y="1274"/>
      <point x="549" y="1251"/>
      <point x="556" y="1245" type="qcurve"/>
    </contour>
  </outline>
</glyph>
<glyph name="uni02BD" format="2">
  <advance width="576"/>
  <unicode hex="02BD"/>
  <outline>
    <contour>
      <point x="565" y="1464" type="line"/>
      <point x="558" y="1458"/>
      <point x="536" y="1435"/>
      <point x="513" y="1399"/>
      <point x="497" y="1351"/>
      <point x="497" y="1320" type="qcurve"/>
      <point x="497" y="1287"/>
      <point x="511" y="1233"/>
      <point x="531" y="1189"/>
      <point x="554" y="1158"/>
      <point x="565" y="1148" type="qcurve"/>
      <point x="507" y="1071" type="line"/>
      <point x="480" y="1094"/>
      <point x="428" y="1153"/>
      <point x="386" y="1231"/>
      <point x="361" y="1328"/>
      <point x="361" y="1387" type="qcurve"/>
      <point x="361" y="1444"/>
      <point x="380" y="1531"/>
      <point x="404" y="1594"/>
      <point x="428" y="1631"/>
      <point x="434" y="1638" type="qcurve"/>
      <point x="454" y="1638" type="line"/>
      <point x="565" y="1490" type="line"/>
    </contour>
  </outline>
</glyph>
<glyph name="uni02BE" format="2">
  <advance width="576"/>
  <unicode hex="02BE"/>
  <outline>
    <contour>
      <point x="367" y="1238" type="line"/>
      <point x="374" y="1236" type="line"/>
      <point x="378" y="1235"/>
      <point x="385" y="1235" type="qcurve"/>
      <point x="409" y="1235"/>
      <point x="437" y="1279"/>
      <point x="437" y="1307" type="qcurve"/>
      <point x="437" y="1333"/>
      <point x="413" y="1371"/>
      <point x="393" y="1376" type="qcurve"/>
      <point x="386" y="1377" type="line"/>
      <point x="404" y="1517" type="line"/>
      <point x="413" y="1515" type="line"/>
      <point x="440" y="1509"/>
      <point x="489" y="1470"/>
      <point x="524" y="1414"/>
      <point x="545" y="1344"/>
      <point x="545" y="1307" type="qcurve"/>
      <point x="545" y="1263"/>
      <point x="518" y="1185"/>
      <point x="475" y="1127"/>
      <point x="417" y="1093"/>
      <point x="385" y="1093" type="qcurve"/>
      <point x="371" y="1093"/>
      <point x="357" y="1096" type="qcurve"/>
      <point x="349" y="1098" type="line"/>
    </contour>
  </outline>
</glyph>
<glyph name="circumflex" format="2">
  <advance width="576"/>
  <unicode hex="02C6"/>
  <outline>
    <contour>
      <point x="411" y="1534" type="line"/>
      <point x="567" y="1534" type="line"/>
      <point x="686" y="1199" type="line"/>
      <point x="591" y="1169" type="line"/>
      <point x="467" y="1372" type="line"/>
      <point x="290" y="1169" type="line"/>
      <point x="203" y="1199" type="line"/>
    </contour>
  </outline>
</glyph>
<glyph name="caron" format="2">
  <advance width="576"/>
  <unicode hex="02C7"/>
  <outline>
    <contour>
      <point x="244" y="1494" type="line"/>
      <point x="338" y="1524" type="line"/>
      <point x="462" y="1321" type="line"/>
      <point x="640" y="1524" type="line"/>
      <point x="727" y="1494" type="line"/>
      <point x="519" y="1159" type="line"/>
      <point x="363" y="1159" type="line"/>
    </contour>
  </outline>
</glyph>
<glyph name="uni02C8" format="2">
  <advance width="576"/>
  <unicode hex="02C8"/>
  <outline>
    <contour>
      <point x="329" y="914" type="line"/>
      <point x="410" y="1524" type="line"/>
      <point x="569" y="1524" type="line"/>
      <point x="488" y="914" type="line"/>
    </contour>
  </outline>
</glyph>
<glyph name="uni02C9" format="2">
  <advance width="576"/>
  <unicode hex="02C9"/>
  <outline>
    <contour>
      <point x="744" y="1314" type="line"/>
      <point x="724" y="1162" type="line"/>
      <point x="158" y="1162" type="line"/>
      <point x="178" y="1314" type="line"/>
    </contour>
  </outline>
</glyph>
<glyph name="uni02CA" format="2">
  <advance width="576"/>
  <unicode hex="02CA"/>
  <outline>
    <contour>
      <point x="317" y="1220" type="line"/>
      <point x="503" y="1552" type="line"/>
      <point x="536" y="1552" type="line"/>
      <point x="625" y="1434" type="line"/>
      <point x="625" y="1390" type="line"/>
      <point x="376" y="1141" type="line"/>
    </contour>
  </outline>
</glyph>
<glyph name="dotaccent" format="2">
  <advance width="576"/>
  <unicode hex="02D9"/>
  <outline>
    <contour>
      <point x="349" y="1288" type="qcurve"/>
      <point x="349" y="1318"/>
      <point x="366" y="1372"/>
      <point x="395" y="1411"/>
      <point x="436" y="1434"/>
      <point x="458" y="1434" type="qcurve"/>
      <point x="481" y="1434"/>
      <point x="521" y="1411"/>
      <point x="551" y="1372"/>
      <point x="568" y="1318"/>
      <point x="568" y="1288" type="qcurve"/>
      <point x="568" y="1258"/>
      <point x="551" y="1204"/>
      <point x="521" y="1165"/>
      <point x="481" y="1142"/>
      <point x="458" y="1142" type="qcurve"/>
      <point x="436" y="1142"/>
      <point x="395" y="1165"/>
      <point x="366" y="1204"/>
      <point x="349" y="1258"/>
    </contour>
  </outline>
</glyph>
<glyph name="ring" format="2">
  <advance width="576"/>
  <unicode hex="02DA"/>
  <outline>
    <contour>
      <point x="312" y="1393" type="qcurve"/>
      <point x="312" y="1437"/>
      <point x="338" y="1514"/>
      <point x="381" y="1572"/>
      <point x="439" y="1606"/>
      <point x="472" y="1606" type="qcurve"/>
      <point x="505" y="1606"/>
      <point x="563" y="1572"/>
      <point x="606" y="1514"/>
      <point x="632" y="1437"/>
      <point x="632" y="1393" type="qcurve"/>
      <point x="632" y="1349"/>
      <point x="606" y="1272"/>
      <point x="563" y="1214"/>
      <point x="505" y="1180"/>
      <point x="472" y="1180" type="qcurve"/>
      <point x="439" y="1180"/>
      <point x="381" y="1214"/>
      <point x="338" y="1272"/>
      <point x="312" y="1349"/>
    </contour>
    <contour>
      <point x="419" y="1392" type="qcurve"/>
      <point x="419" y="1363"/>
      <point x="449" y="1322"/>
      <point x="471" y="1322" type="qcurve"/>
      <point x="494" y="1322"/>
      <point x="525" y="1363"/>
      <point x="525" y="1392" type="qcurve"/>
      <point x="525" y="1423"/>
      <point x="494" y="1464"/>
      <point x="471" y="1464" type="qcurve"/>
      <point x="449" y="1464"/>
      <point x="419" y="1423"/>
    </contour>
  </outline>
</glyph>
<glyph name="tonehigh" format="2">
  <advance width="576"/>
  <unicode hex="02E6"/>
  <outline>
    <contour>
      <point x="146" y="1119" type="line"/>
      <point x="498" y="1119" type="line"/>
      <point x="539" y="1434" type="line"/>
      <point x="731" y="1434" type="line"/>
      <point x="542" y="0" type="line"/>
      <point x="350" y="0" type="line"/>
      <point x="477" y="964" type="line"/>
      <point x="125" y="964" type="line"/>
    </contour>
  </outline>
</glyph>
<glyph name="toneextralow" format="2">
  <advance width="576"/>
  <unicode hex="02E9"/>
  <outline>
    <contour>
      <point x="19" y="155" type="line"/>
      <point x="371" y="155" type="line"/>
      <point x="539" y="1434" type="line"/>
      <point x="731" y="1434" type="line"/>
      <point x="542" y="0" type="line"/>
      <point x="-2" y="0" type="line"/>
    </contour>
  </outline>
</glyph>
<glyph name="righttoleftmark" format="2">
  <advance width="576"/>
  <unicode hex="02EB"/>
  <outline>
    <contour>
      <point x="601" y="428" type="line"/>
      <point x="250" y="428" type="line"/>
      <point x="194" y="10" type="line"/>
      <point x="32" y="10" type="line"/>
      <point x="162" y="992" type="line"/>
      <point x="324" y="992" type="line"/>
      <point x="268" y="564" type="line"/>
      <point x="619" y="564" type="line"/>
    </contour>
  </outline>
</glyph>
<glyph name="uni02ED" format="2">
  <advance width="576"/>
  <unicode hex="02ED"/>
  <outline>
    <contour>
      <point x="701" y="1173" type="line"/>
      <point x="683" y="1037" type="line"/>
      <point x="167" y="1037" type="line"/>
      <point x="185" y="1173" type="line"/>
    </contour>
    <contour>
      <point x="727" y="1369" type="line"/>
      <point x="709" y="1232" type="line"/>
      <point x="193" y="1232" type="line"/>
      <point x="211" y="1369" type="line"/>
    </contour>
  </outline>
</glyph>
<glyph name="circumflexcomb" format="2">
  <unicode hex="0302"/>
  <outline>
    <contour>
      <point x="-207" y="1920" type="line"/>
      <point x="-51" y="1920" type="line"/>
      <point x="68" y="1585" type="line"/>
      <point x="-27" y="1555" type="line"/>
      <point x="-151" y="1758" type="line"/>
      <point x="-329" y="1555" type="line"/>
      <point x="-415" y="1585" type="line"/>
    </contour>
  </outline>
</glyph>
<glyph name="tildecomb" format="2">
  <unicode hex="0303"/>
  <outline>
    <contour>
      <point x="-248" y="1864" type="qcurve"/>
      <point x="-222" y="1864"/>
      <point x="-182" y="1843"/>
      <point x="-149" y="1812"/>
      <point x="-121" y="1776"/>
      <point x="-92" y="1745"/>
      <point x="-62" y="1724"/>
      <point x="-44" y="1724" type="qcurve"/>
      <point x="-6" y="1724"/>
      <point x="43" y="1804"/>
      <point x="51" y="1864" type="qcurve"/>
      <point x="142" y="1864" type="line"/>
      <point x="132" y="1795"/>
      <point x="94" y="1686"/>
      <point x="41" y="1611"/>
      <point x="-27" y="1572"/>
      <point x="-65" y="1572" type="qcurve"/>
      <point x="-91" y="1572"/>
      <point x="-130" y="1593"/>
      <point x="-163" y="1624"/>
      <point x="-190" y="1660"/>
      <point x="-218" y="1691"/>
      <point x="-249" y="1712"/>
      <point x="-269" y="1712" type="qcurve"/>
      <point x="-307" y="1712"/>
      <point x="-355" y="1632"/>
      <point x="-363" y="1572" type="qcurve"/>
      <point x="-455" y="1572" type="line"/>
      <point x="-446" y="1641"/>
      <point x="-407" y="1750"/>
      <point x="-353" y="1825"/>
      <point x="-286" y="1864"/>
    </contour>
  </outline>
</glyph>
<glyph name="macroncomb" format="2">
  <unicode hex="0304"/>
  <outline>
    <contour>
      <point x="-422" y="1809" type="line"/>
      <point x="135" y="1809" type="line"/>
      <point x="110" y="1627" type="line"/>
      <point x="-447" y="1627" type="line"/>
    </contour>
  </outline>
</glyph>
<glyph name="dieresiscomb" format="2">
  <unicode hex="0308"/>
  <outline>
    <contour>
      <point x="-428" y="1718" type="qcurve"/>
      <point x="-428" y="1746"/>
      <point x="-413" y="1794"/>
      <point x="-386" y="1830"/>
      <point x="-350" y="1850"/>
      <point x="-330" y="1850" type="qcurve"/>
      <point x="-309" y="1850"/>
      <point x="-273" y="1830"/>
      <point x="-246" y="1794"/>
      <point x="-231" y="1746"/>
      <point x="-231" y="1718" type="qcurve"/>
      <point x="-231" y="1691"/>
      <point x="-246" y="1643"/>
      <point x="-273" y="1608"/>
      <point x="-309" y="1588"/>
      <point x="-330" y="1588" type="qcurve"/>
      <point x="-350" y="1588"/>
      <point x="-386" y="1608"/>
      <point x="-413" y="1643"/>
      <point x="-428" y="1691"/>
    </contour>
    <contour>
      <point x="-81" y="1718" type="qcurve"/>
      <point x="-81" y="1746"/>
      <point x="-66" y="1794"/>
      <point x="-40" y="1830"/>
      <point x="-4" y="1850"/>
      <point x="17" y="1850" type="qcurve"/>
      <point x="38" y="1850"/>
      <point x="74" y="1830"/>
      <point x="101" y="1794"/>
      <point x="116" y="1746"/>
      <point x="116" y="1718" type="qcurve"/>
      <point x="116" y="1691"/>
      <point x="101" y="1643"/>
      <point x="74" y="1608"/>
      <point x="38" y="1588"/>
      <point x="17" y="1588" type="qcurve"/>
      <point x="-4" y="1588"/>
      <point x="-40" y="1608"/>
      <point x="-66" y="1643"/>
      <point x="-81" y="1691"/>
    </contour>
  </outline>
</glyph>
<glyph name="ringnosp" format="2">
  <unicode hex="030A"/>
  <outline>
    <contour>
      <point x="-316" y="1719" type="qcurve"/>
      <point x="-316" y="1763"/>
      <point x="-290" y="1840"/>
      <point x="-247" y="1898"/>
      <point x="-189" y="1932"/>
      <point x="-156" y="1932" type="qcurve"/>
      <point x="-123" y="1932"/>
      <point x="-65" y="1898"/>
      <point x="-22" y="1840"/>
      <point x="4" y="1763"/>
      <point x="4" y="1719" type="qcurve"/>
      <point x="4" y="1675"/>
      <point x="-22" y="1598"/>
      <point x="-65" y="1540"/>
      <point x="-123" y="1506"/>
      <point x="-156" y="1506" type="qcurve"/>
      <point x="-189" y="1506"/>
      <point x="-247" y="1540"/>
      <point x="-290" y="1598"/>
      <point x="-316" y="1675"/>
    </contour>
    <contour>
      <point x="-209" y="1718" type="qcurve"/>
      <point x="-209" y="1689"/>
      <point x="-179" y="1648"/>
      <point x="-157" y="1648" type="qcurve"/>
      <point x="-134" y="1648"/>
      <point x="-103" y="1689"/>
      <point x="-103" y="1718" type="qcurve"/>
      <point x="-103" y="1749"/>
      <point x="-134" y="1790"/>
      <point x="-157" y="1790" type="qcurve"/>
      <point x="-179" y="1790"/>
      <point x="-209" y="1749"/>
    </contour>
  </outline>
</glyph>
